<svg preserveAspectRatio="xMidYMid meet" data-bbox="1.033 1 599.967 368" viewBox="0 0 600 368" xmlns="http://www.w3.org/2000/svg" data-type="ugc" role="presentation" aria-hidden="true" aria-label="">
    <g>
        <path d="M369 369c-20.688 0-41.375 0-62.536-.469-.48-10.256-.349-20.048-.634-29.828-.044-1.524-1.983-2.993-3.045-4.487-.886 1.477-2.5 2.934-2.54 4.433-.268 10.112-.202 20.233-.245 30.351-20.688 0-41.375 0-62.515-.374-1.963-3.458-3.474-6.54-5.003-9.928-.781-1.233-1.544-2.163-2.292-3.4.613-1.007 1.211-1.705 2.135-2.428 1.076-.975 1.826-1.926 2.658-3.05.081-.174.134-.555.464-.74.134-2.91-.062-5.634-.285-8.544-.026-.185-.156-.535-.179-.848-.594-.858-1.166-1.404-1.87-2.145-.336-.446-.586-.634-1.048-1.09-5.478-.988-10.792-1.642-16.105-2.305-3.089-.385-3.967 1.037-3.932 4.02.12 10.275 0 20.554-.028 30.832-27.02 0-54.042 0-81.503-.464-.44-4.371-.44-8.277-.44-11.918 4.14-.587 7.539-1.069 11.317-1.53 6.307-1.662 9.211-5.917 8.42-11.757-.72-5.307-4.666-8.367-11.258-8.432-4.146-.03-7.835-.004-11.678-.136-.433.316-.71.79-1.046 1.728.024 11.146.106 21.828.188 32.509H1.033V1c108.321 0 216.675 0 325.288.3-6.985 3.746-14.23 7.193-21.748 10.82-7.66 6.948-15.184 13.6-20.047 22.96-3.382 4.728-6.468 9.295-9.852 14.028-.806 1.37-1.315 2.572-1.849 3.756-.024-.019-.08-.045-.408.03-2.325 2.692-4.18 5.435-6.359 7.89-2.53 2.852-5.342 5.45-8.159 7.844-5.03-7.116-9.934-13.916-14.969-21.032-5.283-7.447-10.436-14.578-15.76-22.047-1.432-1.73-2.66-4.284-3.956-4.32-7.248-.193-14.512.222-22.153.41-3.608.773-6.834 1.566-10.417 2.39-10.915 4.57-18.567 12.07-23.932 22.963 10.178 0 19.74 0 29.546.224 3.038 3.262 5.83 6.3 8.632 9.67 5.43 7.914 10.85 15.495 16.341 23.407 5.7 8.09 11.327 15.848 17.016 23.944 4.91 6.83 9.758 13.323 14.76 20.131 2.093 3.38 4.033 6.444 6.536 10.397 5.675-8.598 10.624-16.097 15.86-23.775 6.2-8.722 12.113-17.266 18.333-25.891 4.975-6.731 9.643-13.38 14.605-20.196.961-.903 1.71-1.583 2.285-2.387 13.379-18.721 26.763-37.44 40.059-56.22 1.09-1.54 1.558-3.52 2.315-5.296 3.361 0 6.723 0 10.588.36-6.523 10.812-13.55 21.264-20.927 32.236 1.889.21 2.699.377 3.509.378 28.243.04 56.486.075 84.729.05 1.43-.001 2.861-.55 4.495-.858.204-.014.592-.144 1.015-.109C456.597 30.583 467.423 17.164 476 1h125c0 79.688 0 159.375-.363 239.528-1.83.547-3.297.63-5.163.633-1.753-.195-3.107-.312-4.535-.794-3.803-3.594-10.544-3.205-13.413.452-14.376.097-28.29.087-42.202.187-1.72.013-3.437.61-5.48 1.081-.982 1.323-1.638 2.5-2.294 3.678 1.856.383 3.711.766 5.549 1.194-.019.046-.016-.053-.042.34.96 2.96 2.776 5.522 2.79 8.093.075 13.348-.383 26.699-.41 40.049-.002 1.162 1.775 2.328 2.937 3.5.213.007.622.123.658.469.27 2.005.504 3.664.737 5.323l1.243.394c.665-2.014 1.33-4.027 2.46-6.1 16.816-.016 33.167.028 49.526.419.922.66 1.905 1.358 2.737 1.21 1.796-.322 3.515-1.078 5.265-1.656 0 0 0 .5-.298.895-2.626 2.285-3.972 4.05.298 5.105v64c-41.02 0-82.042 0-123.585-.42-.077-3.82-1.754-4.737-4.902-4.574-4.072.211-8.163.052-12.323.052v-9.554c3.844 0 7.442.251 10.97-.137 1.224-.135 2.273-1.854 3.403-2.85-1.212-.811-2.35-2.14-3.65-2.326-2.61-.373-5.356.162-7.952-.258-1.14-.184-2.765-1.675-2.943-2.772-.938-5.787-.347-6.347 5.439-6.393 2.496-.02 5.049.333 7.467-.097 1.39-.247 2.563-1.72 3.834-2.641-1.27-.93-2.491-2.565-3.822-2.66-4.636-.331-9.317.026-13.968-.18-3.628-.162-4.992 1.07-4.92 4.863.19 9.978-.006 19.964-.048 29.947-20.354 0-40.708 0-61.607-.4-.377-3.675-2.016-4.765-5.154-4.581-3.356.196-6.732.044-11.422.044 2.446-3.966 4.041-6.591 5.674-9.192 2.995-4.772 6.25-9.4 8.953-14.331 2.544-4.645 1.366-6.346-3.813-6.382-3.99-.028-8.008-.244-11.956.17-1.877.196-5.088 1.551-5.165 2.573-.297 3.924 3.204 2.77 5.452 2.926 2.645.183 5.312.043 9.316.043-4.727 7.457-8.762 13.307-12.209 19.487-1.61 2.887-2.081 6.409-3.069 9.643m155.456-97.283c.146-.34.292-.68.404-1.38 0 0 .12-.34.786-.425.384-1.342.769-2.683 1.204-4.809.022-1.045.043-2.09.227-3.78.091-.435.182-.87.946-1.425 5.23-2.748 5.29-3.812.325-6.996-.662-.424-1.474-.616-2.527-1.312-.26-.203-.52-.407-.812-1.2-.302-.477-.605-.954-1.029-2.088-.942-.822-1.885-1.644-2.906-2.285 0 0 .101-.17.077-.746-.068-.38-.137-.759-.232-1.866-1.307-2.518-2.847-4.44-6.883-2.337-4.33.015-8.66.03-13.807-.063a44 44 0 0 1-4.2.01c-9.987.043-19.974.085-30.661.02-.472.027-.943.053-2.263-.032-1.981.09-3.963.18-6.35-.321a73 73 0 0 1-4.702.31c-5.019 0-10.037.002-15.505-.504-.848 1.072-2.35 2.095-2.436 3.225-.545 7.167-.856 14.355-1.057 21.541-.055 1.938.321 3.958.872 5.83 2.737 9.306.12 12.8-9.512 13.004-2.152.046-4.28 1.194-7.114 1.924-1.765-.03-3.53-.061-5.4-.871-.633-4.198-1.684-8.383-1.814-12.597-.28-9.068.001-18.152-.176-27.225-.029-1.451-1.242-2.88-2.709-4.329-1.063-.071-2.126-.143-3.291-.754-.641.18-1.282.36-2.824.662-3.036.02-6.073.04-9.61-.41-.49.646-1.406 1.29-1.41 1.938-.079 14.041-.175 28.085.058 42.122.041 2.485-.036 5.936 4.502 6.694 1.141 1.212 2.282 2.423 3.485 4.37 1.014.438 2.028.876 3.718 1.334 1.057.352 2.114.705 3.18 1.772 1.057 3.664 2.487 2.42 4.87.253 3.359-.25 6.718-.5 10.977-.69 4.046.267 8.092.534 12.25 1.45 2.449 2.397 3.7.573 5.55-1.622.45-.03.898-.06 1.802.442 3.308 1.133 4.839-.55 5.54-3.55 0 0 .038.02.795.001 8.603-3.156 8.603-3.156 6.2-9.663.06-.444.121-.888.89-1.504.256-.2.728-.394.734-.6.303-10.185.517-20.373.875-30.555.068-1.93.69-3.84 1.135-6.173 3.293 3.469 5.686 5.99 8.241 9.432-.045 9.016-.09 18.033-.753 27.186-2.132 1.923-3.24 3.718.75 5.625-.046.742-.09 1.483-.83 2.253l-5.163 4.319c2.91.84 4.4 1.27 6.204 2.464 5.29.37 10.578.74 16.276 1.651 1.215-1.516 3.475-3.038 3.467-4.548-.037-7.312-.753-14.617-1.035-21.932-.038-1.004 1.006-2.05 1.549-3.077l1.423.338 2.71 12.01c1.909-.948 3.385-1.682 5.239-2.424 0 0 .37-.079.362.493-.01.19-.019.381.088 1.036.14.295.353.524 1.19.827.183.055.365.11.543.728.03.373.06.747-.409 1.535 2.151 4.08.704 10.582 7.651 11.475 0 0-.066.002.082.48.173.303.425.512 1.238.694 0 0 .489.008.555-.055 0 0-.08.043.101.759 1.629.446 3.258.892 4.999 1.977.967-.208 1.934-.417 3.808-.77 3.653-.013 7.306-.026 11.68-.004.614-.18 1.687-.246 1.765-.56.446-1.787-4.346-7.784-6.988-8.609-.421-.306-.842-.613-1.36-.891 0 0 .1.013-.033-.506-.29-.18-.58-.36-.887-.433 0 0 .077-.076.1-.75a51 51 0 0 0-.388-2.535c-.264-.232-.53-.465-1.203-.728 0 0-.41-.02-.523-.597-.37-.417-.74-.835-1.094-1.342 0 0-.09-.006-.072-.665-.06-.436-.12-.872.453-1.552.568-.916 1.136-1.832 2.52-2.782 3.032.37 4.6-.766 4.113-4.027 0 0 .024.004.464-.223a1.6 1.6 0 0 0 .54-.78s-.05-.023.455-.282m-390.345-16.36c-.39-.38-.78-.758-1.396-1.677-.32-.211-.64-.422-1.163-1.245l-23.586-22.964c0 10.576-.048 19.67.012 28.762.088 13.286.254 26.572.369 40.171l.228.214s.304-.076 1.22.185h15.011c0-10.762 0-20.83.611-30.987.197-.058.394-.117 1.061.343 2.177 1.978 4.353 3.957 6.921 6.451 5.491 5.287 10.983 10.573 16.626 16.486l18.593 18.766v-69.573c-4.255 0-8.068.15-11.863-.044-3.428-.174-4.763 1.078-4.668 4.603.198 7.32.13 14.648.01 21.97-.028 1.712-.7 3.413-1.289 4.644-.46-.216-.92-.431-1.604-1.249-.737-.723-1.474-1.447-2.494-2.777-2.93-2.754-5.86-5.508-8.94-8.74-.274-.17-.549-.34-1.019-1.048-.317-.198-.634-.395-1.16-1.127-.509-.223-1.017-.445-1.536-.574 0 0 .093-.015.056-.59m208.895 43.641s.123-.138.041.622l.554 2.886.937-.027c.155-1.148.31-2.297 1.372-3.515 3.028.037 6.057.074 9.218.79 1.707 1.879 3.07 1.998 4.249-.852 0 0 .389-.012 1.176.053.928-1.077 2.68-2.17 2.66-3.228-.233-12.328-.81-24.65-1.037-36.978-.021-1.171 1.739-3.42 2.612-3.391 5.128.173 10.238.875 15.772 1.442.144-1.355.276-2.598.44-3.8 0 0-.042-.03.7-.011l2.823-.604-.03-.915c-1.121-.162-2.244-.323-3.461-1.394-.016-.83-.042-1.659-.045-2.488-.023-6.591-.022-6.614-6.758-6.615-19.409-.001-38.818.018-58.683-.51-1.511.17-3.022.34-5.47.507-3.478.001-6.976.232-10.43-.058-3.776-.317-4.8 1.121-4.75 4.795.158 11.757-.036 23.517-.795 35.39-3.191.968-6.388 2.752-9.571 2.727-5.83-.047-11.65-1.162-17.554-2.765v-40.6c-6.337.572-11.7 1.055-17.836 1.736-.38 3.995-.782 7.989-1.135 11.987-.703 7.966 1.63 16.149-1.864 23.959-.469 1.048.444 2.788.887 4.153.571 1.76 1.685 3.415 1.917 5.2.923 7.088 11.593 13.957 18.998 11.419 4.01-.067 8.02-.133 12.95-.019 4.368.035 8.737.07 13.638.677 5.199.721 14.039-3.188 16.342-7.62.686-1.318.184-3.255.213-5.59.075-.448.15-.895.756-1.45.02-.65.039-1.3.04-2.605.025-.437.05-.874.777-1.422 2.036-1.682 2.124-3.03-.72-4.633.02-.75.04-1.5.853-2.43.403-4.775.95-9.544 1.17-14.327.246-5.356 2.831-7.559 8.745-6.472.425.094.85.187 1.415.967 3.232 3.07 6.97 3.237 11.177 2.505 2.45-.427 5.101.291 7.73 1.43-.02 13.024-.041 26.048-.797 39.075l-2.769.717.098.939c1.193.072 2.386.144 3.445.343m-46.053-138.05s-.01-.111.602-.348c1.143-1.866 2.287-3.73 3.78-6.19 2.22-3.136 4.442-6.272 7.29-9.66 8.021-11.083 16.11-22.12 24.033-33.272 3.32-4.674 6.292-9.594 9.397-14.434 0 0-.018.018.45-.18.166-.288.33-.575.928-1.372 4.027-5.257 7.892-10.65 12.178-15.686 1.27-1.493 3.654-2.576 5.65-2.812 5.215-.617 10.497-.662 16.63-.877 2.345-.023 4.69-.047 7.379.319.595-.134 1.19-.268 2.482-.637 1.43-.299 2.861-.598 5.127-.768 7.693-.099 14.029-3.663 19.95-8.053 8.104-6.006 13.142-14.445 18.98-23.544-12.042 0-22.916 0-34.705-.241-5.702.095-11.405.191-17.83.042-7.397.066-14.793.132-23.108-.034-5.394.048-10.788.095-16.966-.032-1.762.814-4.139 1.156-5.187 2.519-6.861 8.92-13.569 17.968-20.043 27.173-3.1 4.407-5.579 9.25-8.67 13.967 0 0-.306.153-.898.43-.87 1.215-1.74 2.429-3.167 4.002-1.408 2.262-2.815 4.523-4.82 7.099-.595 1.19-1.19 2.38-2.125 3.581 0 0-.3.158-.866.408-.455.89-.91 1.781-1.416 2.663 0 0 .01.052-.594.335-8.134 11.247-16.203 22.541-24.453 33.702-1.836 2.483-1.597 4.229.174 6.579 4.095 5.435 7.879 11.104 11.85 16.634 2.835 3.946 5.77 7.821 9.166 12.414 3.002-4.851 5.423-8.763 7.849-12.675 0 0 .001-.005.444-.181.274-.209.41-.485.509-.872M39.399 269.12c-.792-.388-1.584-.776-2.648-1.755-.602-1.112-1.204-2.225-1.842-3.98-.589-.875-1.178-1.749-1.852-3.34-2.75-5.495-5.432-11.026-8.31-16.453-.534-1.01-1.827-2.23-2.822-2.278-4.885-.235-9.788-.107-16.008-.107 9.47 18.037 18.325 34.9 27.24 52.478l6.116 12.155 33.081-64.656c-5.225 0-9.226.216-13.19-.068-3.158-.227-4.864 1.088-6.231 3.737-4.179 8.1-8.509 16.121-12.9 24.196 0 0 .037.116-.634.07m157.557 21.97c-.042-9.042-.085-18.084.007-27.762-.041-.43-.083-.86-.009-2.163-.037-2.051-.074-4.102.015-6.683-.001-.182-.002-.364.429-.718.283-.155.49-.38 1.49-.618a223 223 0 0 1 6.621-.042c.166-.02.332-.04 1.43.032 8.652-.007 17.318-.308 25.95.094 4.881.228 5.411-1.968 5.267-5.91-.135-3.68.385-6.593-5.205-6.485-18.461.355-36.934.106-55.402.119-1.4 0-2.8.241-4.874.433 1.068 1.346 1.646 2.074 2.547 3.402 3.297 4.29 5.087 8.92 4.989 14.552-.2 11.546.153 23.103.009 35.397.604 1.32 1.209 2.639 2.672 4.12 2.03-.073 4.06-.147 6.762-.037.454-.07.908-.139 2.094-.033.746-.053 1.491-.105 2.915.058.731-.62 1.463-1.24 2.314-2.655a53 53 0 0 1-.033-3.688s-.095-.479.012-1.413m-112.308 7.819h10.919v-57.519H79.123c0 18.526.012 36.618-.01 54.71-.004 3.552 2.578 2.667 5.535 2.809m127.282-21.832 25.567 1.26c.536-3.221.974-5.472 1.274-7.74.508-3.83-.636-5.858-5.095-5.632-6.45.327-12.928.074-19.394.07-4.167-.002-8.335 0-13.62 0 4.199 4.537 7.437 8.036 11.268 12.042m203.167 3.656-.164-1.497-1.341.344c.302.426.605.852 1.505 1.153m-75.394 21.839.859-.82c-.114-.118-.32-.346-.327-.34-.302.256-.585.532-.532 1.16" fill="#FFFFFE"></path>
        <path d="M352.531 1c-.288 1.776-.756 3.756-1.846 5.296-13.296 18.78-26.68 37.499-40.06 56.22-.574.804-1.323 1.484-2.434 2.054-.87-1.738-2.167-4.115-1.58-4.748 3.568-3.853 1.795-8.38 1.908-12.532.265-9.737-.295-19.502.136-29.227.155-3.508-.347-5.423-3.809-6.123 7.245-3.447 14.49-6.894 21.944-10.64 8.564-.3 16.918-.3 25.741-.3" fill="#F5E08C"></path>
        <path d="M397 1c8.354 0 16.708 0 25.531.469.473 10.808.477 21.148.012 31.501-3.953.017-7.442.149-10.919-.006-4.549-.202-9.087-.63-13.628-1.4-.33-10.482-.663-20.523-.996-30.564" fill="#E8CD77"></path>
        <path d="M601 259c0 10.688 0 21.375-.363 32.57-1.779.814-3.194 1.12-4.663 1.015-.36-2.475-.667-4.539-1.02-6.933-1.018-.135-1.988.06-3.423.313-6.82.03-13.175.001-19.619-.406-3.846-2.466-7.444-2.214-11.222.401-.785.016-1.234-.02-1.724-.406-1.375-4.429-2.71-8.508-4.068-12.903.182-1.131.387-1.946 1.023-2.72a217 217 0 0 1 9.122 3.03c-.042.033.028-.048.004.35-.248 4.217 2.242 4.676 5.47 4.592.693.07 1.087.141 1.58.596 8.292.706 16.481 1.027 24.671 1.35-.26-.95-.52-1.9-.814-3.302-.057-4.03-.08-7.607-.088-11.546-1.142-2.587-2.1-2.456-3.338-.06-10.82.055-21.174.048-31.535-.32-.82-1.019-1.557-1.818-2.464-2.294-1.134-.593-2.408-.92-3.66-1.757-.01-1.448.02-2.502.45-3.57 3.37-.668 6.342-1.882 9.308-1.872 8.778.03 17.551.655 26.33.827 4.935.096 7.402.636 10.043 3.045m-38.798 20.608.012-1.182c-.163-.001-.469-.013-.47-.002-.03.391-.031.785.458 1.184" fill="#FFFFFE"></path>
        <path d="M397.994 32.004c4.543.33 9.081.758 13.63.96 3.477.155 6.966.023 11.38.02 4.682.065 8.435.13 12.187.195-1.43.295-2.861.844-4.292.845-28.243.025-56.486-.01-84.73-.05-.81 0-1.62-.168-3.508-.378 7.377-10.972 14.404-21.424 21.385-32.235 3.647-.361 7.34-.361 11.493.108.13 8.715-.053 16.972-.594 25.205-.263 4.014.822 5.672 5.147 5.415 5.948-.354 11.933-.087 17.902-.085" fill="#F0D988"></path>
        <path d="M475.531 1c-8.108 16.164-18.934 29.583-38.972 31.716.284-5.546 3.775-6.205 8.565-5.697-5.038-2.597-7.215-6.413-7.138-11.579.072-4.812.015-9.627.014-14.44z" fill="#E2C46C"></path>
        <path d="M397.996 31.563c-5.971.44-11.956.172-17.904.526-4.325.257-5.41-1.401-5.147-5.415.541-8.233.724-16.49 1.054-25.205C382.688 1 389.375 1 396.531 1c.802 10.04 1.135 20.082 1.465 30.563" fill="#EED37C"></path>
        <path d="M437.534 1c.467 4.813.524 9.628.452 14.44-.077 5.166 2.1 8.982 7.138 11.58-4.79-.51-8.28.15-8.989 5.66-.15.342-.537.472-.74.486a2095 2095 0 0 1-11.922-.196c-.465-10.353-.469-20.693-.473-31.501C427.69 1 432.379 1 437.534 1" fill="#E6C86F"></path>
        <path d="M454.469 369c-.427-9.983-.231-19.969-.421-29.947-.072-3.793 1.292-5.025 4.92-4.863 4.65.206 9.332-.151 13.968.18 1.33.095 2.551 1.73 3.822 2.66-1.27.92-2.444 2.394-3.834 2.641-2.418.43-4.971.078-7.467.097-5.786.046-6.377.606-5.439 6.393.178 1.097 1.804 2.588 2.943 2.772 2.596.42 5.341-.115 7.952.258 1.3.185 2.438 1.515 3.65 2.327-1.13.995-2.18 2.714-3.403 2.849-3.528.388-7.126.137-10.97.137v9.554c4.16 0 8.251.16 12.323-.052 3.148-.163 4.825.754 4.433 4.574-7.3.42-14.654.42-22.477.42" fill="#DFC47C"></path>
        <path d="M369.469 369c.519-3.234.99-6.756 2.6-9.643 3.447-6.18 7.482-12.03 12.21-19.487-4.005 0-6.672.14-9.317-.043-2.248-.156-5.749.998-5.452-2.926.077-1.022 3.288-2.377 5.165-2.574 3.948-.413 7.967-.197 11.956-.17 5.179.037 6.357 1.738 3.813 6.383-2.702 4.931-5.958 9.559-8.953 14.33-1.633 2.602-3.228 5.227-5.674 9.193 4.69 0 8.066.152 11.422-.044 3.138-.184 4.777.906 4.685 4.582-7.278.399-14.632.399-22.455.399" fill="#EBD389"></path>
        <path d="m140.995 355.067-10.938 1.551c0 3.64 0 7.547-.028 11.918-1.096.464-2.162.464-3.629.464-.482-10.681-.564-21.363-.337-32.624.522-.87.736-1.163.95-1.455 3.688-.026 7.377-.053 11.748.252 1.91.923 3.138 1.514 5.313 2.56-2.577.694-3.83 1.032-5.526 1.409-2.674.04-4.904.04-7.579.04v11.381c2.135.184 3.586.309 5.25.694 1.4.068 2.588-.124 3.945-.388.17-.072.537-.093.848.057a64 64 0 0 1 2.83 2.054z" fill="#D3A55F"></path>
        <path d="M300.428 369a470 470 0 0 1-.182-30.35c.04-1.5 1.653-2.957 2.539-4.434 1.062 1.494 3.001 2.963 3.045 4.487.285 9.78.154 19.572.165 29.828-1.71.469-3.424.469-5.567.469" fill="#F5E292"></path>
        <path d="M601 258.532c-2.641-1.941-5.108-2.481-10.043-2.577-8.779-.172-17.552-.796-26.33-.827-2.966-.01-5.937 1.204-9.533 1.612.299-1.354 1.053-3.131 2.19-3.426 2.117-.55 4.458-.236 7.174-.234 10.16.018 19.851-.01 29.862-.057.6-.685.883-1.352 1.286-2.453.026-3.144-.07-5.854-.05-8.75.115-.188.317-.58.317-.58 1.467-.082 2.935-.165 4.764-.244.363 5.692.363 11.38.363 17.536" fill="#FEFDF3"></path>
        <path d="M231 369c-4.025 0-8.05 0-12.549-.466-.473-4.688-.473-8.91-.473-13.182 2.114-.263 3.567-.444 5.352-.497 2.778 4.8 5.224 9.473 7.67 14.145" fill="#FEFDF3"></path>
        <path d="M231.428 369c-2.874-4.672-5.32-9.344-8.16-14.434a107 107 0 0 0-2.294-2.183 583 583 0 0 1 8.358-2.417c.77-.686 1.22-1.325 1.918-1.965h1.117c1.127-.001 1.877-.003 2.648.313.047.53.074.74.102.95 0 0-.053.382-.46.593-1.156 1.154-1.907 2.096-2.657 3.037-.599.699-1.197 1.397-1.845 2.758.75 1.558 1.547 2.454 2.345 3.35 1.511 3.083 3.022 6.166 4.516 9.624-1.73.374-3.445.374-5.588.374" fill="#EAD086"></path>
        <path d="M216 369c-.444 0-.889 0-1.674-.469-.344-7.268-.343-14.068-.35-20.868-.012-12.311 2.325-14.122 14.632-11.308.803.183 1.59.44 2.346.981-.676.77-1.314 1.222-2.244 1.38-2.264-.43-4.287-.907-6.193-.617-2.064.314-5.435.963-5.75 2.134-.853 3.173-2.532 7.003 1.159 10.255-.627 6.434-1.276 12.473-1.926 18.512" fill="#E6C476"></path>
        <path d="M230.992 337.017c-.794-.222-1.58-.479-2.384-.662-12.307-2.814-14.644-1.003-14.632 11.308.007 6.8.006 13.6.016 20.868-.436.469-.88.469-1.659.469-.305-10.278-.185-20.557-.305-30.833-.035-2.982.843-4.404 3.932-4.019 5.313.663 10.627 1.317 16.043 2.364.102.39-.022.513-.269.507-.247-.005-.742-.002-.742-.002" fill="#E3CC91"></path>
        <path d="M216.333 369c.317-6.04.966-12.078 1.64-18.557.024-.44.116-.533.562-.51 3.699-.056 6.951-.135 10.272-.14l.207.22-8.04 2.37c.582.54 1.241 1.152 1.962 2.054-1.391.47-2.844.652-4.958.915 0 4.271 0 8.494.01 13.182-.432.466-.877.466-1.655.466" fill="#E3CC91"></path>
        <path d="M596.028 292.997c1.415-.307 2.83-.613 4.609-.959.363 2.004.363 4.045.363 6.524-1.75 1.016-3.469 1.772-5.265 2.094-.832.148-1.815-.55-2.372-1.31 1.127-2.412 1.896-4.38 2.665-6.349" fill="#FEFDF3"></path>
        <path d="M601 304.583c-4.27-.637-2.924-2.403-.298-4.438.298 1.244.298 2.633.298 4.438" fill="#FEFDF3"></path>
        <path d="M342.08 97.075c-3.13 4.809-6.102 9.73-9.422 14.403-7.923 11.152-16.012 22.189-24.381 33.046.248-2.142.845-4.06 1.157-5.062-.21-3.37-.397-6.054-.536-8.742-.06-1.157-.014-2.319-.028-3.478-.155-11.993-.556-23.99-.291-35.974.064-2.87-.438-3.984-2.948-4.512 2.76-4.646 5.24-9.488 8.339-13.895 6.474-9.205 13.182-18.252 20.043-27.173 1.048-1.363 3.425-1.705 5.493-2.119-1.215 1.18-2.737 1.958-4.259 2.736l1.595.287c.096 5.894.11 11.79.31 17.68.217 6.414.3 12.86 1.083 19.212.286 2.317 1.264 4.056.127 6.732-1.116 2.626-1.132 6.546 3.718 6.86" fill="#F5E18E"></path>
        <path d="M316.003 241.002c19.408-.011 38.817-.03 58.226-.029 6.736 0 6.735.024 6.758 6.615.003.83.03 1.659.032 3.27-.028 1.225-.045 1.668-.06 2.111 0 0 .041.03-.44.04-5.304.028-10.148.323-14.947-.013-4.295-.301-5.771.922-5.69 5.48.244 13.466-.039 26.942-.116 40.414l-.978.032c-1.657.065-2.725.109-3.793.153a3029 3029 0 0 1-9.848-.132c-1.182-.041-1.6-.062-2.018-.083 0 0-.123.138-.056-.239.01-.793-.049-1.21-.107-1.625.022-13.024.043-26.048.272-39.77-.97-1.855-2.097-3.939-3.337-4.008-5.287-.297-10.609.003-15.918.085-.425-.094-.85-.187-1.662-.654-2.363-4.132-4.34-7.89-6.318-11.647" fill="#F3DD8B"></path>
        <path d="m496.979 284.009-.134-1.686c-.316-.814-.588-1.063-1.096-1.34-.238-.03-.709-.115-.709-.115.01-.19.019-.38.008-1.207-.712-1.634-1.404-2.632-2.076-3.648.02-.018-.006.027.007-.379-.73-2.958-1.473-5.51-2.382-8.633 5.311 0 10.594.283 15.818-.15 1.893-.157 5.079-1.923 5.17-3.14.209-2.82 2.56-6.6-1.92-8.763-.458-.293-.622-.545-.769-1.26-1.542-.834-3.002-1.566-4.49-1.628-4.13-.17-8.272-.06-12.414-.434-1.08-1.824-2.231-3.227-3.209-4.741-1.013-1.569-1.857-3.246-2.324-4.878 3.797-.29 7.142-.576 10.488-.863 1.094-.047 2.188-.093 3.99.186 7.667-.37 13.907 2.285 20.238 4.517 0 0-.1.17-.083.44 1.015 1.071 2.013 1.872 3.01 2.672.302.477.605.954.645 1.95.548 4.033 1.358 7.546 2.167 11.06-.021 1.044-.042 2.09-.285 3.55-.222.417-.612.491-.863.657-.404.732-.556 1.297-.713 1.87-.004.006.02.03-.353.049-1.144 1.659-1.915 3.298-2.788 5.16-.306.495-.574.672-1.275.753-1.783 1.022-3.195 2.043-4.768 3.284-.475.39-.79.56-1.319.979.306 1.417.824 2.584 1.342 3.751 0 0 .09.006.121.346.413.753.794 1.166 1.176 1.579 0 0 .41.02.599.303.189.461.19.64.198 1.156.398 1.057.79 1.778 1.182 2.498 0 0-.077.076.009.273.368.383.651.569.934.755 0 0-.1-.013-.087.364.721 1.435 1.43 2.492 2.134 3.58-.004.03-.064.024.018.267.362.426.643.608.939.77.016-.018.061-.038-.004.376-1.402 1.181-2.7 2.513-4.085 2.61-4.35.303-8.731.142-13.1.16 0 0 .08-.042.068-.401-1.029-1.776-2.045-3.192-3.044-4.636.017-.028 0 .032-.005-.278-.359-.768-.714-1.225-1.033-1.71.035-.029.018.06-.062-.18-.344-.441-.607-.642-.86-.848.011-.005-.006.012-.003-.36a27.4 27.4 0 0 0-3.33-4.611 28 28 0 0 0-.678-.026" fill="#E4C974"></path>
        <path d="M595.474 241.161c.399.08.197.47-.333.658-10.294.498-20.055.987-29.819 1.043-4.886.029-5.174 2.807-5.097 5.865.99 2.189 6.093-.234 3.765 4.305-2.248.046-4.589-.268-6.706.282-1.137.295-1.891 2.072-2.592 3.44.197 1.314.168 2.368-.036 4.087.161 3.46.498 6.254.834 9.049-.205.815-.41 1.63-.819 3.06-.028 4.823.146 9.03.422 13.603.625.708 1.116 1.276 1.678 1.356 6.006.864 7.178 2.745 5.31 8.708h-23.079c0-12.57.042-24.763-.044-36.955-.013-1.89-.612-3.775-1.003-5.85-.063-.19-.041-.587-.034-.927-.37-.84-.747-1.341-1.4-1.995-1.33-1.43-2.384-2.707-3.438-3.984 0 0-.003.1-.028-.274-.98-1.812-1.933-3.251-2.886-4.69 1.718-.326 3.435-.923 5.155-.936 13.913-.1 27.826-.09 42.66-.101 4.956-.049 8.992-.11 13.029-.172 1.354.116 2.708.233 4.461.428" fill="#E2C671"></path>
        <path d="M258.025 68.943c2.69-2.708 5.504-5.307 8.033-8.158 2.179-2.456 4.034-5.199 6.449-7.481 1.108 2.862 2.362 5.383 2.398 7.92.195 13.941.086 27.886.097 41.83.002 2.705.074 5.41.114 8.115l-15.573 23.596c-2.503-3.953-4.443-7.017-6.156-10.407 1.525.13 2.822.585 4.613 1.214 0-6.275-.003-12.157 0-18.039z" fill="#E9CB7B"></path>
        <path d="M151.022 271.937c.376-1.706 1.047-3.407 1.075-5.119.12-7.322.188-14.65-.01-21.97-.095-3.525 1.24-4.777 4.668-4.603 3.795.193 7.608.044 11.863.044v69.573c-6.69-6.752-12.641-12.76-18.611-19.456.472-1.525 1.385-2.362 1.384-3.198-.007-5.09-.223-10.181-.369-15.271" fill="#E5C479"></path>
        <path d="m249.915 241.997 17.061-1.537c0 14.111 0 27.355.003 41.447.28 4.657 3.277 4.342 5.802 4.568 2.739.245 5.495.285 8.242.808-.352 4.073-.701 7.751-1.051 11.43-4.01.067-8.02.133-12.747-.027-13.071-3.407-17.194-8.722-17.2-21.338-.005-11.783-.07-23.567-.11-35.35" fill="#F1DB8A"></path>
        <path d="M124.806 267.906v30.897c-5.231 0-10.121 0-15.537-.222-.525-.223-.904-.491-.904-.491-.133-13.285-.299-26.57-.387-39.857-.06-9.092-.012-18.186-.012-28.762 8.51 8.285 16.048 15.624 23.344 23.248-2.003.12-4.484-1.5-4.856 1.734-.438 3.815-.324 7.693-.452 11.546-.002.001-.006.005-.288.03-.49.643-.7 1.26-.908 1.877" fill="#DEBB71"></path>
        <path d="M227.342 25.887c5.152 7.131 10.305 14.262 15.467 22.004-.122 3.166-.273 5.72-.382 8.277-.505 11.813-.868 23.635-1.567 35.437-.247 4.174 2.308 9.107-2.675 12.296-5.627-7.76-11.254-15.519-16.612-23.67 3.104-3.924 5.014-7.54 1.786-11.92-.402-.547-.178-1.595-.155-2.407.348-12.172.627-24.346 1.199-36.507.057-1.213 1.916-2.342 2.939-3.51" fill="#E2BD6F"></path>
        <path d="M280.432 298.804c-.11-3.77.24-7.448.994-11.582 3.196-.698 5.987-1.146 8.777-1.135 3.627.013 5.35-1.34 4.598-5.104.059-11.759.253-23.52.094-35.276-.049-3.674.975-5.112 4.75-4.795 3.455.29 6.953.06 10.96.458.792 1.844 1.269 3.285 1.283 4.731.094 9.3.085 18.6.11 27.899-.02.75-.039 1.5-.067 3.024.003 1.84.014 2.905.025 3.971-.025.437-.05.874-.28 1.833a13.5 13.5 0 0 0-.364 2.19c-.075.448-.15.895-.497 1.871-3.639 7.457-9.901 10.25-16.816 12.11-4.369-.035-8.738-.07-13.567-.195" fill="#F5E292"></path>
        <path d="M198.016 253.086c-.129.296-.335.521-.993.552-.77-.065-1.165-.007-1.56.05l1.38 1.321c.037 2.052.074 4.103-.14 6.738-.126 1.128 0 1.672.125 2.216.043 9.041.086 18.083-.066 27.684-.096.818.003 1.077.102 1.336.038 1.068.075 2.137-.264 3.612-1.124.948-1.87 1.491-2.615 2.034-.746.052-1.491.104-2.662-.178-1.064-.162-1.702.011-2.34.184-2.03.074-4.06.148-6.53-.21-.946-1.763-1.455-3.097-1.963-4.43-.126-11.553-.48-23.11-.28-34.656.099-5.631-1.691-10.262-5.044-15.265 3.073-1.167 6.195-1.93 9.334-2.012 7.373-.194 14.754-.062 22.27-.062l-.763 11.043c-.166.02-.332.04-1-.26-2.666-.113-4.828.095-6.99.303" fill="#E8CA7B"></path>
        <path d="M238.247 104.237c4.921-3.525 2.366-8.458 2.613-12.632.699-11.802 1.062-23.624 1.567-35.437.109-2.556.26-5.11.512-7.96 5.026 6.504 9.93 13.304 14.96 20.42.118 13.178.108 26.042.102 38.905-.004 5.882-.001 11.764-.001 18.04-1.79-.63-3.088-1.086-4.766-1.531-5.229-6.482-10.077-12.975-14.987-19.805" fill="#E6C476"></path>
        <path d="M275.402 110.99c-.326-2.526-.398-5.231-.4-7.936-.011-13.944.098-27.889-.097-41.83-.036-2.537-1.29-5.058-2.071-7.996-.09-.409-.033-.383.337-.352.847-1.292 1.324-2.614 1.8-3.935 3.087-4.566 6.173-9.133 9.934-13.863 2.433-1.16 4.191-2.157 6.387-3.4.335 1.393.67 2.14.672 2.89.034 14.678.04 29.357.01 44.036-.002.955-.035 2.149-.57 2.825-2.37 3.005.051 3.215 2.025 3.752-5.913 8.543-11.827 17.087-18.027 25.81" fill="#EDD380"></path>
        <path d="M436.997 240.995c5.019-.001 10.037-.002 15.537.481.534 14.5.588 28.515.642 42.53-.06.445-.121.889-.423 1.876-2.4 3.408-4.558 6.274-6.716 9.139 0 0-.039-.02-.378.033-2.066.708-3.792 1.363-5.873 1.992-1.164.3-1.973.63-3.12 1.035-1.448.385-2.56.693-3.671 1.001-4.046-.267-8.092-.534-12.573-1.269.243-4.13.92-7.79 2.051-11.546 4.728-.185 9.002-.275 13.568-.455.47-.44.649-.793.81-1.592.039-14.707.092-28.966.146-43.225" fill="#EBD17C"></path>
        <path d="M486.008 242.01c.918 1.629 1.762 3.306 2.775 4.875.978 1.514 2.13 2.917 2.754 4.741-3.788.86-7.126 1.346-10.423 2.228-.03 15.277-.1 30.159-.17 45.04-5.289-.369-10.578-.738-15.948-1.918-.143-2.54-.204-4.27-.266-6.001.045-.742.09-1.483.156-3.005a186 186 0 0 0-.152-4.982c.045-9.016.09-18.033.133-27.834 0-1.452.002-2.12.017-3.143-.603-.907-1.219-1.458-1.904-2.18-.07-.172-.061-.542-.124-.82-.343-.514-.624-.752-.878-.996.026-.006-.013.031-.024-.277-.357-.77-.703-1.23-1.002-1.702.048-.01-.036.04-.012-.31-1.27-3.375 1.313-3.684 3.014-4.611.471-.027.942-.053 2.069.24 7.099.432 13.542.543 19.985.654" fill="#E8CD7B"></path>
        <path d="M422.02 286.36a729 729 0 0 0-2.048 11.423c-3.374.687-6.733.938-10.773.95a51 51 0 0 0-4.198-.73 54 54 0 0 1-3.68-1.343c-1.43-.785-2.35-1.284-3.27-1.784-1.142-1.211-2.283-2.422-3.77-4.15-1.013-3.038-2.228-5.553-2.26-8.083-.174-13.893-.06-27.79-.044-41.685 3.037-.02 6.074-.04 9.896-.05 1.237-.038 1.688-.085 2.14-.132 1.063.071 2.126.143 3.609.688.441 13.297.432 26.121.51 38.945.016 2.621-.26 5.68 3.874 5.511 1.765.03 3.53.061 6.045.102 1.823.12 2.896.23 3.968.339" fill="#EED786"></path>
        <path d="m295.995 162-7.844 12.675c-3.397-4.593-6.331-8.468-9.166-12.414-3.971-5.53-7.755-11.2-11.85-16.634-1.771-2.35-2.01-4.096-.174-6.579 8.25-11.16 16.319-22.455 24.736-33.438.29 4.67.301 9.078.302 13.485.003 12.826.069 25.653-.048 38.479-.028 3.008.5 4.947 4.044 4.426" fill="#EDD380"></path>
        <path d="M293.736 85.099c-2.28-.455-4.703-.665-2.331-3.67.534-.676.567-1.87.569-2.825q.043-22.02-.01-44.036c-.002-.75-.337-1.497-.672-2.89-2.196 1.243-3.954 2.24-6.092 3.238 4.189-9.196 11.714-15.848 19.373-22.797 3.735.52 4.237 2.436 4.082 5.944-.43 9.725.129 19.49-.136 29.227-.113 4.151 1.66 8.679-1.909 12.532-.586.633.71 3.01 1.287 4.914-4.518 6.982-9.186 13.632-14.161 20.363" fill="#F2DA86"></path>
        <path d="M295.997 162c-3.546.521-4.074-1.418-4.046-4.426.117-12.826.05-25.653.048-38.479 0-4.407-.012-8.814 0-13.627.02-.405.01-.457.365-.516.779-.99 1.202-1.922 1.626-2.854 0 0 .3-.158.832-.255 1.085-1.331 1.638-2.565 2.19-3.798 1.408-2.262 2.815-4.523 4.88-6.963 1.472-1.485 2.287-2.793 3.102-4.1 0 0 .307-.154.472-.19 2.675.492 3.177 1.605 3.113 4.476-.265 11.984.136 23.981.29 35.974.015 1.16-.03 2.321.03 3.478.138 2.688.325 5.373.535 8.742a89 89 0 0 0-1.47 5.188c-2.187 3.488-4.408 6.624-7.155 10.097-1.64 2.254-2.752 4.172-3.866 6.09 0 0 .01.11-.225.26-.464.354-.625.604-.717.898 0 0-.001.005-.004.005" fill="#F2DA86"></path>
        <path d="M84.177 298.906c-2.486-.141-5.068.744-5.064-2.808.022-18.092.01-36.184.01-54.71h16.444v57.519z" fill="#DBB56C"></path>
        <path d="M342.067 97.06c-4.837-.298-4.821-4.218-3.705-6.844 1.137-2.676.159-4.415-.127-6.732-.783-6.353-.866-12.798-1.084-19.212-.2-5.89-.213-11.786-.309-17.68l-1.595-.287c1.522-.778 3.044-1.557 4.651-2.648a130 130 0 0 1 16.795-.046c1.456.735 2.385 1.06 3.31 1.78-5.048 7.961-1.675 16.764-3.627 24.033 5 5.645 11.13 6.27 17.634 5.591a8.3 8.3 0 0 1 2.994.255l.01.79c-5.256.272-10.538.317-15.753.934-1.996.236-4.38 1.319-5.65 2.812-4.286 5.036-8.151 10.43-12.617 16.054-.717.58-.89.859-.957 1.202 0 0 .018-.018.03-.002" fill="#F4DD89"></path>
        <path d="M40.153 269.025c4.271-8.052 8.601-16.073 12.78-24.173 1.367-2.65 3.073-3.964 6.23-3.737 3.965.284 7.966.068 13.191.068L39.273 305.84c-2.359-4.687-4.237-8.421-5.918-12.672.679-1.066 1.16-1.615 1.697-2.024.143.188.23.237.317.286-.122-.144-.243-.288-.31-.782 1.352-3.394 2.7-6.417 3.928-9.487.964-2.407 1.438-5.078 2.749-7.26 1.552-2.585 1.079-3.938-1.583-4.875" fill="#D6AB65"></path>
        <path d="M227.17 25.55c-.85 1.505-2.71 2.634-2.767 3.847-.572 12.16-.851 24.335-1.199 36.507-.023.812-.247 1.86.155 2.406 3.228 4.382 1.318 7.997-1.858 11.59-5.761-7.519-11.181-15.1-16.583-23.44 6.54-11.125 1.262-22.799 3.957-34.026l-7.431-.776c7.258-.207 14.522-.622 21.77-.428 1.296.035 2.524 2.59 3.956 4.32" fill="#DDB66A"></path>
        <path d="M34.997 291.004a34 34 0 0 1-1.673 1.805c-9.082-16.704-17.936-33.566-27.407-51.603 6.22 0 11.123-.128 16.008.107.995.048 2.288 1.269 2.823 2.278a224 224 0 0 1 8.198 17.128c-.724 1.875-1.338 3.075-2.341 4.28-1.386.68-2.383 1.356-3.38 2.032l2.036 1.777c.582-1.267 1.164-2.534 2.09-3.807 1.429-.328 2.511-.65 3.594-.974.602 1.112 1.204 2.225 1.934 4.037.123 1.777.12 2.853-.255 3.938-1.792.843-3.212 1.678-5.675 3.125 4.854 1.402 6.094-.034 6.421-3.13 1.143-.95 1.922-1.891 2.7-2.833 0 0-.038-.116.022-.127 2.723.925 3.196 2.278 1.644 4.863-1.31 2.182-1.785 4.853-2.749 7.26-1.228 3.07-2.576 6.093-3.93 9.488a9 9 0 0 1-.06.356" fill="#D3A55F"></path>
        <path d="M398.019 43.434h33.79c-5.838 9.1-10.876 17.538-18.98 23.544-5.921 4.39-12.257 7.954-20.133 7.732 1.61-1.011 3.404-1.701 5.323-2.438z" fill="#E8CD7B"></path>
        <path d="M397.561 43.314c.458 9.621.458 19.122.458 28.958-1.919.737-3.712 1.427-5.74 2.373-1.666.556-3.097.855-5.23 1.252-1.177.115-1.65.132-2.124.149-2.345.024-4.69.048-7.472.043-.441-.205-.444-.38-.097-.826.985-.797 2.175-1.33 2.17-1.849-.04-3.72-.555-7.443-.472-11.156.129-5.758.612-11.508.944-17.516V43.48c5.701-.096 11.404-.192 17.563-.166" fill="#EED37C"></path>
        <path d="M538.018 254c.328 1.887.927 3.773.94 5.662.086 12.192.044 24.384.044 36.955h23.079c1.868-5.963.696-7.844-5.31-8.708-.562-.08-1.053-.648-1.276-1.394 1.37-.473 2.44-.542 3.512-.611.449.036.898.072 2.135.121 4.144-.02 7.502-.054 10.86-.087 6.354.028 12.71.057 19.902.087 1.59-.013 2.344-.028 3.097-.042.306 2.063.612 4.127.973 6.602-.715 2.38-1.484 4.349-2.618 6.416-16.717.054-33.068.01-50.283-.037a233 233 0 0 0-4.077.1s-.41-.116-.68-.583c-.281-15.138-.29-29.81-.298-44.48" fill="#DFC375"></path>
        <path d="M481.149 299.166c-.135-15.153-.065-30.035.423-45.409 9.41-.215 18.402.061 27.394.338.077.308.241.56.735 1.229 1.519 9.293.351 10.618-8.67 10.606-4.534-.006-9.069-.001-15.072-.001l7.007 10.111s.026-.045.049.309c.453 1.39.882 2.427 1.312 3.464l-4.86 2.415-2.71-12.01-1.423-.338c-.543 1.027-1.587 2.073-1.549 3.077.282 7.315.998 14.62 1.035 21.932.008 1.51-2.252 3.032-3.671 4.277" fill="#FEFDF3"></path>
        <path d="M201.061 21.639c2.78.27 5.176.52 7.814.795-2.695 11.227 2.582 22.901-3.966 33.692-2.82-2.61-5.613-5.648-8.545-9.173-2.033-.78-3.927-1.072-5.362-1.292V23.997c3.225-.792 6.45-1.585 10.059-2.358" fill="#DAAF63"></path>
        <path d="M126.004 265.997c.126-3.85.012-7.73.45-11.544.372-3.234 2.853-1.615 4.956-1.428.664.233.984.444 1.47 1.201.533.933.9 1.32 1.268 1.706 0 0-.093.015.023.232.62.443 1.125.667 1.63.892.316.197.633.394 1.074 1.064.43.666.737.86 1.044 1.054 2.93 2.754 5.86 5.508 8.94 8.94.956 1.352 1.762 2.027 2.569 2.701.46.216.92.431 1.487.884.253 5.328.469 10.418.476 15.509.001.836-.912 1.673-1.46 2.885-5.55-4.91-11.04-10.196-16.734-16.122-.202-5.306-4.664-5.72-7.193-7.974" fill="#E2BD6F"></path>
        <path d="M211.633 276.822c-3.534-3.753-6.772-7.252-10.971-11.789 5.285 0 9.453-.002 13.62 0 6.466.004 12.945.257 19.394-.07 4.459-.226 5.603 1.802 5.095 5.631-.3 2.269-.738 4.52-1.274 7.742-8.575-.423-17.07-.842-25.864-1.514" fill="#EBD389"></path>
        <path d="M206.473 253.088c-.233-3.42 0-6.795.296-11.088-7.515 0-14.896-.132-22.269.062-3.14.082-6.26.845-9.496 1.711-.683-.314-1.26-1.042-2.33-2.388 2.075-.192 3.475-.432 4.875-.433 18.468-.013 36.94.236 55.402-.12 5.59-.107 5.07 2.806 5.205 6.485.144 3.943-.386 6.139-5.267 5.911-8.632-.402-17.298-.101-26.416-.14" fill="#EAD086"></path>
        <path d="M190.644 24.03c.358 7.106.358 14.244.358 21.63 1.435.221 3.33.513 5.118 1.068-9.668.264-19.23.264-29.408.264 5.365-10.893 13.017-18.394 23.932-22.963" fill="#D3A55F"></path>
        <path d="M422.473 286.267c-1.526-.016-2.6-.125-4.074-.29 1.737-.695 3.864-1.843 6.016-1.889 9.632-.204 12.249-3.698 9.512-13.003-.55-1.873-.927-3.893-.872-5.83.2-7.187.512-14.375 1.057-21.542.086-1.13 1.588-2.153 2.66-2.972.171 14.513.118 28.772-.15 43.644-.435.913-.654 1.214-.874 1.516-4.273.09-8.547.181-13.275.366" fill="#FEFDF3"></path>
        <path d="M462.919 249.289s-.009.37.095.859c.689 1.065 1.273 1.643 1.857 2.22-.002.667-.004 1.334-.085 2.325-2.472-2.196-4.865-4.717-8.158-8.186-.445 2.333-1.067 4.243-1.135 6.173-.358 10.182-.572 20.37-.875 30.554-.006.207-.478.4-1.088.687-.408-13.93-.462-27.945-.53-42.426 1.24-.581 2.498-.697 4.104-.258 1.503 1.983 2.658 3.411 3.812 4.84 0 0 .084-.052.042.263.308.78.657 1.243 1.007 1.706 0 0 .04-.037.098.23.325.516.59.764.856 1.013" fill="#FEFDF3"></path>
        <path d="M249.528 242.096c.426 11.685.492 23.469.498 35.252.005 12.616 4.128 17.93 16.737 21.36-6.225 2.743-16.895-4.126-17.818-11.214-.232-1.785-1.346-3.44-1.917-5.2-.443-1.365-1.356-3.105-.887-4.153 3.494-7.81 1.16-15.993 1.864-23.959.353-3.998.755-7.992 1.523-12.086" fill="#FEFDF3"></path>
        <path d="M360.16 298.923c-.317-13.505-.034-26.981-.277-40.448-.082-4.557 1.394-5.78 5.689-5.48 4.8.337 9.643.042 14.932-.007.332 1.214.2 2.457.056 3.812-5.534-.567-10.644-1.269-15.772-1.442-.873-.03-2.633 2.22-2.612 3.391.227 12.328.804 24.65 1.036 36.978.02 1.059-1.73 2.151-3.053 3.196" fill="#FEFDF3"></path>
        <path d="M312.395 273.91c-.422-9.21-.413-18.51-.507-27.809-.014-1.446-.49-2.887-.814-4.729 1.45-.569 2.96-.74 4.7-.64a320 320 0 0 1 6.221 11.894c-5.202-.69-7.787 1.512-8.033 6.868-.22 4.783-.767 9.552-1.567 14.416" fill="#FEFDF3"></path>
        <path d="M141.374 355.089c.47-.644 1.319-1.266 2.468-2.11-.895-.675-1.707-1.289-2.58-2.314 4.699-5.282 4.073-8.443-2.269-11.563l5.081-1.369c-2.175-1.046-3.403-1.637-4.856-2.503 5.91-.266 9.856 2.794 10.575 8.1.792 5.84-2.112 10.096-8.419 11.759" fill="#DBB56C"></path>
        <path d="M537.955 253.811c.071 14.86.08 29.532.148 44.663-.891-.705-2.668-1.87-2.666-3.033.027-13.35.485-26.7.41-40.049-.014-2.571-1.83-5.133-2.79-8.092 1.08.883 2.134 2.16 3.52 3.901a85 85 0 0 1 1.337 2.024s-.022.397.04.586" fill="#FEFDF3"></path>
        <path d="M391.727 240.723c.235 14.13.12 28.027.295 41.92.031 2.53 1.246 5.045 1.975 7.95-3.908-.11-3.83-3.56-3.872-6.045-.233-14.037-.137-28.08-.058-42.122.004-.648.92-1.292 1.66-1.703" fill="#FEFDF3"></path>
        <path d="M411.953 285.53c-4.08.559-3.805-2.5-3.82-5.12-.08-12.825-.07-25.649-.111-38.941.647.97 1.86 2.399 1.889 3.85.177 9.073-.104 18.157.176 27.225.13 4.214 1.18 8.399 1.866 12.987" fill="#FEFDF3"></path>
        <path d="M294.451 281.04c1.102 3.706-.621 5.06-4.248 5.047-2.79-.01-5.581.437-8.775.742-3.152-.069-5.908-.109-8.647-.354-2.525-.226-5.522.09-5.763-4.101 5.861.288 11.682 1.403 17.512 1.45 3.183.025 6.38-1.76 9.921-2.784" fill="#FEFDF3"></path>
        <path d="M324.053 253.646c5.24-.425 10.56-.725 15.848-.428 1.24.07 2.367 2.153 3.303 3.54-2.804.027-5.454-.69-7.905-.264-4.208.732-7.945.566-11.246-2.848" fill="#FEFDF3"></path>
        <path d="M294.265 299.284c6.649-2.146 12.911-4.938 16.557-12.054.235 1.466.737 3.403.051 4.722-2.303 4.43-11.143 8.34-16.608 7.332" fill="#FEFDF3"></path>
        <path d="M379.636 43.357c.361.459.362.795-.106 1.386-6.82.254-13.171.253-19.523.252-.929-.325-1.858-.65-2.855-1.268 7.329-.36 14.725-.426 22.484-.37" fill="#E8CD7B"></path>
        <path d="M506.016 297.418c4.279-.377 8.66-.216 13.01-.52 1.384-.096 2.683-1.428 4.369-2.439 1.058 1.332 1.768 2.909 2.478 4.485-3.653.013-7.306.026-11.786.047-1.583.047-2.338.085-3.094.123-1.628-.446-3.257-.892-4.977-1.696" fill="#E8CA7B"></path>
        <path d="M590.939 240.367c-3.963.428-8 .489-12.493.465 1.949-3.67 8.69-4.06 12.493-.465" fill="#FEFDF3"></path>
        <path d="M446.416 295.012c1.78-2.856 3.937-5.722 6.355-8.794 2.626 5.628 2.626 5.628-6.355 8.794" fill="#FEFDF3"></path>
        <path d="M496.73 284.216c.249-.207.701-.195.986.152a325 325 0 0 1 3.268 4.65s.017-.017.08.235a3.5 3.5 0 0 0 .866.84s.017-.088-.008.244c.326.794.677 1.256 1.028 1.717 0 0 .017-.06.045.3.408 1.403.787 2.444 1.166 3.485-6.977-.834-5.53-7.335-7.431-11.623" fill="#FEFDF3"></path>
        <path d="M486.46 242.007c-6.895-.11-13.338-.22-20.086-.598 9.681-.309 19.668-.351 30.113-.33-2.886.352-6.231.639-10.028.928" fill="#E8CA7B"></path>
        <path d="M521.163 245.559c-6.319-1.944-12.559-4.599-19.818-4.174 4.03-.287 8.36-.302 13.377-.057a344 344 0 0 1 6.224 2.805c.068.38.137.759.217 1.426" fill="#E8CA7B"></path>
        <path d="M526.132 251.986c.742.3 1.554.492 2.216.916 4.964 3.184 4.905 4.248-.757 6.648-.774-2.753-1.117-5.158-1.459-7.564" fill="#FEFDF3"></path>
        <path d="M526.234 298.961c-1.07-1.593-1.78-3.17-2.774-4.916-.284-.17-.33-.15-.416-.386-.374-.41-.662-.584-.95-.759 0 0 .06.005.063-.374a38 38 0 0 0-.324-2.464c2.18.573 6.972 6.57 6.526 8.358-.078.313-1.151.379-2.125.541" fill="#FEFDF3"></path>
        <path d="M464.383 290.989c.409 1.716.47 3.447.455 5.605-1.566-.002-3.056-.432-5.965-1.272 2.327-1.947 3.746-3.133 5.51-4.333" fill="#FEFDF3"></path>
        <path d="M529.843 242.087c1.279 1.294 2.232 2.733 3.23 4.5-1.812-.056-3.667-.44-5.523-.822.656-1.177 1.312-2.355 2.293-3.678" fill="#FEFDF3"></path>
        <path d="M126.002 265.999c2.531 2.253 6.993 2.666 7 7.713-2.17-1.596-4.347-3.575-6.762-6.082-.24-.894-.242-1.26-.244-1.626z" fill="#DEBB71"></path>
        <path d="M539.032 299.41c1.035-.38 2.107-.414 3.576-.386-.266 2.076-.931 4.09-1.596 6.103l-1.243-.394c-.233-1.659-.467-3.318-.737-5.323" fill="#FEFDF3"></path>
        <path d="M525.977 251.788c.497 2.604.84 5.009 1.278 7.822.004.843-.087 1.278-.26 2.035-.89-3.19-1.7-6.703-2.232-10.44.537-.022.798.182 1.214.583" fill="#E8CA7B"></path>
        <path d="M235.447 349.08c-.358-.026-.385-.237-.43-1.098a107 107 0 0 1-.017-2.316v-2.074c.064-1.23.126-2.05.189-2.87.196 2.724.392 5.449.258 8.358" fill="#E3CC91"></path>
        <path d="M460.94 245.727c-1.178-1.079-2.333-2.507-3.633-4.194 1.835-.35 3.817-.44 6.223-.474-1.277.983-3.86 1.292-2.59 4.668" fill="#E8CA7B"></path>
        <path d="M440.14 297.073c1.727-.656 3.453-1.31 5.53-2-.372 2.929-1.903 4.61-5.41 2.974-.2-.504-.12-.974-.12-.974" fill="#FEFDF3"></path>
        <path d="M235.162 340.536c-.036 1.006-.098 1.826-.536 3.055-1.127.41-1.877.41-2.836.407-.208-.004-.624-.033-.697-.384-.238-1.046-.404-1.74-.214-2.493.947-.424 1.537-.79 2.46-1.145.778.015 1.223.02 1.667.025 0 0 .13.35.156.535" fill="#E6C476"></path>
        <path d="M520.933 243.77c-1.833-.485-3.679-1.334-5.748-2.431 2.887-2.374 4.427-.452 5.748 2.43" fill="#FEFDF3"></path>
        <path d="M297.25 160.718c.807-1.8 1.92-3.717 3.385-5.675-.793 1.826-1.937 3.691-3.386 5.675" fill="#EDD380"></path>
        <path d="M464.425 283.056c.367 1.332.424 2.733.392 4.547-3.94-.76-2.833-2.555-.392-4.547" fill="#FEFDF3"></path>
        <path d="M522.015 273.033c.77-1.64 1.541-3.28 2.674-4.618.338.728.314 1.156.29 1.583 0 0-.119.34-.321.684-.37.661-.538.978-.706 1.294 0 0 .048.023-.2.094-.408.36-.57.648-.73.936 0 0-.025-.004-.267.011s-.74.016-.74.016" fill="#E8CA7B"></path>
        <path d="M521.912 273.255c.103-.222.601-.223.85-.227.722 3.235-.846 4.372-4.323 3.978-.445-.024-.514-.108-.327-.351a96 96 0 0 1 2.894-2.649c.332-.079.6-.256.906-.751" fill="#FEFDF3"></path>
        <path d="M433.05 299.407c1.056-.633 2.168-.941 3.875-1.257.762.057.928.122 1.094.188-1.211 1.966-2.463 3.79-4.968 1.069" fill="#FEFDF3"></path>
        <path d="M34.927 263.705c-1.065.645-2.147.968-3.579 1.293-.348.002-.354-.004-.354-.004.614-1.2 1.228-2.4 1.995-3.917.742.558 1.331 1.432 1.938 2.628" fill="#D6AB65"></path>
        <path d="M405.006 298.36c1.167-.192 2.34-.029 3.75.398-1.26 2.38-2.69 3.624-3.75-.397" fill="#FEFDF3"></path>
        <path d="M504.146 295.868c-.364-1.07-.743-2.111-1.168-3.485.97 1.083 1.987 2.5 2.983 4.306-.021.391-.51.383-.81.1a21 21 0 0 0-1.086-.889s.066-.002.081-.032" fill="#E8CA7B"></path>
        <path d="M180.355 294.365c.643.963 1.152 2.297 1.67 3.98-.596-.97-1.2-2.29-1.67-3.98" fill="#EAD086"></path>
        <path d="M39.735 269.141c-.443.965-1.222 1.906-2.368 2.854-.367.005-.373 0-.373 0 .004-1.078.008-2.154.021-3.635.8-.017 1.592.371 2.72.781" fill="#D6AB65"></path>
        <path d="M274.674 49.108c-.18 1.154-.656 2.476-1.478 3.786.163-1.214.672-2.416 1.478-3.786" fill="#E9CB7B"></path>
        <path d="M304.698 87.12c-.52 1.17-1.334 2.477-2.528 3.783.492-1.216 1.362-2.43 2.528-3.783" fill="#F5E18E"></path>
        <path d="M525.313 269.955c-.31-.384-.286-.812-.251-1.56.01-.32-.013-.343.234-.521.405-.74.563-1.302.721-1.864 0 0 .39-.074.586-.099a12.5 12.5 0 0 1-1.29 4.044" fill="#FEFDF3"></path>
        <path d="M381.33 252.979c-.356-.453-.34-.896-.263-1.666 1.182-.166 2.305-.005 3.427.157l.029.915c-.94.201-1.882.402-3.194.594" fill="#FEFDF3"></path>
        <path d="M355.062 299.414c1.001-.383 2.069-.427 3.537-.444-.401 2.782-1.764 2.663-3.537.444" fill="#FEFDF3"></path>
        <path d="M343.088 299.24c.46-.359.877-.338 1.606-.262.155 1.204 0 2.353-.156 3.501l-.937.027c-.185-.962-.37-1.924-.513-3.266" fill="#FEFDF3"></path>
        <path d="M342.6 296.997c.424.415.482.83.54 1.56-1.193.242-2.386.17-3.579.098l-.098-.94c.923-.238 1.846-.477 3.136-.718" fill="#FEFDF3"></path>
        <path d="M312.307 280.94c-.362-1.01-.373-2.077-.35-3.541 2.826.456 2.738 1.803.35 3.54" fill="#FEFDF3"></path>
        <path d="M524.041 248.63c-.936-.471-1.934-1.272-2.91-2.433.964.461 1.907 1.283 2.91 2.434" fill="#E8CA7B"></path>
        <path d="M521.602 289.936c.34.821.45 1.516.56 2.56-.709-.708-1.417-1.765-2.09-3.214.457-.085.878.222 1.53.654" fill="#E8CA7B"></path>
        <path d="M232.325 352.87c.425-.917 1.176-1.86 2.251-2.839-.425.913-1.175 1.864-2.25 2.839" fill="#E3CC91"></path>
        <path d="M514.762 278.022c.316-.17.632-.34 1.425-.741.897-.282 1.318-.332 1.738-.383l.106.125c-.53.956-1.099 1.872-2.194 2.715-.71-.621-.892-1.169-1.075-1.716" fill="#FEFDF3"></path>
        <path d="M198.452 253.115c1.727-.237 3.889-.445 6.306-.364-1.788.324-3.829.358-6.306.364" fill="#EAD086"></path>
        <path d="M296.714 98.202c-.254 1.076-.807 2.31-1.723 3.635.233-1.098.829-2.288 1.723-3.635" fill="#EDD380"></path>
        <path d="M194.324 298.736c.407-.65 1.152-1.193 2.216-1.744-.414.612-1.146 1.232-2.216 1.744" fill="#EAD086"></path>
        <path d="M232.482 358.698c-.78-.592-1.578-1.488-2.341-2.738.797.575 1.56 1.505 2.341 2.738" fill="#E3CC91"></path>
        <path d="M494.517 279.808c-.62-1.032-1.05-2.068-1.522-3.44.65.661 1.34 1.66 2.057 3.007.025.35-.346.429-.535.433" fill="#E8CA7B"></path>
        <path d="M514.55 278.27c.395.3.578.847.97 1.59.271.631.331 1.067.382 1.833-.528-.838-1.046-2.005-1.352-3.422" fill="#E8CA7B"></path>
        <path d="M511.05 299.434c.699-.358 1.454-.396 2.583-.37-.593.272-1.56.48-2.584.37" fill="#FEFDF3"></path>
        <path d="M414.798 280.794c-.601-.364-.904-.79-1.206-1.216l1.34-.344c.055.5.11.998-.134 1.56" fill="#FEFDF3"></path>
        <path d="M149.316 270.514c-.695-.373-1.501-1.048-2.315-2.097.729.35 1.466 1.073 2.315 2.097" fill="#E5C479"></path>
        <path d="M398.081 295.244c.89.132 1.81.631 2.902 1.407-.843-.163-1.857-.601-2.902-1.407" fill="#FEFDF3"></path>
        <path d="M293.707 102.223c-.14.807-.564 1.739-1.318 2.734.124-.828.58-1.718 1.318-2.734" fill="#EDD380"></path>
        <path d="M311.577 284.964c-.213-.502-.16-1.058.108-1.808.196.455.177 1.105-.108 1.808" fill="#FEFDF3"></path>
        <path d="M126.858 334.763c-.06.45-.273.742-.737 1.15.027-.36.304-.834.737-1.15" fill="#DBB56C"></path>
        <path d="M339.533 302.392c.117-.45.4-.726.702-.981.008-.007.213.22.327.34-.287.272-.573.545-1.029.641" fill="#FEFDF3"></path>
        <path d="M196.906 254.744c-.523-.175-.983-.615-1.443-1.055.395-.058.79-.116 1.343.036.16.391.162.573.1 1.02" fill="#EAD086"></path>
        <path d="M125.714 266.03c.284.34.286.706.29 1.341-.193.328-.39.387-.892.49-.097-.572.111-1.19.602-1.832" fill="#E2BD6F"></path>
        <path d="M189.319 298.727c.302-.265.94-.438 1.637-.364-.394.317-.848.387-1.637.364" fill="#EAD086"></path>
        <path d="M234.983 339.688c-.421.308-.866.303-1.646-.037-.341-.77-.348-1.204-.288-1.706l.196-.206c.572.545 1.144 1.091 1.738 1.95" fill="#E3CC91"></path>
        <path d="M403.962 240.506c-.4.317-.852.364-1.64.34.307-.25.948-.43 1.64-.34" fill="#FEFDF3"></path>
        <path d="M519.18 287.567c-.404-.383-.796-1.104-.956-2.133.232-.308.702-.211.702-.211.088.669.177 1.338.254 2.344" fill="#E8CA7B"></path>
        <path d="M438.338 298.223c-.485.05-.65-.016-1.076-.15.551-.398 1.36-.726 2.524-1.027.354.027.274.497.246.735-.477.267-.926.297-1.694.442" fill="#EED786"></path>
        <path d="M385.097 76.24c.301-.211.775-.228 1.603-.226-.24.154-.835.288-1.603.227" fill="#F4DD89"></path>
        <path d="M517.133 283.659c-.326-.125-.707-.538-1.127-1.247.33.123.7.54 1.127 1.247" fill="#E8CA7B"></path>
        <path d="M135.696 256.788q-.598.064-1.52-.67.598-.064 1.52.67" fill="#DEBB71"></path>
        <path d="M137.844 258.935c-.232.045-.539-.149-.871-.545.248-.033.523.136.871.545" fill="#DEBB71"></path>
        <path d="M134.13 255.644c-.35-.098-.717-.485-1.137-1.148.338.103.728.481 1.137 1.148" fill="#DEBB71"></path>
        <path d="M196.895 263.644c-.193-.225-.318-.769-.25-1.46.235.282.277.712.25 1.46" fill="#EAD086"></path>
        <path d="M495.986 281.012c.271.248.543.497.86 1.03-.135.228-.317.173-.714-.201-.19-.49-.168-.66-.146-.83" fill="#E8CA7B"></path>
        <path d="M495.749 280.982c.215.2.192.37.106.789-.346.086-.558-.143-.757-.67-.058-.233.413-.149.65-.119" fill="#FEFDF3"></path>
        <path d="M518.865 284.959c.061.264-.41.167-.648.138-.24-.207-.24-.386-.224-.832.28-.035.546.198.872.694" fill="#FEFDF3"></path>
        <path d="M520.045 288.673c-.217.073-.5-.113-.86-.55.213-.07.503.11.86.55" fill="#E8CA7B"></path>
        <path d="M342.271 96.963c-.166-.244.006-.523.507-.849.058.175-.107.462-.507.849" fill="#F5E18E"></path>
        <path d="M523.241 272.892c-.059-.174.103-.462.498-.845.166.245-.005.52-.498.845" fill="#FEFDF3"></path>
        <path d="M524.204 271.846c-.084-.186.084-.503.47-.984.074.174-.072.515-.47.984" fill="#FEFDF3"></path>
        <path d="M196.904 292.742c-.139-.018-.238-.277-.196-.628.14-.092.236.387.196.628" fill="#EAD086"></path>
        <path d="M296.223 161.907c-.13-.206.031-.456.444-.79.187.217.051.493-.444.79" fill="#EDD380"></path>
        <path d="M504.14 296.139c.188-.037.45.164.77.617-.272.134-.524-.075-.77-.617" fill="#FEFDF3"></path>
        <path d="M108.356 298.247c.01-.157.388.111.456.203.067.092-.237.168-.237.168s-.228-.214-.22-.37" fill="#E2BD6F"></path>
        <path d="M232.167 336.842c.36.067.61.255.946.701.132.196.002.334-.28.291-.548-.24-.739-.496-.852-.81z" fill="#E3CC91"></path>
        <path d="M571.997 278.114c-.393-.07-.787-.14-1.648-.497-2.071-1.759-3.675-3.231-5.278-4.704 0 0-.07.081-.157-.259-1.658-2.006-3.321-3.6-4.722-5.4-.265-.34.511-1.493.807-2.27 10.355.005 20.71.012 31.885.03 1.537.123 2.252.236 2.968.35.023 3.576.045 7.152-.22 11.442-8.07.912-15.852 1.11-23.635 1.308" fill="#DFC375"></path>
        <path d="M560.993 264.62c-.29 1.141-1.066 2.294-.8 2.635 1.4 1.799 3.063 3.393 4.764 5.366-2.782-.678-5.693-1.664-9.036-2.69-.767-2.836-1.104-5.63-1.227-8.696 1.427.171 2.7.499 3.835 1.092.907.476 1.645 1.275 2.464 2.293" fill="#FEFDF3"></path>
        <path d="M572.098 278.499c7.682-.583 15.465-.781 23.57-1.239.58.69.84 1.639 1.1 2.588-8.19-.322-16.38-.643-24.67-1.35" fill="#FEFDF3"></path>
        <path d="M558.966 285.554c-1.03.419-2.101.488-3.574.595-.575-4.17-.75-8.376-.697-12.882 1.561 3.78 2.896 7.858 4.27 12.287" fill="#FEFDF3"></path>
        <path d="M571.912 285.559c-3.268.412-6.626.446-10.435.414 2.99-2.628 6.59-2.88 10.435-.414" fill="#FEFDF3"></path>
        <path d="M565.047 273.31c1.627 1.076 3.23 2.548 5.002 4.307-2.76.37-5.25-.09-5.002-4.307" fill="#FEFDF3"></path>
        <path d="M595.866 265c-.73.25-1.445.137-2.517-.047.417-2.408 1.375-2.54 2.517.048" fill="#FEFDF3"></path>
        <path d="M594.953 285.652c-.705.345-1.459.36-2.584.315.597-.255 1.567-.45 2.584-.315" fill="#FEFDF3"></path>
        <path d="M561.954 279.606c-.241-.397-.24-.79-.21-1.182.001-.011.307.001.47.002-.004.394-.008.788-.26 1.18" fill="#FEFDF3"></path>
        <path d="M138.548 339.142c6.787 3.08 7.413 6.241 2.403 11.373-.25.261-.618.282-1.186.32-1.631.08-2.695.12-3.759.161l-5.037-.433v-11.38c2.675 0 4.905 0 7.58-.041" fill="#FEFDF3"></path>
        <path d="M136.22 351.257c.85-.301 1.914-.342 3.376-.35-.79.226-1.976.418-3.377.35" fill="#DBB56C"></path>
        <path d="M564.458 253.08c1.86-4.587-3.244-2.164-4.233-4.353-.077-3.058.211-5.836 5.097-5.865 9.764-.056 19.525-.545 29.703-.855.511 2.71.607 5.419.319 8.638A29 29 0 0 0 594 253.04c-9.692.03-19.384.058-29.543.04" fill="#E2C46C"></path>
        <path d="M594.32 253.023c0-.611.32-1.24.902-1.943-.02.591-.301 1.258-.902 1.943" fill="#E2C671"></path>
        <path d="m235 345.999-.003 1.664c-.753.335-1.503.337-2.627.004-.372-.78-.371-1.224.005-1.668z" fill="#E6C476"></path>
        <path d="M231.003 348.002c-.451.64-.902 1.278-1.67 1.964-.319.048-.457-.1-.401-.435a7.2 7.2 0 0 1 1.877-1.708z" fill="#E3CC91"></path>
        <path d="M232 345.999c-.001.444-.002.889-.006 1.667-.003.334-.497.334-.744.335s-.376-.118-.382-.552c.095-1.45.197-2.467.298-3.484 0 0 .416.03.624.365.209.78.21 1.225.21 1.669" fill="#E3CC91"></path>
        <path d="M217.95 350.048c-3.715-2.812-2.036-6.642-1.183-9.815.315-1.171 3.686-1.82 5.75-2.134 1.906-.29 3.93.187 6.184.899.273.76.263.948-.203 1.083-11.98-.157-10.58-1.973-10.409 9.829z" fill="#E3CC91"></path>
        <path d="M228.954 340.133c.01-.187.02-.375.039-.843.647-.732 1.285-1.183 1.961-1.954.038-.319.533-.322.78-.317.36.32.55.575 1.034.883.221.545.228.98.236 1.74-.588.69-1.178 1.055-2.36 1.428-.958-.307-1.324-.622-1.69-.937" fill="#EAD086"></path>
        <path d="M228.498 340.081c.822.367 1.188.682 1.79 1.047.4.746.567 1.44.805 2.486-.028 1.368-.13 2.385-.29 3.775-.644.852-1.23 1.33-1.94 2.068-3.377.34-6.63.42-10.328.476-.616-11.825-2.017-10.009 9.963-9.852" fill="#FEFDF3"></path>
        <path d="M492.98 275.634c-2.044-2.522-4.073-5.451-7.021-9.705 6.003 0 10.538-.005 15.072 0 9.021.013 10.189-1.312 8.876-10.507 4.239 1.688 1.887 5.468 1.677 8.288-.09 1.218-3.276 2.984-5.169 3.141-5.224.433-10.507.15-15.818.15.91 3.122 1.652 5.675 2.382 8.633" fill="#E8CA7B"></path>
        <path d="M508.896 253.688c-8.922.13-17.913-.146-27.364-.326 2.88-.39 6.217-.876 10.01-1.363 4.592 0 8.734-.109 12.864.061 1.488.062 2.948.794 4.49 1.628" fill="#E8CA7B"></path>
        <path d="M500.987 288.646c-.998-1.062-1.992-2.496-3.046-4.264.977 1.075 2.013 2.484 3.046 4.264" fill="#E8CA7B"></path>
        <path d="M518.112 276.655c-.607.294-1.028.344-1.766.406 1.096-1.01 2.508-2.03 4.29-3.053-.532.8-1.435 1.602-2.524 2.647" fill="#E8CA7B"></path>
        <path d="M525.766 266.176c.093.396-.065.958-.465 1.691-.091-.394.06-.96.465-1.69" fill="#E8CA7B"></path>
        <path d="M502.945 291.744q-.518-.228-1.058-1.378c.344.153.7.61 1.058 1.378" fill="#E8CA7B"></path>
        <path d="M501.85 289.854q-.284.067-.797-.596c.19-.046.453.155.797.596" fill="#E8CA7B"></path>
        <path d="M522.176 293.143c.206-.068.494.106.853.535-.21.073-.49-.11-.853-.535" fill="#E8CA7B"></path>
        <path d="M537.921 252.885c-.342-.18-.676-.7-1.067-1.53.32.189.697.69 1.067 1.53" fill="#DFC375"></path>
        <path d="M436.04 285.812c-.072-.213.147-.514.597-.98.053.187-.126.54-.596.98" fill="#EED786"></path>
        <path d="M464.884 252.011c-.597-.22-1.181-.798-1.8-1.692.581.234 1.197.785 1.8 1.692" fill="#E8CA7B"></path>
        <path d="M461.954 247.738q-.51-.234-1.044-1.387.51.234 1.044 1.387" fill="#E8CA7B"></path>
        <path d="M462.856 249.012c-.203.028-.468-.22-.82-.73.196-.023.477.215.82.73" fill="#E8CA7B"></path>
        <path d="M360.004 45.392c6.355-.396 12.707-.395 19.527-.395.135 5.753-.348 11.503-.477 17.261-.083 3.713.433 7.436.471 11.156.006.52-1.184 1.052-2.172 1.586-1.35.005-2.356-.088-3.343.015-6.503.68-12.634.054-17.634-5.59 1.952-7.27-1.421-16.073 3.628-24.033" fill="#F0D781"></path>
        <path d="M35.002 290.999q.185.214.367.43c-.087-.049-.174-.098-.317-.286-.055-.14-.052-.143-.05-.144" fill="#D3A55F"></path>
        <path d="M37.003 272.003c.04 3.09-1.2 4.526-6.054 3.124 2.463-1.447 3.883-2.282 5.675-3.125.37-.008.376-.002.379 0" fill="#D6AB65"></path>
        <path d="M31.003 265.003q-.868 1.905-1.742 3.805l-2.036-1.777c.997-.676 1.994-1.352 3.38-2.033.389-.004.395.002.398.005" fill="#D6AB65"></path>
        <path d="M232.375 345.999c-.376-.444-.376-.888-.376-1.665.75-.333 1.5-.333 2.626-.333.375.445.375.889.375 1.665-.75.333-1.5.333-2.625.333" fill="#EAD086"></path>
    </g>
</svg>
