<svg preserveAspectRatio="xMidYMid meet" data-bbox="1 1 372 312" viewBox="0 0 372 312" xmlns="http://www.w3.org/2000/svg" data-type="ugc" role="presentation" aria-hidden="true" aria-label="">
    <g>
        <path d="M338 313c-99.688 0-199.375 0-299.57-.463-.507-4.69-.507-8.918-.507-13.211 1.209.056 1.706.044 2.194.107 12.182 1.565 19.451-4.622 20.313-17.298.821-12.084-5.914-19.794-17.612-19.936-2.634-.032-5.293.464-7.908.904-3.307.557-5.01 2.053-4.942 6.006.253 14.626.058 29.26.032 43.891H1c0-4.01 0-8.028.236-12.802 2.508-.922 4.78-1.089 7.572-1.294v-21.03h15.557v-6.896H9.066v-13.881H25.65v-6.384c-2.395 0-4.385.057-6.37-.01-6.095-.209-12.187-.465-18.28-.703V1c55.687 0 111.375 0 167.662.31 1.185 2.775 1.77 5.24 2.35 8.048.013.804.03 1.263.02 1.688-.029-.034.051.005-.2.072-.441.347-.63.626-.92 1.141-.396.395-.69.554-1.352.707-1.097.013-1.828.033-2.647-.12-.356-.05-.624.073-.913.49-.339.758-.657 1.221-1.315 1.682-.78 1-1.222 2.002-1.823 3.307-1.727 2.428-3.295 4.554-5.194 6.652a48 48 0 0 0-3.31.5c.558 1.514 1.115 3.029 1.62 4.941-.362 2.01-.462 3.701-1.025 5.22a70 70 0 0 1-4.241 9.256c-5.237-.552-1.496 2.852-2.162 4.447.824-.456 1.648-.911 2.75-1.113-.278 5.09-.833 9.925-1.725 14.803-1.894-.244-3.45-.53-5.96-.991 1.11 3.255 2.255 6.612 3.4 10.307.327 1.108.653 1.88.993 3.087a34 34 0 0 1-.888 3.894c-.146.297-.149.478-.08.925-.079.42-.16.577-.527.78-.307.707-.327 1.366-.325 2.427-.196 1.44-.415 2.478-.78 3.528-.144.01-.427.08-.735-.097-4.934-2.483-6.958-6.663-7.533-11.395-.343-2.821.485-5.784.759-8.992.082-.703.191-1.099.628-1.502.89-.262 1.452-.516 2.014-.77-.571-.426-1.143-.853-1.72-1.617.112-.77.231-1.203.583-1.864.306-.863.38-1.498.405-2.303-.05-.17.171-.448.54-.517 3.796-7.82 6.643-15.706 5.844-24.903-3.602.642-7.258 1.863-10.908 1.847-16.26-.071-32.519-.533-48.78-.717-1.165-.013-2.343 1.07-3.907 1.723-1.458.102-2.524.124-3.848-.142-5.311-.54-10.364-.794-16.03-1.077l1.872 5.617c-4.893-2.176-7.176.392-9.956 3.066-3.044 2.929-4.892 8.688-11.47 5.625-.295 2.839-1.151 5.235-.635 7.284 1.25 4.968-.218 7.502-5.406 7.593.254 1.305.85 2.61.689 3.816-1.126 8.441-2.473 16.853-3.573 25.298-.17 1.3.565 2.719.907 4.42-.082.771-.19 1.205-.54 1.874-.345 1.12-.448 2.004-.518 3.203-.068.72-.169 1.127-.634 1.585-2.558.247-4.752.44-7.71.703.414 2.349.015 5.57 1.39 6.787 3.185 2.822 1.684 5.2.61 7.937-.823 2.096-1.938 4.182-2.224 6.364-.808 6.149-.333 12.617-2.061 18.458-2.612 8.832-5.002 17.524-4.407 26.775-.024-.036.06-.03-.22.142-.232 1.385-.184 2.597.014 3.869.149.059.183.378.417.558 1.741.182 3.248.184 5.162.039 2.124-.053 3.84.041 5.637.336.705.07 1.33-.063 2.4-.332 15.455-.046 30.463.046 45.643.407 1.74-.123 3.306-.514 5.201-.998.783-.094 1.236-.095 1.917.162 5.076.088 9.925-.082 15.188-.251 4.834-1.653 9.255-3.307 14.072-5.109.564 2.645 1.04 4.879 1.517 7.537.665 2.472 1.33 4.52 1.996 6.944.001 1.128.001 1.88-.366 2.705-2.313 2.298-2.716 4.33.368 6.258 0 .779 0 1.224-.38 1.678-1.038.802-2.178 1.554-2.251 2.398-.13 1.503.386 3.062.25 4.678-3.56 6.493-1.227 9.893 6.353 10.244-.34 1.103-.657 1.887-1.39 2.67-1.908.016-3.418-.082-4.882.135-.319.047-.472 1.218-.628 2.234 1.796 1.017 3.518 1.672 5.434 2.4l-2.644 3.973c2.35 0 4.007.32 5.49-.053 8.319-2.085 16.692-3.182 25.306-2.752 6.285.313 12.61-.173 18.894.148 3.84.196 7.637 1.244 11.852 1.91h4.006c1.725-.394 3.157-.601 4.263-1.315.284-.183-.32-2.784-.754-2.857-1.586-.264-3.272.07-5.294.177-1.125 0-1.874.001-2.815-.268a274 274 0 0 0-2.357-2.977c.85-.253 1.7-.506 2.987-.759 2.477 0 4.517-.001 6.807.279 7.75 2.144 7.75 2.144 7.753-5.776 0-.164 0-.329.318-.636 2.393-1.784 4.468-3.425 6.567-5.024.023.043-.073.047.184-.005a3.7 3.7 0 0 0 .935-.828c-.002-.011.018 0 .205-.06.431-.182.614-.365.945-.869 1.136-.858 2.062-1.456 3.18-2.158.428-.283.598-.513.702-.837 0-.044.087-.027.512-.04 2.599-.467 6.148-.294 6.693-1.49 1.804-3.96 2.524-8.414 3.682-12.621.021.056-.066-.028.346-.008 1.171-.629 2.487-1.196 2.594-1.938.53-3.67.738-7.385 1.074-11.037.014.048-.059-.02.305-.048 2.141-2.287 3.92-4.546 5.872-7.025-1.605-.725-2.916-1.318-4.26-2.244.081-.764.195-1.193.656-1.705.678-2.382 1.008-4.682 1.31-7.314.1-.755.227-1.178.716-1.662 3.444-2.038 3.163-4.436 1.237-7.437.202-1.428.403-2.46.956-3.485 5.608 2.911 8.156 12.71 5.614 19.083-1.312 3.29-2.14 6.796-2.884 10.27-.157.73 1.007 1.742 1.603 2.96-.015.785-.071 1.233-.363 1.902 1.776 1.04 3.756 2.43 5.809 2.547 3.252.185 6.55-.73 9.832-.75 14.951-.095 29.905.026 44.855-.12 1.933-.02 3.855-1.143 6.11-1.856.78-.1 1.232-.098 1.927.187 4.837.636 9.432.988 13.713 1.316l.35-4.875 5.776.829 1.616-5.176 4.297-.758c1.353-3.231 2.25-5.893 3.546-8.345 1.795-3.398 3.875-6.646 5.861-9.942 3.367-5.588-.13-14.033 8.11-17.528-4.11-3.717-1.066-7.05-.734-10.463.397-4.08.13-8.224.121-12.674.072-.766.174-1.198.632-1.716 2.729-9.285 5.318-18.435 7.394-27.7 1.246-5.562 1.69-11.303 2.376-17.146-.27-.466-.27-.748.35-1.036 3.936.033 3.083-2.553 3.394-4.596.74-4.848 1.662-9.668 2.517-14.498.324-1.835 1.19-3.8.775-5.445-.203-.807-2.766-1.431-4.265-1.438-20.83-.09-41.673-.421-62.488.155-6.52.18-13.293 2.029-18.749 6.448-2.388-.43-4.608-.548-6.84-1.064-1.472-4.28-4.304-2.425-6.79-2.02.27 1.139.538 2.278.766 3.792-1.015 3.79-1.988 7.206-3 10.993-1.101 1.903-1.95 3.657-3.27 4.916-2.39 2.28-3.829 4.484-1.732 7.744.422.656.33 1.816.138 2.668-1.663 7.396-3.483 14.757-5.1 22.163-2.39 10.93-4.544 21.912-7.002 32.826-1.734 7.696-3.807 15.315-5.822 23.34-6.479-2.663 1.34-10.44-4.871-12.938-.422-.17-.055-2.302-.055-4.202l3.078 2.632 1.18-.468c-.767-4.82-1.535-9.642-2.327-14.58-.024-.117.023-.351.446-.103 1.919-.08 3.415-.41 4.912-.737l-2.096-5.707c.064-.096.908-.824 1.068-1.68 1.501-8.027 2.953-16.066 4.234-24.13.207-1.3-.497-2.744-.828-4.456.056-.771.16-1.207.638-1.7 1.4-1.666 2.956-3.16 3.342-4.91.916-4.15 1.388-8.41 1.82-12.648.284-2.783.185-5.606.213-8.744.058-.768.16-1.203.615-1.719 1.974-4.59 6.009-8.316 4.581-13.844-.295-1.142.393-2.556.688-3.83 1.116-4.82 2.34-9.616 3.307-14.464.165-.825-.728-1.86-1.174-3.136.07-.774.182-1.21.633-1.725 2.516-2.099 3.354-4.317 1.321-7.297.072-.784.182-1.226.517-1.853.679-1.052 1.132-1.918 1.586-2.784h114c0 86.02 0 172.042-.352 258.497-1.904-.382-3.456-1.198-5.31-2.173-.436 5.153-3.82 3.932-7.056 2.88l1.89 9.089c-8.36-3.886-8.36-3.886-2.797-8.881l-18-2.366c-.478.975-1.414 2.89-2.7 5-2.642.151-4.934.105-7.421-.3-.44-3.546-.683-6.734-.943-10.14-2.651.652-4.714 1.16-7.197 1.598-2.33.774-4.208 1.707-6.17 2.406-.51.181-1.282-.368-1.979-.906-.122-.527-.199-.73-.116-.866.16.068-.166-.047.2-.12 2.8-2.826 2.873-4.858-1.524-5.646-.206-.06-.523-.349-.65-.543-.378-.423-.668-.502-.962-.46.037-.027.043.066-.183-.248-6.423-1.318-7.48-.298-5.812 5.4.083.428.092.603.073 1.111-.02.779-.014 1.224-.315 1.833-2.19 4.081-1.602 4.978 2.474 5.033.955.013 1.895 1.062 2.458 1.705-1.421.114-2.46.158-3.781.314-.505.67-.726 1.227-1.363 1.785-1.8.012-3.184.025-4.78-.071-.445-.334-.605-.604-.69-1.274-1.34-1.102-2.679-1.85-4.452-2.606-2.461-.015-4.488-.02-6.91-.034-1.207-.125-2.04-.158-2.826-.37-5.773-1.56-11.505-2.767-17.117 1.492-.742.105-1.178.088-1.781-.212-1.41.11-2.65.5-4.207 1.003-.756.178-1.196.244-1.654-.075-.224-1.418-.432-2.452-.64-3.486l-1.696-.378-3.66 10.01c-2.375-1.253-4.81-2.54-7.155-3.876.09-.051-.064.089-.037-.28-2.377-4.328-9.468-6.14-14.312-3.823-2.54 1.216-4.454 1.876-4.182-2.023a46 46 0 0 0 3.186-.71q-.353-.698-.703-1.397c-.95.702-1.9 1.405-3.277 2.109-2.142 0-3.856-.002-5.624-.14-.14-.187-.226-.236-.31-.285.12.142.24.284.313.74-1.2.133-2.363.005-3.5-.242-2.742-.595-3.072.755-2.821 2.932-1.43-.508-2.48-1.014-3.53-1.518-1.024-.493-2.05-.984-3.516-1.48-7.321-1.154-14.74-.082-20.683-5.106-1.07-.904-2.584-1.281-3.894-2.235-.002-.778-.002-1.223.317-1.692 1.106-.342 1.893-.659 3.012-.976.778 0 1.222 0 1.666.384.364 1.371.727 2.357 1.09 3.344l1.615-.666c-.57-1.021-1.14-2.042-1.71-3.445-.999-1.793-1.997-3.204-3.165-4.933-1.723-.773-3.278-1.228-5.043-1.944-1.403-.087-2.595.087-4.121.261-.777 0-1.221 0-1.833-.245-.722-.415-1.277-.584-2.253-.754-2.808.333-5.197.668-7.888.875-1.1.624-1.897 1.374-3.066 2.197-.735 1.02-1.434 1.978-1.4 2.908.124 3.345.495 6.681.44 10.02h-2.07c-5.135 0-9.868.002-14.945.04-2.111 2.015-3.879 3.994-5.943 6.217-.755 1.636-1.59 3.024-1.608 4.422-.12 9.466-.122 18.935.017 28.4.014.973 1.2 1.929 2.093 2.989.416.165.581.233.835.612 2.188.875 4.7 3.97 6.04-.91.135-.45.19-.629.485-1.14.654-9.696 1.07-19.06 1.797-28.517.744-.102 1.176-.11 1.889.169 2.486.374 4.692.463 6.841.553-.056.002.061-.021.042.318.612.833 1.243 1.328 1.867 1.832-.007.01.014.002.036.224.141.515.352.713.764 1.135.105.766.099 1.214-.175 1.976-.071 7.103.127 13.892.39 21.03.063 1.057.061 1.765.066 2.846.978 2.199 1.95 4.025 3.172 6.32l4.105-4.618c1.876 4.037 4.273 5.163 8.039 2.531 1.857-1.298 4.376-1.65 6.598-2.044.507 1.463 1.013 2.54 1.519 3.618l1.81-1.586c-1.11-.806-2.22-1.612-3.42-2.652-.358-.658-.626-1.081-.783-1.665.111-.16.492-.241.857-.222 1.133-.611 1.901-1.241 2.67-1.871-.91-.669-1.818-1.337-2.838-2.333-.048-.779.014-1.23.387-1.71 1.011-1.259 1.712-2.488 2.717-4.253l3.996 6.677 1.765-4.508c2.63 3.039 4.724 5.458 6.982 7.92.163.043.329.338.372.677 1.928 1.587 3.813 2.836 5.7 4.084.76-1.411 1.521-2.823 2.55-4.481 2.165-5.195 4.063-10.143 6.149-15.23.411-.392.494-.684.453-.972.017.044-.077.032.278-.085 1.81-2.832 3.267-5.548 4.723-8.265 1.116 3.48 1.014 6.836 1.136 10.184.292 7.963 3.362 12.6 9.124 14.16-.068.046.012-.095.016.098.276.167.55.14 1.148.125 1.11.364 1.896.715 2.689 1.4.369.937.73 1.542 1.092 2.147.655-.604 1.31-1.208 2.332-1.755 1.11.136 1.852.214 2.748.587.932.991 1.71 1.687 2.486 2.384.779-1.278 1.557-2.555 2.709-3.897 1.123.019 1.874.102 2.627.588.3 1.732.598 3.061.895 4.391l1.654-.147c.118-1.978.236-3.955.404-5.881.049.05-.075-.018.343.014 2.298.92 4.179 1.807 6.66 2.978 1.847-1.026 4.474-2.351 6.24 1.8.227.534 1.753 1.063 2.255.797.68-.361 1.441-1.598 1.295-2.268-.265-1.207-1.177-2.273-1.815-3.618.004-.221.156-.635.39-.806.39-.717.549-1.263 1.044-1.845 1.105-1.012 1.872-1.988 2.984-2.997 1.448-.344 2.551-.656 3.654-.593-.002 1.124-.003 1.874-.36 2.665-4.485 2.542-2.582 4.314.402 6.282.68.773 1.32 1.225 2.286 1.82 2.512.544 4.766.723 6.86 1.397 3.422 1.102 5.172.355 5.218-3.519 2.135.322 3.866.65 5.596 1.228-.001.25-.002.748-.24.97 1.254.742 2.746 1.262 4.668 1.782 2.143 0 3.857 0 5.954-.003 1.78-.853 3.175-1.705 4.238-2.354 1.906.548 3.961 1.645 6.001 1.618 4.007-.055 8.005-.735 12.007-1.158 3.457-.366 6.914-.735 10.378-.709.668 3.797 1.33 7.202 1.993 10.606m-225.258-21.503a68 68 0 0 0-1.381-.527s-.28-.328-.34-.868c-.377-.346-.753-.692-1.04-1.103 0 0-.066.09.007-.86-.006-10.31.031-20.62-.06-30.93-.014-1.738-.578-3.471-1.36-5.892-2.514-.092-5.027-.184-8.207-.187-.11 13.291-.433 26.587-.153 39.87.059 2.782 1.594 6.285 5.8 5.982 0 0 .069-.094.098.608 1.269 1.233 2.393 2.719 3.88 3.571.579.333 1.976-.762 3.686-1.307.45.09.901.179 1.893.787l9.183 2.125c-.305-1.52-.521-2.599-.404-3.886 0 0 .392-.022 1.203.083 2.855.272 4.631-.705 4.461-3.955 0 0 .071.029.53-.176.146-.292.291-.584.466-.837 0 0-.044-.02.676-.07.827-1.632 2.314-3.239 2.376-4.899.426-11.388.64-22.786.687-34.183.007-1.736-.92-4.738-1.903-4.956-2.11-.467-4.537.5-7.335 1.29-.198.602-.397 1.206-.903 1.997-.056.106-.185.254-.154.31.113.198.28.364.473 1.189-.023.431-.045.862-.355 1.51.106.282.212.564.39 1.778.067 9.695.135 19.39.082 29.569 0 0-.187.463-.585.713a1.45 1.45 0 0 0-.45.76s.065.047-.626.085c-.782.979-1.564 1.958-2.37 2.912 0 0 .01.03-.719-.028-1.101.33-2.203.66-3.97 1.076-.438-.087-.875-.174-1.673-.696-.535-.125-1.07-.25-1.634-.345 0 0 0-.042-.269-.51M65.166 262.91c-4.926-.082-2.676 3.2-2.962 5.744 1.818.14 3.275.252 4.843 1.293.013 6.136-.104 12.277.103 18.407.082 2.426.519 4.98 1.446 7.204 1.416 3.393 7.825 5.743 11.196 3.799 1.48-.854 1.827-3.671 2.689-5.597l-1.767.302c-1.908-1.402-5.326-2.67-5.464-4.228-.606-6.82-.26-13.726-.26-20.66l6.561-.548v-5.557c-2.132 0-3.93 0-6.342-.577l-.794-8.93c-5.27.102-8.576 1.98-7.581 7.901.078.466-.545 1.05-1.668 1.447m286.324-87.435c.755-.202 1.51-.403 2.994-.283 2.085-.246 4.346-.105 6.162-.936.678-.31.616-2.95.32-4.413-.187-.93-1.423-1.65-2.607-2.92-.039-.61-.078-1.221.72-1.863l3.55-1.895c-.761-.97-1.437-2.028-2.303-2.894-1.662-1.663-3.433-3.218-5.661-5.283-.503.946-1.111 2.091-2.459 3.138-.734-.13-1.467-.259-2.406-1.097-5.149-2.003-7.151-1.055-7.6 3.86 0 0-.251.134-.706.45-.112.344-.224.688-.442 1.75-.236 1.945-.471 3.889-1.509 5.885-3.737 2.089-3.719 2.14 2.758 7.492.75-.59 1.5-1.182 2.55-1.713 0 0 .163.26.299.994 1.958.03 3.916.06 6.34-.272m-16.267-13.012c6.365 2.066 2.06-5.29 5.291-5.992l-.965-3.397-2.048-.174c-.952 3.01-1.903 6.02-2.278 9.563M365.8 52.125l-.449-8.668c-1.415 1.563-2.64 2.405-3.121 3.557-.927 2.217 1.313 5.896 3.57 5.11M193.083 304.47c3.08.359 4.854-.587 4.343-4.07-4.628-.195-5.962 1.022-4.343 4.07M18.828 130.23l-2.074 4.696 1.96.508c.083-1.487.165-2.974.114-5.204m131.986-98.312-.46-4.668c-2.324 3.701-2.324 3.701.46 4.668m76.496 127.409 2.711.927-.003-2.526c-.902.31-1.805.62-2.708 1.599m-2.68 17.582 2.07-1.796-2.384-.926c-.132.844-.264 1.689.315 2.722m-20.302 29.56-3.012 1.144.902 1.53c.845-.717 1.69-1.433 2.11-2.674m50.033-161.888-1.369 3.559 1.605.32c.07-1.113.14-2.227-.236-3.879m98.43 51.342-.345-3.423-1.606.439c.497 1.17.994 2.341 1.95 2.984M247.498 79.824l1.11-2.06-1.697-.45c-.03.785-.059 1.57.587 2.51m118.093 97.029.984-2.098-1.257-.225c-.125.742-.25 1.484.273 2.323M191.433 296.704l.816.855c.118-.113.345-.317.338-.325-.253-.3-.528-.583-1.154-.53m160.134-143.408-.816-.855c-.118.113-.345.317-.338.325.254.3.529.583 1.154.53M249.393 63.202l1.18.012c.001-.163.014-.468.003-.469-.392-.03-.785-.032-1.183.457" fill="#FEFFFF"></path>
        <path d="M255.237 13.013a58 58 0 0 1-.532 1.94c-2.637 12.11-5.077 23.586-7.517 35.062-.102.434-.204.869-.505 1.929-1.968 9.106-3.737 17.587-5.506 26.067-.104.436-.208.872-.51 1.925-.927 3.688-1.75 6.74-2.366 9.832-1.746 8.774-3.407 17.564-5.1 26.348 0 0-.048.234-.29.554-2.005 8.331-3.77 16.342-5.535 24.354-.2 1.031-.4 2.063-.86 3.75-.62 2.85-.981 5.044-1.343 7.239a75 75 0 0 1-.586 1.878c-.612 2.779-1.018 4.949-1.424 7.119-.114.43-.228.86-.546 1.908-.716 3.417-1.227 6.215-1.739 9.013 0 0 .073.067-.195.3-1.454 4.38-2.64 8.527-3.826 12.674 0 0 .087.084-.228.203-3.712 4.729-7.109 9.339-10.506 13.949 0 0-.087-.017-.325.063-.543.271-.682.546-.656.904a282 282 0 0 1-3.204 2.048c-.705.398-.868.626-.916.937 0 0-.02-.012-.286.035a3.6 3.6 0 0 0-.924.844l-.28.013c-7.76 2.358-15.144 4.698-22.894 6.928-1.124-.037-1.88.037-3.094 0-14.488-.038-28.517.035-42.913-.003-1.124-.048-1.881.016-3.029-.03-1.459-.027-2.528.055-3.963.034-1.116-.043-1.868.018-2.885-.126-.86-1.187-1.997-2.203-1.942-3.15.165-2.865.792-5.705 1.343-8.672.104-.116-.006-.408.205-.586.25-.533.289-.888.463-1.62.503-2.47.87-4.56 1.47-6.949.58-1.915.934-3.528 1.274-5.145 3.549-16.832 7.095-33.664 10.59-50.51-.05-.015-.003.08.219-.114.272-.77.322-1.346.492-2.28.176-1.105.233-1.853.553-2.873 1.294-5.454 2.325-10.636 3.488-16.128.151-.756.17-1.202.44-1.925 1.292-5.44 2.33-10.602 3.509-16.112.208-1.087.277-1.827.56-2.762.27-.757.326-1.32.513-2.16.138-.683.147-1.087.348-1.644.393-.453.42-.767.275-1.097.219-1.039.438-2.078.85-3.71.26-1.155.328-1.718.396-2.28.08-.157.161-.314.374-.833.289-.593.251-.786.02-.942.276-1.114.552-2.229 1.042-4.043.38-1.847.546-2.993.83-4.373.136-.58.154-.924.384-1.462.25-.564.288-.934.434-1.652.211-1.305.314-2.262.642-3.537.706-2.422 1.144-4.537 1.672-6.63 3.385-13.42 4.094-27.728 13.282-39.496 1.661-1.801 3.053-3.424 4.446-5.047.295-.159.59-.318 1.242-.773.542-.58.729-.864.915-1.148 0 0-.08-.04.28-.058 2.106-1.35 3.85-2.682 5.609-4.004.014.01.016-.025.377-.055C181.473 4.936 185.236 2.968 189 1c22.354 0 44.708 0 67.591.369.552 1.113.575 1.856.598 2.6-.11.442-.22.884-.53 1.942a230 230 0 0 0-1.422 7.102M194.5 70.406c-9.494.023-18.987.098-28.48.037-2.868-.018-4.452.641-5.063 3.94-3.056 16.516-6.455 32.968-9.634 49.461-1.05 5.454-1.802 10.966-2.713 16.596 9.032-.336 15.546-5.524 17.388-13.321.803-3.398 1.56-6.826 2.011-10.283.437-3.342 1.7-4.791 5.406-4.705 10.491.245 20.994.129 31.49 0 8.901-.11 15.67-5.436 17.744-13.987a138 138 0 0 0 2.608-13.719c1.076-7.847-2.929-13.08-10.78-13.671-6.3-.475-12.65-.257-19.977-.348" fill="#F27125"></path>
        <path d="M30.444 313c-.418-14.631-.223-29.265-.476-43.891-.069-3.953 1.635-5.45 4.942-6.006 2.615-.44 5.274-.936 7.908-.904 11.698.142 18.433 7.852 17.612 19.936-.862 12.676-8.131 18.863-20.313 17.298-.488-.063-.985-.051-2.194-.107 0 4.293 0 8.521.038 13.211-2.332.463-4.702.463-7.517.463m7.45-21.979c1.976.897 4.02 2.681 5.913 2.532 6.844-.539 10.66-8.33 8.604-16.744-1.824-7.464-6.927-10.019-14.513-6.984 0 6.676 0 13.48-.003 21.196" fill="#1680BF"></path>
        <path d="M1 250.469c6.093-.231 12.185.025 18.28.233 1.985.068 3.975.011 6.37.011v6.384H9.066v13.881h15.299v6.896H8.808v21.03c-2.792.205-5.064.372-7.572.818C1 283.646 1 267.292 1 250.469" fill="#1281C2"></path>
        <path d="M331.45 263.105c2.291.046 4.583.092 7.655.008 4.396-.051 8.614-1.259 9.827 4.06.077-.03-.085-.018-.09.358.387 2.07.78 3.762 1.165 5.866.736 2.486 1.482 4.561 2.268 6.718.04.08-.06.232-.101.623.314 1.032.67 1.673 1.071 2.393.045.08-.056.234-.091.621.316 1.02.667 1.654 1.071 2.366.054.078-.034.247-.07.627.32.985.678 1.589.98 2.187-.055-.006-.01-.107-.045.253.3 1.372.636 2.384.97 3.396l2.054-.404c-.254-1.467-.509-2.934-.718-4.626.045-.226.41-.506.714-.708.45-1.135.594-2.07.755-2.957.017.048-.084.04.234-.13.454-1.092.59-2.014.742-2.886.016.051-.089.033.246-.119 1.11-3.09 1.886-6.028 2.658-8.907-.004.059-.102-.008.237-.123 2.536-3.96 3.916-8.845 10.018-7.721 0 0 0 .5-.349.804-4.67 3.084-5.2 7.223-4.433 11.913.044.1-.101.265-.426.412-4.29 4.5-5.462 9.816-5.574 15.582.046.1-.096.267-.435.429-.771 1.778-1.203 3.395-1.658 4.959-.023-.054.08.003-.27.114-1.455 3.546-2.56 6.982-3.62 10.511.044.094-.082.257-.407.4-.826 1.387-1.327 2.632-1.828 3.876-2.042 0-4.083 0-6.475-.357.525-2.695 1.565-4.986 2.23-7.38.73-2.626 2.19-5.69 1.462-7.965-2.99-9.33-6.682-18.434-10.136-27.614-.953-2.534-2.57-3.24-5.25-1.646-.547-.006-.766.005-1.346.01-1.718.66-3.075 1.324-4.475 2.448-.337 7.159-.63 13.858-.951 20.087-.027-6.78-.027-13.089-.027-19.602-2.46 0-3.763 0-5.067-.323-.02-.752-.04-1.181-.048-1.86.011-.25.035-.748.376-.763.795-.017 1.25-.021 1.916.21.741-.923 1.27-2.081 2.135-3.244 1.09-.573 1.846-1.142 2.73-1.751.128-.04.376-.145.376-.145m3.96 2.378s.113-.068 0 0" fill="#0E7EBF"></path>
        <path d="M330.054 270.036c1.356-.664 2.713-1.329 4.54-1.732.835.09 1.2-.079 1.565-.248 2.353-1.612 3.97-.906 4.922 1.628 3.454 9.18 7.147 18.285 10.136 27.614.728 2.274-.732 5.34-1.461 7.964-.666 2.395-1.706 4.686-2.668 7.38-.532.358-.977.358-1.755-.088-1.03-2.797-1.667-7.131-2.432-7.153-3.313-.098-3.989-2.173-4.57-4.401.78 0 1.224-.001 2.037.16 3.72.664 7.477 2.544 9.35-1.255l-10.51-4.825c-.051 1.01-.125 2.466-.488 3.914-.481-.022-.674-.035-.834-.476.033-2.023.033-3.619.033-5.129-7.117-1.05-7.115-1.136-7.242-8.212-.091-5.05-.407-10.094-.623-15.141" fill="#F6FCFB"></path>
        <path d="M362.122 292.978s.142-.167.38-.53c2.03-5.397 3.823-10.432 5.615-15.466 0 0 .145-.165.385-.524 1.66-3.392 3.079-6.425 4.498-9.458v46c-5.683 0-11.372 0-17.424-.336-.05-1.451.264-2.567.577-3.683 0 0 .126-.163.366-.514 1.389-3.69 2.537-7.027 3.685-10.365 0 0-.102-.057.185-.234.769-1.748 1.251-3.319 1.733-4.89" fill="#F6FDFD"></path>
        <path d="M353.189 283.365s.1-.153.045-.61a18 18 0 0 0-1.018-2.408s.1-.151.04-.625c-.525-2.486-.989-4.499-1.093-6.55 2.005-.04 3.652-.04 5.298-.04l.272-1.967-4.522-1.908c-.476 1.312-.952 2.624-1.63 3.919-.2-.017-.566-.19-.566-.19-.393-1.693-.786-3.386-.854-5.408 1.58-1.14 2.835-1.952 4.09-2.763l-1.456-1.597-2.94 3.984c-1.136-5.348-5.354-4.14-9.399-4.285.505-1.981 1.441-3.896 1.918-4.871l18 2.366c-5.562 4.995-5.562 4.995 2.799 8.88l-1.891-9.088c3.236 1.052 6.62 2.273 7.057-2.88 1.853.975 3.405 1.791 5.309 2.642.352.784.352 1.534-.089 2.647-6.27-1.015-8.91 1.85-9.631 7.271-.087.652-.19 1.302-.285 1.952 0 0 .098.067-.16.254-1.081 3.063-1.906 5.938-2.73 8.813 0 0 .104.018-.179.181-.453 1.056-.623 1.949-.793 2.842 0 0 .101.008-.194.178-.457 1.094-.62 2.017-.782 2.94 0 0-.364.281-.578.721-.843.647-1.473.853-2.103 1.06 0 0-.044.101-.04-.246-.296-.97-.595-1.592-.893-2.214 0 0 .088-.169.018-.618a19.5 19.5 0 0 0-1.02-2.382" fill="#F2FBFB"></path>
        <path d="M337.998 301c.914 2.228 1.59 4.303 4.903 4.4.765.023 1.403 4.357 2.1 7.154-2.043.446-4.084.446-6.563.446-1.1-3.404-1.763-6.809-2.213-10.715.486-.701.673-.962 1.024-1.285z" fill="#FEFEFE"></path>
        <path d="M188.537 1c-3.3 1.968-7.064 3.936-11.14 5.61.464-1.212 1.242-2.13 1.693-2.662L176 1z" fill="#FEF1E0"></path>
        <path d="M171.018 9.014c-.585-2.464-1.17-4.929-1.887-7.703.936-.311 2.002-.311 3.47.059 1.068 2.109 1.737 3.848 2.08 5.631-1.437.7-2.55 1.357-3.663 2.013" fill="#F5F9F9"></path>
        <path d="M373 266.667a133 133 0 0 1-4.542 9.69c-1.007-4.33-.477-8.47 4.193-11.303.349.39.349.835.349 1.613" fill="#167FBC"></path>
        <path d="M175.007 6.957c-.669-1.739-1.338-3.478-2.007-5.587.75-.37 1.5-.37 2.625-.37 1.311.893 2.247 1.786 3.465 2.948-.451.532-1.23 1.45-2.054 2.692-.048.324-.05.36-.39.334a41 41 0 0 0-1.64-.017" fill="#FEFFFF"></path>
        <path d="M362.982 271.721c-.243-.535-.14-1.185-.054-1.837.72-5.422 3.361-8.286 9.631-6.896.441.012.441.512.441.762-6.102-.874-7.482 4.011-10.018 7.971" fill="#167FBC"></path>
        <path d="M355.828 309.124c.012.973-.302 2.089-.722 3.54-.106.336-.606.336-.856.336.25-1.244.752-2.489 1.578-3.876" fill="#167FBC"></path>
        <path d="M257.414 3.784c-.248-.559-.271-1.302-.354-2.415.384-.369.829-.369 1.607-.369-.12.866-.574 1.732-1.253 2.784" fill="#F8FBF4"></path>
        <path d="M299.99 174.97a36 36 0 0 0-2.15.054c-22.497.04-44.2.02-65.905 0 .056-.448.112-.896.374-1.96 7.954-34.095 15.604-67.594 23.483-101.04 5.2-22.08 22.161-35.741 44.732-36.052 17.632-.242 35.269-.091 52.903-.084 1.415 0 2.83.245 4.428.394l-4.688 23.761c-.148.284-.147.566-.173 1.252-3.394 15.173-6.612 29.942-9.83 44.712-.102.432-.204.864-.532 1.904-1.414 6.117-2.47 11.659-3.82 17.128-2.1 8.508-3.352 17.43-6.846 25.344-6.018 13.633-17.899 20.82-31.976 24.586m-11.175-4.768c-1.16-.4-2.317-1.14-3.479-1.147a3432 3432 0 0 0-39.691-.01c-1.22.007-2.436.628-4.288.678-2.356-1.308-4.729-2.702-6.298 1.09 9.857 4.062 55.28 4.606 62.278.18-3.452 0-5.897 0-8.522-.791m-2.346-51.26-4.487 21.347c8.942.382 16.042-5.123 18.006-13.78 2.72-11.988 5.488-23.976 7.73-36.057.733-3.95 2.406-4.803 5.926-4.66 5.319.214 10.656.184 15.978.016 2.175-.068 6.134-.603 6.188-1.205.251-2.785-.098-5.864-1.148-8.469-1.5-3.72-4.865-5.254-8.88-5.254-17.314.001-34.629.066-51.942-.08-3.432-.028-3.904 1.704-3.69 4.341.509 6.274 4.986 10.432 11.672 10.69 3.62.139 7.249.024 11.603.024-2.334 11.234-4.521 21.757-6.956 33.087" fill="#50B74B"></path>
        <path d="M137.2 65.01c-.11.395-.22.79-.553 1.785a10897 10897 0 0 0-15.111 65.656c-1.983 8.754-3.641 17.54-9.367 24.943-7.26 9.385-16.992 14.598-28.172 17.599-.453 0-.906.001-2.057.04-2.134.287-3.57.536-5.005.784l-45.8-.28c-1.233.088-1.692.181-2.15.274-1.717-.095-3.434-.19-5.955-.277-2.203-.02-3.601-.05-5-.078 0 0-.033-.32-.098-.77.018-1.518.1-2.584.183-3.65 0 0-.085-.005.2-.248 5.026-22.428 9.766-44.612 14.505-66.797.101-.406.202-.813.486-1.79.303-1.44.423-2.31.544-3.18.108-.435.216-.869.555-1.913 2.114-9.385 3.885-18.186 5.913-26.928 1.885-8.13 5.979-15.037 11.88-21.002 7.194-7.272 16.19-10.769 25.811-13.15 1.065-.023 2.13-.045 4.054-.082 20.903-.014 40.947-.014 61.336-.014L138.98 58s-.22.278-.405.676c-.258 1.034-.33 1.669-.403 2.304-.12.432-.24.865-.578 1.816a13 13 0 0 0-.395 2.214m-44.828 46.284c6.666-2.459 11.07-6.86 12.638-14.574H63.843l2.452-10.895c13.294 0 25.956.094 38.616-.032 9.008-.09 16.59-6.877 16.907-14.81-.282-.152-.563-.437-.846-.438-17.494-.042-34.995-.347-52.48.032-9.422.205-15.552 6.182-17.576 15.482-1.943 8.932-3.908 17.86-5.804 26.802-1.948 9.187-3.823 18.389-5.827 28.054 10.208-.891 15.7-6.33 19.139-15.219-.037-.887-.074-1.775-.155-3.225.23-.498.461-.995 1.291-2 .079-1.04.157-2.078.133-3.275 0 0 .09-.165.692-.525.774-2.115 1.6-3.458 4.544-3.356 7.301.251 14.627-.096 21.937-.366 1.675-.062 3.326-.785 5.505-1.655" fill="#0F4DA1"></path>
        <path d="M185.004 250c0 .444 0 .889-.152 2.018-1.474 3.503-.885 4.727 2.522 5.1 3.601.395 7.157 1.658 6.949 6.22-2.955-.145-5.5-.145-8.507-.145l12.684 35.565-6.818-7.877-1.765 4.508-3.996-6.677c-1.005 1.765-1.706 2.994-2.825 3.795-.42-10.02-.42-19.61-.42-29.205h-7.417v35.96h6.758c.268.423.536.846.893 1.504-2.13 1.014-4.649 1.366-6.506 2.664-3.766 2.632-6.163 1.506-8.039-2.531l-4.105 4.617c-1.222-2.294-2.194-4.12-2.736-6.22 2.552-.273 4.673-.273 7.327-.273 0-7.943.28-15.567-.13-23.154-.18-3.32-1.775-6.564-2.818-10.08-.366-.415-.642-.595-.91-.782.007-.007-.006.009-.141-.24-.478-.374-.821-.5-1.35-.645-.187-.02-.486-.244-.484-.475.001-.23-.014-.69.042-1.03 3.114-1.688 6.172-3.035 9.42-4.467l-2.179-2.409c1.35-1.409 2.471-2.58 3.673-3.422.59 1.303 1.1 2.279 1.632 3.25.022-.004.062.018.212.208.438.374.75.436 1.286.587.768.227 1.336.244 2.179.357.745-.187 1.216-.47 1.695-.741.01.012-.008-.014.357-.114.53-2.118.693-4.137.856-6.155-2.332-.091-4.664-.182-7.052-.678-.083-.947-.11-1.49-.139-2.033l.37-.001c1.998-.496 3.625-.99 5.622-1.596z" fill="#F4FCFB"></path>
        <path d="M353.64 60.04c1.062-7.776 2.597-15.555 4.215-23.758-1.598-.149-3.013-.393-4.428-.394-17.634-.007-35.271-.158-52.903.084-22.57.31-39.531 13.972-44.732 36.052-7.88 33.446-15.53 66.945-23.523 100.703-.803-.602-1.967-1.615-1.81-2.344.745-3.474 1.572-6.98 2.884-10.27 2.542-6.374-.006-16.172-5.614-19.083 1.412-8.018 3.177-16.029 5.207-24.243 1.033 4.618 1.801 9.44 2.569 14.26l-1.181.468-3.078-2.632c0 1.9-.367 4.032.055 4.202 6.21 2.497-1.608 10.275 4.871 12.937 2.015-8.024 4.088-15.643 5.822-23.339 2.458-10.914 4.613-21.896 7.001-32.826 1.618-7.406 3.438-14.767 5.101-22.163.191-.852.284-2.012-.138-2.668-2.097-3.26-.657-5.464 1.733-7.744 1.32-1.26 2.168-3.013 3.634-4.917 1.908-1.283 3.491-2.082 4.895-3.124 3.633-2.697 7.187-5.501 10.772-8.263 5.288-4.732 12.06-6.58 18.58-6.76 20.816-.577 41.658-.246 62.49-.156 1.498.007 4.06.631 4.264 1.438.415 1.645-.45 3.61-.775 5.445-.855 4.83-1.778 9.65-2.517 14.498-.31 2.043.542 4.63-3.394 4.596" fill="#F8FBF4"></path>
        <path d="M120.149 198.474s.11.292-.336.407a10 10 0 0 1-2.113.086c-.433-1.347-.567-2.655-.701-3.963 0-.446 0-.891.357-1.736 3.175-2.727 1.32-4.485-.356-6.266l-.002-3.055c-.666-2.847-1.331-4.896-1.996-6.944l-1.517-7.113c-4.817 1.802-9.238 3.456-14.067 4.737 1.957-2.416 4.262-4.535 6.72-6.46.837-.656 2.454-.518 3.031-1.269 2.564-3.334 4.971-6.8 7.264-10.329 2.86-4.403 6.529-8.606 8.072-13.46 1.92-6.042 2.027-12.66 2.943-19.218l3.09-.201c-.57-1.183-1.3-2.318-1.672-3.56-.586-1.95-.93-3.971-1.45-6.288l4.441-.824c1.715 2.062 2.928 3.52 3.986 5.325-.718 3.784-1.283 7.22-2.182 10.692-1.004.781-1.673 1.528-2.342 2.276.873.57 1.745 1.142 2.66 1.997.088.47.131.657.175.844 0 0-.048-.095-.334.008-.727.338-1.495.508-1.557.819-.707 3.56-4.49 6.079-2.582 10.736.955 2.333-.784 5.77-1.496 9.791l-3.515-5.742c-2.422 4.113-2.422 4.113 2.86 7.177-.71 6.573-4.956 12.413-3.9 19.342.032.203-.412.479-.926.75-.43.676-.566 1.321-.704 2.39.019 3.817.039 7.21.059 10.604-.367 2.09-.733 4.18-1.419 6.84-.377.915-.434 1.261-.491 1.607m.993-36.444c.873-2.353 1.464-4.569-2.207-4.856-2.626 6.815-2.485 8.072 2.098 12.102 0-2.67 0-4.547.109-7.246" fill="#FEFDFE"></path>
        <path d="m135.997 117.996-4.14-4.978-4.441.824c.52 2.317.864 4.338 1.45 6.287.373 1.243 1.103 2.378 1.673 3.561-1.382.09-2.764.18-3.091.2-.916 6.558-1.023 13.177-2.943 19.219-1.543 4.854-5.211 9.057-8.072 13.46-2.293 3.53-4.7 6.995-7.264 10.33-.577.75-2.194.612-3.031 1.268-2.458 1.925-4.763 4.044-7.134 6.46-4.854.541-9.703.71-14.78.623 10.953-3.258 20.686-8.47 27.945-17.856 5.726-7.402 7.384-16.19 9.367-24.943a6410 6410 0 0 1 15.138-65.347c-.05 2.608-.877 5.57-.534 8.392.575 4.732 2.599 8.912 7.554 11.685.35.66.37.853.392 1.046-.008.404-.017.808-.454 1.49-.828.28-1.226.28-2.012.275-1.467-1.004-2.482-2.091-3.651-2.972-.896-.675-1.988-1.09-4.014-2.158l4.448 9.884c-2.078 1.825-5.127 3.765-4.873 4.414.858 2.195 2.887 3.933 4.468 6.273-.002 2.14-.003 3.853-.297 5.596-.43.678-.567 1.326-.742 2.338a203 203 0 0 1-.962 4.629" fill="#F5F9F9"></path>
        <path d="M165.994 266.026c.952 3.279 2.547 6.522 2.727 9.843.41 7.587.13 15.21.13 23.154-2.654 0-4.775 0-7.333-.1-.435-.807-.433-1.515-.399-3.032-.05-7.5-.135-14.193-.219-20.884.006-.448.012-.896-.078-1.9-.203-.904-.438-1.092-.8-1.119 0 0-.022.008-.026-.324-.615-.837-1.226-1.343-1.837-1.85 0 0-.117.024-.266-.27-2.405-.377-4.66-.462-6.916-.547-.433.008-.865.015-2.017.12-1.1.925-1.809 1.753-1.81 2.582-.003 8.754.105 17.51.183 26.264-.056.18-.112.359-.68.827-2.241.386-3.968.483-5.695.58-.166-.068-.331-.136-.76-.766-.276-9.889-.1-19.222-.398-28.54-.118-3.678.644-6.1 4.798-6.926 1.02-.122 1.696-.239 2.782-.316 4.472.037 8.537.035 12.865.126.629.163.994.231 1.534.515.528.282.883.348 1.237.415 0 0 .3.224.627.481a8 8 0 0 0 1.344.657s.013-.016.084.237c.355.426.64.6.923.773" fill="#127FBF"></path>
        <path d="M246.993 300.147a43 43 0 0 0-2.998-.242c-2.157.43-3.566.852-4.975 1.274-.742-.077-1.483-.155-2.746-.615-1.44-.388-2.36-.395-3.28-.401a43 43 0 0 0-2.87-1.188c-.516-.134-.963-.197-.963-.197s-.08.14-.05-.25c-8.74-7.905-9.221-17.269-6.045-27.49-.041-.033.009.06.255-.117.486-.731.727-1.285 1.233-2.031 6.655-7.589 12.843-8.525 23.278-3.676 0 0 .155-.14.191.228 1.376 3.089 2.715 5.809 4.009 8.763.071.685.188 1.136.486 1.883.29.5.4.703.435 1.275-.186 1.104-.297 1.84-.703 2.587-.944.363-1.593.715-2.245 1.058-.003-.01.013.006-.404-.012-2.49.553-4.563 1.126-6.968 1.71-.772.009-1.212.004-1.819-.179-.714-.02-1.262.14-2.151.369-2.167.423-4.042.622-5.801 1.18-1.203.383-2.658 1.031-3.216 2.008-.37.648.451 2.217 1.073 3.152 3.543 5.324 8.41 5.34 13.945 3.66 1.766-.536 3.918.196 5.893.348l-.683 5.651s.124.069-.254.044c-1.128.386-1.878.797-2.627 1.208m-15.82-29.52-3.682 9.232 19.3-2.204c-2.165-3.628-3.14-6.526-5.123-8.295-3.19-2.845-6.754-1.46-10.495 1.266m5.883 25.227-7.199-2.143c3.571 5.137 14.418 5.865 18.064 1.563-3.64.25-6.832.47-10.865.58" fill="#137DBB"></path>
        <path d="M198.664 298.8c-4.32-11.697-8.477-23.35-12.848-35.607 3.006 0 5.552 0 8.46.294.363.294.578.52.557.877.398 1.454.818 2.553 1.209 4.013.589 1.899 1.207 3.435 1.848 5.18.12.61.215 1.015.269 1.717a43 43 0 0 0 1.775 4.78c.04-.059-.062.04-.064.382.342 1.157.687 1.973 1.022 2.997-.01.208.19.574.177.936.66 2.238 1.334 4.113 2.376 7.01.673-2.924 1.071-4.657 1.577-6.566.107-.176.07-.588.3-.802.324-.82.417-1.427.61-2.241.1-.21.114-.672.395-.909 1.521-4.193 2.99-8.095 3.94-12.12 1.008-4.26 2.961-6.778 8.056-5.844.806.085 1.27.106 1.791.492-.289 1.783-.636 3.2-1.091 4.803-.109.186-.102.616-.37.87-1.791 4.786-3.317 9.318-4.842 13.849 0 0 .094.012-.15.071-.478.344-.535.66-.414 1.008-1.898 4.948-3.796 9.896-6.402 15.026-3.09.162-5.471.142-7.852.123 0 0-.166-.295-.33-.338" fill="#137FBE"></path>
        <path d="M174.002 210.94c.756-.074 1.512-.148 2.634.245.7 1.582 1.033 2.698 1.367 3.813l-2.55.759c.722.902 1.444 1.805 2.357 3.376.193 1.734.194 2.8.195 3.864-3.816-.666-7.613-1.714-11.453-1.91-6.284-.321-12.609.165-18.894-.148-8.614-.43-16.987.667-25.306 2.752-1.483.372-3.14.053-5.49.053l2.644-3.974c-1.916-.727-3.638-1.382-5.024-2.401 2.064-1.032 3.79-1.699 5.516-2.365.317-.785.634-1.57.982-2.948.035-.78.037-.964.04-1.148.751-.06 1.503-.121 2.673.278 2.157 2.55 3.509 2.608 4.3-.28.757-.064 1.514-.128 2.654.34 1.432 1.272 2.474 2.64 3.532 2.654 12.16.151 24.323.177 36.48-.036 1.13-.02 2.23-1.905 3.343-2.924" fill="#FDFEFD"></path>
        <path d="M299.994 264.012c.085.315.245.585.648 1.109.168.299.22.686-.033.893-.77 1.4-1.286 2.594-1.794 3.827.01.04.074-.01-.209-.007-.659.015-1.035.027-1.647-.252-2.958-.461-5.68-.63-8.677-.79-.629.378-.984.746-1.599 1.2-.366.392-.474.698-.617 1.363.531 1.835 1.099 3.31 1.891 5.055 2.167 1.02 4.108 1.77 6.194 2.628.144.107.501.15.652.382.499.306.846.38 1.37.556.176.102.578.166.7.414.46.364.798.479 1.132.603-.004.008.011-.005.177.276 1.348 1.818 2.53 3.355 3.722 5.248.092 1.065.174 1.773.177 2.81-.042.777-.006 1.225-.052 1.903-.083.23-.063.718-.266.92-.334.75-.464 1.295-.713 2.015-.118.174-.206.586-.482.744-1.13 1.092-1.984 2.026-3.094 3.02-.676.354-1.095.649-1.932.979-4.12.411-7.822.787-11.825 1.03-.736-.161-1.17-.189-1.902-.415-5.884-1.877-6.02-2.346-2.596-7.015 3.42.48 6.678 1.423 9.845 1.183 1.678-.126 4.158-2.086 4.514-3.625.328-1.418-1.314-3.915-2.783-4.981-2.365-1.717-5.374-2.511-7.978-3.94-4.262-2.34-6.012-5.99-4.966-10.818.982-4.533 2.693-8.209 8.459-7.392.837.119 1.797-.627 3.09-.879 2.794.358 5.2.621 7.874 1.066 1.085.418 1.903.654 2.72.89m-6.752 30.158-9.737 2.677.585 2.004c4.4-1.287 9.07-2.053 13.055-4.133 1.475-.77 1.336-4.63 1.933-7.082l-1.362-.332c-1.306 2.126-2.612 4.252-4.474 6.866" fill="#177DB9"></path>
        <path d="M252.544 279.939c.112-.736.223-1.472.782-2.586a54 54 0 0 0 2.535-2.912 140 140 0 0 1-3.33-.302c-.156-.042-.454-.168-.454-.168-1.34-2.72-2.678-5.44-4.145-8.478 2.308.969 4.744 2.255 7.12 3.509l3.659-10.011 1.696.378c.208 1.034.416 2.068.365 3.726-1.37 1.61-3.427 2.575-3.449 3.586-.235 10.666-.145 21.338-.145 32.155h7.745c.642 1.125 1.554 2.19 1.819 3.398.146.67-.615 1.907-1.295 2.268-.502.266-2.028-.263-2.255-.797-1.766-4.151-4.393-2.826-6.24-1.8-2.481-1.171-4.362-2.059-6.66-2.978-.19-1.915.037-3.8.265-5.683-1.975-.152-4.127-.884-5.893-.348-5.535 1.68-10.402 1.664-13.945-3.66-.622-.935-1.443-2.504-1.073-3.152.558-.977 2.013-1.625 3.216-2.007 1.76-.56 3.634-.758 6.132-1.117 1.11-.088 1.548-.171 1.986-.254.44.004.88.009 2.036.143 2.811-.525 4.906-1.18 7.002-1.835 0 0-.016-.015.307.01.955-.344 1.587-.715 2.22-1.085" fill="#F0FBFB"></path>
        <path d="M302.16 288.997a30 30 0 0 1-.212-2.891c.021-1.87.008-2.973.285-4.333 2.892-5.34-2.115-8.053-3.344-11.943 0 0-.065.051.275.045 3.241-.542 2.745-2.213 1.698-4.068 0 0-.052-.387-.01-.577 1.428-.203 2.813-.216 4.815-.205.619.024 1.025.026 1.089.35.01.76-.042 1.195-.277 1.789-.06.716.062 1.273.267 2.229.035 1.476-.014 2.555-.298 3.968-.065 8.423.106 16.51.37 24.85.146.426.199.598.47 1.079 2.373.106 4.525-.096 6.69-.298.013 0 .015-.024.28-.001.445.02.623.018 1.193.012 3.567.34 3.68-1.735 3.888-4.053.74-.509 1.471-.95 1.497-1.429.438-8.115.788-16.235 1.369-24.42.211-.068.652-.02.671.443.03 7.088-.428 13.765.262 20.32.313 2.98 2.899 5.72 4.494 8.56.039-.008.088.056.353.31 2.832.534 5.401.813 8.079 1.341.385.475.66.7.936.925-.102.323-.29.584-.781.892-3.676.476-7.133.845-10.59 1.21-4.002.424-8 1.104-12.007 1.159-2.04.027-4.095-1.07-6-1.618-1.064.649-2.46 1.5-4.244 1.983-.748-2.802-1.11-5.234-1.579-7.951-.39-.831-.673-1.377-.955-1.924 0 0 .088-.412.438-.767.462-.915.573-1.476.684-2.036 0 0-.02-.488.346-.759.67-.583.974-.896 1.278-1.21z" fill="#F6FCFB"></path>
        <path d="M124.851 287.993s.187-.463.513-1.027c.433-10.104.488-19.645.688-29.183.04-1.907.635-3.803 1.367-5.773 5.266-.032 5.266-.032 4.381 2.905-3.972-1.807-4.904.21-4.764 3.25.182 3.972.849 7.934.837 11.9-.021 7.034-.425 14.068-.58 21.104-.017.761.55 1.536.845 2.3 1.818-2.168 2.784-3.319 3.855-4.102-.274 1.78-.653 3.194-1.033 4.608 0 0 .044.02-.205.099-.391.374-.533.668-.676.963 0 0-.071-.03-.353.13-1.852 1.336-3.42 2.513-4.99 3.69 0 0-.392.023-.964.113-3.298.444-6.023.798-8.748 1.152-.45-.09-.901-.179-1.978-.412-2.74-1.036-4.855-1.929-6.97-2.822 0 0-.067.094-.157-.255-3.608-3.57-4.995-7.565-4.94-12.323.13-11.088.046-22.18.048-33.27 2.514.093 5.027.185 7.681 1.08.052 8.169-.037 15.534-.486 22.812-.98-3.998-1.517-7.924-2.253-11.812-.397-2.094-1.133-4.123-1.716-6.181l-1.864.354c-.127 1.548-.409 3.102-.354 4.644.268 7.625.503 15.255.986 22.869.49 7.7 4.543 11.879 12.182 12.07 2.984.074 6.634 3.19 9.497-1.304-4.214-.561-8.16-.757-11.933-1.668-5.37-1.297-7.477-8.256-4.099-12.494.476 2.84.861 5.26 1.247 7.678 0 0 .066-.09.051.216.362.649.739.993 1.116 1.338 0 0 .279.328.595.656.655.442.994.554 1.334.667 0 0 0 .042.183.26.726.334 1.269.448 1.811.562.438.087.875.174 2.005.304 1.797-.324 2.902-.692 4.007-1.06 0 0-.01-.03.335-.041 1.135-.987 1.925-1.964 2.716-2.94 0 0-.064-.048.206-.096.372-.353.475-.657.577-.96" fill="#107EBE"></path>
        <path d="M264.927 298.616c-2.43.22-4.857.22-7.75.22 0-10.817-.089-21.49.146-32.155.022-1.01 2.078-1.976 3.466-3.203.716-.304 1.156-.37 2.26-.49a77 77 0 0 0 4.027-.779c.435.018.871.035 2.034-.001 2.431.078 4.135.21 6.11.363-.167 2.25-.296 3.98-.762 5.839-1.035.282-1.733.436-2.691.49-.44-.052-.62-.005-1.19-.057-1.445.04-2.501.18-3.986.303-.865.912-1.677 1.84-1.68 2.77-.022 8.688.095 17.376.172 26.065 0 0-.152.414-.156.635" fill="#1883C2"></path>
        <path d="M75.822 263.068h5.73v5.557l-6.563.549c0 6.933-.345 13.838.261 20.66.138 1.558 3.556 2.825 5.464 4.227l1.767-.302c-.862 1.926-1.21 4.743-2.689 5.597-3.37 1.944-9.78-.406-11.196-3.8-.927-2.223-1.364-4.777-1.446-7.203-.207-6.13-.09-12.27-.139-19.124-.029-.885-.022-1.054.346-1.257 2.647-.756 4.933-1.477 7.527-2.296 0-.521 0-1.474.233-2.478.234-.05.705-.13.705-.13" fill="#1A84C2"></path>
        <path d="M182.128 299.101c-2.261.16-4.411.16-6.87.16v-35.96h7.418c0 9.595 0 19.186.109 29.234.046.91-.016 1.361-.073 2.515-.027 1.738-.06 2.774-.092 3.81 0 0-.38.081-.492.241" fill="#1682C2"></path>
        <path d="M77.75 35.739c-9.363 2.67-18.358 6.167-25.552 13.439-5.901 5.965-9.995 12.872-11.88 21.002-2.028 8.742-3.8 17.543-5.939 26.591-.573-1.091-1.308-2.51-1.138-3.81 1.1-8.445 2.447-16.857 3.573-25.298.16-1.205-.435-2.511-.689-3.816 5.188-.09 6.657-2.625 5.406-7.593-.516-2.05.34-4.445.635-7.284 6.578 3.063 8.426-2.696 11.47-5.625 2.78-2.674 5.063-5.242 9.956-3.066l-1.873-5.617c5.667.283 10.72.536 16.03 1.077" fill="#F5F9F9"></path>
        <path d="M161.605 263.247c-.366-.068-.731-.136-1.471-.537-.653-.777-.93-1.222-.958-1.878-1.357-2.57-2.384-2.48-4.575.185-2.464-.312-4.526-.628-6.71-1.228-.712-1.118-1.303-1.951-1.894-2.785 4.732-.001 9.465-.002 14.638.303a99 99 0 0 1 2.094 1.594l.27-1.9c-.277-3.339-.648-6.675-.772-10.02-.034-.93.665-1.888 1.452-2.571 1.787 1.69 3.15 3.117 4.455 4.483 4.58-3.792-1.15-4.594-1.138-6.89 2.388-.334 4.777-.669 7.616-.71a13 13 0 0 0 2.39.707c.444 0 .888 0 1.858.255 1.73.085 2.934-.085 4.138-.255 1.555.455 3.11.91 4.834 2.1.17 2.122.17 3.51.17 4.899a31 31 0 0 1-2.679.976c-1.698-1.555-3.077-3.135-4.33-4.572-1.998.606-3.625 1.1-5.631 1.226a255 255 0 0 1-2.31-2.357l-.82 1.5q1.383.614 2.769 1.227c.027.544.055 1.087.017 2.293a14.3 14.3 0 0 1-1.124 2.7l-3.593 3.749 2.18 2.41c-3.25 1.43-6.307 2.778-9.776 4.513-.64.454-.87.519-1.1.583" fill="#FDFDFE"></path>
        <path d="M300.232 175.253c13.835-4.05 25.716-11.237 31.734-24.87 3.494-7.915 4.746-16.836 6.845-25.344 1.35-5.47 2.407-11.011 3.851-16.795.236 3.843.502 7.987.105 12.067-.332 3.413-3.377 6.746.733 10.463-8.239 3.495-4.742 11.94-8.109 17.528-1.986 3.296-4.066 6.544-5.861 9.942-1.296 2.452-2.193 5.114-3.546 8.345l-4.297.758-1.616 5.176-5.775-.829-.351 4.875c-4.28-.328-8.876-.68-13.713-1.316" fill="#F8FBF4"></path>
        <path d="M306.662 267.006c.052-.436.105-.87.2-1.946.112-1.079.18-1.517.248-1.955a146 146 0 0 1 3.864-.122c1.497.055 2.244.1 3.018.601.018 12.098.01 23.74 0 35.384 0 0 0 .025-.445.034-2.455 0-4.466-.01-6.478-.02-.052-.173-.105-.345-.162-1.228l-.223-24.728c.048-1.078.097-2.157.156-3.96-.052-1.17-.115-1.616-.178-2.06" fill="#0C7ABC"></path>
        <path d="m274.795 268.282.425-5.71a322 322 0 0 1-5.803-.487c4.884-4.205 10.616-2.998 16.389-1.438.785.212 1.619.245 2.82.604.388.243.384.712.384.712-.903.345-1.863 1.091-2.7.972-5.766-.817-7.477 2.86-8.46 7.392-1.045 4.828.705 8.479 4.967 10.818 2.604 1.429 5.613 2.223 7.978 3.94 1.469 1.066 3.111 3.563 2.783 4.981-.356 1.54-2.836 3.499-4.514 3.625-3.167.24-6.424-.703-9.845-1.183-3.423 4.669-3.288 5.138 2.481 7.284-.112.714-.406.961-1.043 1.176-2.113-1.012-3.882-1.99-5.652-3.22 0-.249-.002-.748.109-1.045.037-1.765-.037-3.233.176-4.907 1.76-.74 3.235-1.271 4.958-1.523 4.143 1.016 8.3 3.194 11.706-2.486-.697-.414-1.48-1.127-2.392-1.382-6.954-1.944-12.82-5.201-15.507-12.816.28-2.04.51-3.674.74-5.307" fill="#F0FBFB"></path>
        <path d="M206.046 281.098s-.015.463-.32.67c-.307.208-.72.202-.789-.154-1.363-.772-2.658-1.187-4.232-1.594-.464.03-.648.052-.833.075 0 0 .102-.1.109-.452.007-1.45.007-2.55.295-3.68.594-.457.901-.883 1.208-1.309-.498.123-.996.246-1.941.344-.746-.023-1.044-.022-1.342-.021-.096-.405-.191-.81-.258-1.858.032-1.802.035-2.96.407-4.159 3.803-1.448 4.147-3.77 3.123-6.582l-6.619 1.63s-.215-.227-.169-.376c-.154-4.856-3.71-6.12-7.31-6.514-3.408-.373-3.997-1.597-2.522-4.767 1.463.27 2.977.647 4.047 1.551 5.943 5.024 13.362 3.952 20.678 5.517a42.3 42.3 0 0 1-1.994 10.58c-1.792.729-3.165 1.457-4.538 2.184.988.94 1.975 1.879 2.964 3.253z" fill="#FDFDFE"></path>
        <path d="M32.456 104.043c-4.375 22.133-9.115 44.317-14.116 66.78-.881-9.007 1.509-17.7 4.121-26.531 1.728-5.84 1.253-12.31 2.06-18.458.287-2.182 1.402-4.268 2.225-6.364 1.074-2.737 2.575-5.115-.61-7.937-1.375-1.218-.976-4.438-1.39-6.787 2.958-.262 5.152-.456 7.71-.703" fill="#F5F9F9"></path>
        <path d="M274.458 268.41c.107 1.505-.123 3.139-.566 5.549-1.841 7.882-1.436 8.535 4.518 11.928.989.563 1.082 2.697 1.59 4.106-1.475.532-2.95 1.064-4.856 1.576-1.003.131-1.574.281-2.145.431-1.103.312-2.206.624-3.661.597-1.346-1.092-2.338-1.844-3.334-3.065.325-6.16.652-11.852 1.304-17.401 2.886 1.535 3.78.444 3.912-2.225.51-.309.704-.574.807-.905a46 46 0 0 0 2.43-.591" fill="#FEFEFE"></path>
        <path d="M231.699 175.245c21.94-.201 43.644-.182 65.814-.12-1.463.654-3.385 1.777-5.318 1.796-14.95.147-29.904.026-44.855.121-3.282.02-6.58.935-9.832.75-2.053-.116-4.033-1.507-5.81-2.547" fill="#F8FBF4"></path>
        <path d="M139.349 57.931c1.058-7.058 2.486-14.184 4.05-22-20.389 0-40.433 0-60.943-.065.706-.639 1.884-1.721 3.05-1.708 16.26.184 32.519.646 48.78.717 3.65.016 7.305-1.205 10.907-1.847.799 9.197-2.048 17.082-5.844 24.903" fill="#F5F9F9"></path>
        <path d="M220.057 263.024c-.464-.021-.928-.042-1.849-.314-.658-.476-.905-.626-1.198-.702-.632-2.179-.302-3.529 2.44-2.934 1.137.247 2.3.375 3.5.242a9 9 0 0 1 .052-.318c1.713.001 3.427.003 5.57.003H229c.092 3.897 2.006 3.237 4.546 2.021 4.844-2.317 11.935-.505 14.312 3.823-10.462-4.48-16.65-3.544-23.611 4.163-.771.904-.972 1.497-1.173 2.09 0 0-.05-.093-.405-.083-1.486-.729-2.618-1.468-3.75-2.207 0 0-.006-.43.446-.69.532-1.872.611-3.483.69-5.094" fill="#F0FBFB"></path>
        <path d="M358.242 165.09c.039.61.078 1.221.068 2.336-1.551 2.817-3.052 5.13-4.553 7.444-.756.201-1.512.402-2.847.74-1.04.112-1.501.09-2.123-.178-1.022-3.107-.918-3.183 4.583-3.588 2.667-2.962 4.042-5.83.63-8.853-.002.012.02.023.05-.359-4.134-3.7-6.419-3.528-10.201.693.273 3.329.77 6.342 1.316 9.652.312.84.573 1.384.59 1.967-.245.04-.741.068-.741.068s-.163-.26-.524-.552c-1.623-2.04-2.884-3.79-4.145-5.54.236-1.943.471-3.887.991-6.345.394-.86.503-1.206.613-1.553 0 0 .252-.134.611-.437 2.721-1.152 5.083-2 7.445-2.848.734.13 1.467.259 2.77.691 2.202 2.423 3.834 4.543 5.467 6.662" fill="#3C5C91"></path>
        <path d="M313.965 263.13a46 46 0 0 1-2.607-.217c-1.313-.653-2.253-1.702-3.208-1.715-4.076-.055-4.663-.952-2.18-5.05.797-.213.99-.246 1.114-.23-.07.047.04-.082.047.27 1.295.53 2.582.707 4.156.776 1.033-.423 1.779-.738 2.824-1.013.499.053.7.065.9.077.651.214 1.422.763 1.933.582 1.962-.7 3.84-1.632 6.172-2.037.077 1.437-.794 2.615-.524 3.401 1.486 4.325-.907 5.128-4.65 5.326-.761 1.196-1.208 2.254-1.802 3.659z" fill="#F6FCFB"></path>
        <path d="M318.255 263.16c3.43-.058 5.823-.86 4.337-5.186-.27-.786.601-1.964.943-3.33 2.062-.877 4.125-1.386 6.776-2.039.26 3.407.503 6.595.943 10.14.196.36-.052.464-.598.408-7.62-.32-8.195.143-6.704 4.897 0 0-.024.498-.297.748-.448.26-.623.272-.798.284 0 0-.44-.049-1.01-.082-1.56-.097-2.551-.16-3.567-.624-.026-2.005-.025-3.61-.025-5.216" fill="#2185BD"></path>
        <path d="M164.211 18.198c-8.92 11.589-9.628 25.897-13.013 39.318-.528 2.092-.966 4.207-1.788 6.265-.394-.295-.445-.544-.497-.792.554-4.836 1.109-9.672 1.382-15.129a11.8 11.8 0 0 1-.268-2.83c1.323-3.126 2.747-6.214 3.926-9.393.563-1.518.663-3.208 1.285-5.437a101 101 0 0 0 1.76-5.195c1.569-2.126 3.137-4.252 5.172-6.692.875-.36 1.282-.405 1.777-.367z" fill="#FEF1E0"></path>
        <path d="M131.32 293.95c.02-1.389.399-2.802.725-5.048.001-11.834.055-22.836.11-33.837.53-3.087.53-3.087-4.975-3.213-.814-.42-.994-.752-1.174-1.084 2.297-.38 4.724-1.348 6.834-.881.982.218 1.91 3.22 1.903 4.956-.047 11.397-.26 22.795-.687 34.183-.062 1.66-1.549 3.267-2.736 4.924" fill="#D1F1FC"></path>
        <path d="M233.623 116.364c1.271-9.032 2.932-17.822 4.678-26.596.615-3.093 1.439-6.144 2.414-9.497.529 1.095 1.233 2.54 1.026 3.839-1.281 8.064-2.733 16.103-4.234 24.13-.16.856-1.004 1.584-1.068 1.68l2.096 5.707c-1.497.328-2.993.656-4.912.737" fill="#F8FBF4"></path>
        <path d="M274.824 40.665c-3.417 3.075-6.971 5.879-10.604 8.576-1.404 1.042-2.987 1.841-4.855 2.752.607-3.414 1.58-6.83 2.986-10.62 2.17-.708 3.908-1.04 5.645-1.374 2.22.118 4.44.235 6.828.666" fill="#FEFDFF"></path>
        <path d="M343.52 105.921c2.862-14.684 6.08-29.453 9.594-44.443-.51 5.44-.954 11.181-2.2 16.743-2.076 9.265-4.665 18.415-7.394 27.7" fill="#F8FBF4"></path>
        <path d="M218.654 269.063c1.398.484 2.53 1.223 4.058 1.985-2.822 10.211-2.341 19.575 6.467 27.435-5.792-1.17-8.862-5.807-9.154-13.77-.122-3.348-.02-6.704-1.136-10.184-1.456 2.717-2.912 5.433-4.723 8.265 1.17-4.414 2.696-8.946 4.488-13.731" fill="#E6F9FC"></path>
        <path d="M247.541 49.933c2.087-11.394 4.527-22.87 7.206-34.642.642.644 1.535 1.68 1.37 2.504-.968 4.848-2.191 9.644-3.307 14.463-.295 1.275-.983 2.689-.688 3.831 1.428 5.528-2.607 9.253-4.58 13.844" fill="#F8FBF4"></path>
        <path d="M75.516 262.78c.306.288-.165.367-.803.333-3.015.271-5.393.575-8.01.87-.238-.008-.715-.051-.712-.274.002-.222.001-.667.001-.667.297-.53.92-1.114.842-1.58-.995-5.922 2.311-7.8 7.58-7.9.255 2.86.525 5.894 1.102 9.217" fill="#1F88C4"></path>
        <path d="M144.255 263.143c-3.811.82-4.573 3.243-4.455 6.921.298 9.318.122 18.651.148 28.443-.63-.498-1.816-1.454-1.83-2.427-.139-9.465-.136-18.934-.017-28.4.017-1.398.853-2.786 2.033-4.424 1.855-.2 2.988-.157 4.12-.113" fill="#D1F2FD"></path>
        <path d="M178.44 214.998c-.77-1.115-1.105-2.23-1.437-3.702 7.385-2.697 14.769-5.037 22.505-7.437-1.722 1.581-3.797 3.222-6.53 5.152-3.098 2.187-5.54 4.086-7.98 5.985z" fill="#F8FBF4"></path>
        <path d="M313.812 255.91c-.746.316-1.492.631-2.854.96-1.688-.337-2.761-.685-3.834-1.034 0 0-.11.13-.094-.199-.327-.765-.67-1.201-1.012-1.638-.008-.175-.017-.35-.009-1.127 1.994-1.98 3.97-3.359 5.947-4.737 0 0-.006-.093.075.137.346.435.642.508.971.451 0 0 .317.288.654.698.567 2.063.797 3.716 1.027 5.37 0 0 .326.115-.048.174-.523.355-.673.65-.823.945" fill="#2180BA"></path>
        <path d="M241.551 77.955c1.395-8.424 3.164-16.905 5.176-25.677.17 2.512.27 5.335-.014 8.118-.432 4.238-.904 8.498-1.82 12.647-.386 1.752-1.942 3.245-3.342 4.912" fill="#F8FBF4"></path>
        <path d="M100.694 251.085a798 798 0 0 1 .286 33.225c-.056 4.758 1.331 8.752 4.987 12.29-4.165.685-5.7-2.818-5.759-5.6-.28-13.283.044-26.579.486-39.915" fill="#DFFAFD"></path>
        <path d="M216.629 262.006c.674.078.92.228 1.237.641-4.638-.684-6.59 1.834-7.598 6.094-.952 4.025-2.42 7.927-3.941 12.12-.293-1.505-.304-3.248-.165-5.735.714-2.205 1.277-3.666 1.84-5.127.67-3.388 1.341-6.777 2.017-10.576 1.03.081 2.056.572 3.08 1.065 1.05.504 2.1 1.01 3.53 1.518" fill="#E6F9FC"></path>
        <path d="M120.754 210.704c.263.388.26.573.25 1.034-7.612.243-9.946-3.157-6.386-9.225.553 2.212.724 4.08.895 5.947l1.21-.124c.092-1.446.184-2.892.494-4.445.49-.304.674-.564.774-1.286.005-1.466.006-2.533.008-3.6.456-.002.912-.005 1.71-.007-.105 2.85-.732 5.69-.897 8.557-.055.946 1.083 1.962 1.942 3.15" fill="#F8FBF4"></path>
        <path d="M206.548 199.044c2.972-4.597 6.369-9.207 10.06-13.993-.843 4.09-1.563 8.543-3.367 12.503-.545 1.196-4.094 1.023-6.693 1.49" fill="#F8FBF4"></path>
        <path d="M185.247 215.277c2.191-2.18 4.633-4.08 7.414-6.124.34.02.34.184.34.348-.004 7.92-.004 7.92-7.754 5.776" fill="#FDFEFD"></path>
        <path d="M301.908 296.96c.36 2.432.722 4.864 1.088 7.667-1.71.372-3.424.373-5.632.015-1.784-.788-3.075-1.217-4.365-1.646 0 0 .001-.498.314-.784 1.105-.928 1.896-1.57 3.06-2.212a29.5 29.5 0 0 0 4.708-2.254c.283-.478.526-.67.827-.786" fill="#FDFEFB"></path>
        <path d="M334.934 162.196c.664-3.276 1.615-6.287 2.567-9.297l2.048.174.965 3.397c-3.23.702 1.074 8.058-5.58 5.726" fill="#F8FBF4"></path>
        <path d="M358.66 165.074c-2.05-2.103-3.683-4.223-5.515-6.596.409-1.4 1.017-2.545 1.52-3.491 2.228 2.065 3.999 3.62 5.66 5.283.867.866 1.543 1.923 2.305 2.894-1.184.632-2.368 1.263-3.97 1.91" fill="#F8FBF4"></path>
        <path d="M148.575 63.03c.39.207.441.456.61 1.069.013 1.321-.09 2.278-.507 3.778-.356.912-.398 1.281-.44 1.65-.018.345-.036.69-.426 1.365-.847.594-1.322.856-1.797 1.118l-3.4-9.97c2.51.46 4.066.747 5.96.99" fill="#F5F9F9"></path>
        <path d="M108.582 275.02c.09-7.366.178-14.731.363-22.557.405 1.275.969 3.008.984 4.745.09 10.31.053 20.621.022 31.406-.422-1.945-.807-4.363-1.203-7.624-.062-2.552-.114-4.26-.166-5.97" fill="#D1F1FC"></path>
        <path d="M125.756 250.972c.43.128.61.46 1.03.949-.1 2.059-.694 3.955-.734 5.862-.2 9.538-.255 19.08-.627 28.94-.334-9.372-.402-19.067-.466-29.495-.032-.909-.07-1.085-.106-1.261l.098-1.876c.006-.756-.017-.93-.04-1.105.197-.603.396-1.207.845-2.014" fill="#6EBDE5"></path>
        <path d="M281 301c.294-.247.588-.494.997-1.01.55-.241.984-.213 1.93.2 1.367.535 2.22.686 3.074.837.358 3.867-1.392 4.614-4.814 3.512-2.094-.674-4.348-.853-6.614-1.673 1.754-.9 3.59-1.383 5.427-1.866" fill="#FDFEFB"></path>
        <path d="M354.12 175.03c1.138-2.474 2.639-4.787 4.398-7.376 1.025.538 2.261 1.257 2.449 2.188.295 1.462.357 4.103-.32 4.413-1.817.831-4.078.69-6.526.775" fill="#F8FBF4"></path>
        <path d="m117 203.999-.278 4.337-1.21.124a334 334 0 0 1-.512-6.027c-.245-1.96-.761-3.52-.631-5.023.073-.844 1.213-1.596 2.251-2.398.513 1.3.647 2.608 1.08 3.955.297 1.105.296 2.172.073 3.745-.49.706-.674.966-.773 1.287" fill="#F5F9F9"></path>
        <path d="M266.983 271.988c-.327 5.692-.654 11.384-.982 17.973.007 2.61.015 4.325.023 6.04-.158.546-.316 1.092-.708 1.809-.31-8.518-.427-17.206-.405-25.894.003-.93.815-1.858 1.676-2.417.415 1.076.405 1.783.396 2.49" fill="#E5FEFF"></path>
        <path d="M147.571 297.63c-.316-8.422-.424-17.177-.42-25.931 0-.83.71-1.657 1.497-2.488-.007 9.36-.423 18.724-1.077 28.42" fill="#D1F2FD"></path>
        <path d="M144.598 263.138c-1.476-.039-2.61-.083-4.167-.125 1.342-1.978 3.11-3.957 5.221-5.972.936.797 1.527 1.63 2.123 3.015-.265 1.277-.535 2.002-.804 2.727-.677.116-1.353.233-2.373.355" fill="#F4FCFB"></path>
        <path d="M199.036 299.478c2.338-.32 4.719-.3 7.54-.215-.319 1.476-1.08 2.888-1.84 4.3-1.887-1.25-3.772-2.498-5.7-4.085" fill="#F4FCFB"></path>
        <path d="M221.242 171.902c.148-2.77.659-5.567 1.407-8.65 1.549.307 2.86.9 4.465 1.625-1.953 2.48-3.73 4.738-5.872 7.025" fill="#F8FBF4"></path>
        <path d="M365.64 52.453c-2.097.457-4.337-3.222-3.41-5.44.482-1.151 1.706-1.993 3.121-3.556.187 3.617.318 6.143.289 8.996" fill="#F8FBF4"></path>
        <path d="M339.944 168.947c1.662 1.723 2.923 3.472 4.395 5.483-.538.853-1.288 1.444-2.039 2.034-6.476-5.352-6.494-5.402-2.356-7.517" fill="#F8FBF4"></path>
        <path d="M166.693 241.876c.29 2.423 6.021 3.225 1.441 7.017-1.305-1.366-2.668-2.793-4.083-4.557.745-1.086 1.543-1.836 2.642-2.46" fill="#F4FCFB"></path>
        <path d="M267.984 39.601c-1.725.731-3.463 1.064-5.592 1.397-.66-1.14-.929-2.278-1.198-3.417 2.486-.405 5.318-2.26 6.79 2.02" fill="#F8FBF4"></path>
        <path d="M181 219.002c1.647-.108 3.333-.441 4.919-.177.433.073 1.038 2.674.754 2.857-1.106.714-2.538.921-4.264.966-.747-1.45-1.078-2.547-1.41-3.646" fill="#FDFEFD"></path>
        <path d="M192.77 304.576c-1.306-3.155.028-4.372 4.656-4.176.51 3.482-1.264 4.428-4.655 4.176" fill="#F4FCFB"></path>
        <path d="M65.579 262.976c.413.066.414.511.179.915.227 1.316.69 2.227 1.17 3.383.017.245.067.733.067.733-.006.168-.013.337-.04.758-1.476.14-2.933.028-4.751-.112.286-2.545-1.964-5.826 3.375-5.677" fill="#2D86B2"></path>
        <path d="M275.003 297s.002.499-.005 1.103c-.67 1.368-1.334 2.133-1.998 2.898-2.943-1.647-4.846-3.42-.317-5.64 1.04.733 1.68 1.186 2.32 1.639" fill="#FEFEFE"></path>
        <path d="M217.27 184.925c.773-4.167 1.959-8.314 3.399-12.742-.068 3.419-.277 7.134-.806 10.804-.107.742-1.423 1.31-2.594 1.938" fill="#F8FBF4"></path>
        <path d="M116.632 187.076c2.043 1.707 3.9 3.465.724 5.858-3.44-1.528-3.037-3.56-.724-5.858" fill="#F5F9F9"></path>
        <path d="M160.632 275.32c.352 6.378.437 13.07.423 20.222-.296-6.329-.494-13.118-.423-20.221" fill="#D1F2FD"></path>
        <path d="M115.294 300.382c2.455-.614 5.18-.968 8.311-1.307.622 1.092.838 2.17 1.143 3.691-3.257-.753-6.22-1.439-9.454-2.384" fill="#DFFAFD"></path>
        <path d="M349.902 157.382c-2.259 1.203-4.62 2.051-7.321 3.061.068-4.47 2.07-5.418 7.321-3.06" fill="#F8FBF4"></path>
        <path d="M246.996 300.55c.746-.814 1.496-1.225 2.574-1.662.211 1.951.093 3.928-.025 5.906l-1.654.147a86 86 0 0 1-.895-4.391" fill="#F0FBFB"></path>
        <path d="M106.091 297.24c2.1.541 4.215 1.434 6.612 2.52-.74.64-2.138 1.734-2.717 1.401-1.487-.852-2.611-2.338-3.895-3.922" fill="#DFFAFD"></path>
        <path d="M287.405 301.02c-1.258-.144-2.111-.295-3.176-.697 3.49-.628 7.192-1.004 11.326-1.133.436.434.44.622.445.81-.791.642-1.582 1.284-2.686 1.963-2.043-.293-3.774-.621-5.909-.943" fill="#F0FBFB"></path>
        <path d="M266.361 295.965c-.345-1.68-.353-3.394-.357-5.537.996.325 1.988 1.077 2.988 2.2-.759 1.349-1.526 2.325-2.63 3.337" fill="#FDFEFB"></path>
        <path d="M273.041 301.322c.623-1.086 1.286-1.85 1.957-2.97 1.777.625 3.546 1.604 5.659 2.616-1.494.515-3.33.998-5.413 1.756-.884-.177-1.523-.63-2.203-1.402" fill="#F6FCFB"></path>
        <path d="M311.73 247.82c-1.75 1.693-3.727 3.072-5.795 4.8-1.685-5.097-.628-6.117 5.795-4.8" fill="#D9F5FB"></path>
        <path d="M225.536 151.952c-.001-2.134.36-4.328.979-6.781 2.184 2.345 2.465 4.743-.979 6.781" fill="#F8FBF4"></path>
        <path d="M156.668 24.977c-.152 1.554-.635 3.08-1.378 4.824-.817-1.295-1.374-2.81-1.931-4.324a48 48 0 0 1 3.309-.5" fill="#F5F9F9"></path>
        <path d="M180.625 219.002c.706 1.099 1.037 2.197 1.37 3.645-1.064.35-2.128.35-3.59.35-.401-1.065-.402-2.13-.404-3.594.75-.4 1.5-.4 2.624-.4" fill="#F8FBF4"></path>
        <path d="M119.583 215.003q-1.967 1-5.174 2.003c-.18-.65-.028-1.822.291-1.87 1.464-.216 2.974-.118 4.883-.133" fill="#F8FBF4"></path>
        <path d="M18.895 130.602c-.016 1.858-.098 3.345-.18 4.832l-1.961-.508c.691-1.565 1.383-3.13 2.141-4.324" fill="#F5F9F9"></path>
        <path d="M255.576 12.934c.068-2.083.475-4.245 1.12-6.681 2.234 2.364 1.396 4.582-1.12 6.68" fill="#F8FBF4"></path>
        <path d="M149.712 44.894c.31.871.306 1.608.306 2.712-.82.824-1.644 1.28-2.468 1.735.666-1.595-3.075-5 2.162-4.447" fill="#F5F9F9"></path>
        <path d="M188.335 248.999c-.333-1.388-.334-2.777-.335-4.581.999.994 1.997 2.405 2.747 4.198-.25.382-.746.382-.746.382z" fill="#F4FCFB"></path>
        <path d="M115.002 177.427q.998 2.436 1.995 6.145-.998-2.437-1.995-6.145" fill="#F5F9F9"></path>
        <path d="M239.174 301.475c1.255-.718 2.664-1.14 4.448-1.506-.405 1.335-1.183 2.612-1.962 3.89-.777-.697-1.554-1.393-2.486-2.384" fill="#F0FBFB"></path>
        <path d="M168.56 12.966c-1.027 1.63-2.419 3.252-4.08 5.053-.269.18-.445.011-.488-.425-.017-1.148.008-1.86.032-2.573.319-.464.637-.927 1.22-1.693.266-.302.756-.31.756-.31.732-.019 1.463-.039 2.56-.052" fill="#FEF1E0"></path>
        <path d="M275.114 296.703c-.751-.156-1.392-.61-2.076-1.383-.042-1.07-.04-1.82-.04-2.945.572-.525 1.143-.675 1.86-.599.22 1.694.293 3.162.256 4.927" fill="#FDFEFB"></path>
        <path d="M141.046 299.681c1.639-.408 3.366-.505 5.527-.62-.828 4.59-3.339 1.495-5.527.62" fill="#D1F2FD"></path>
        <path d="M174.681 7.001c.76-.046 1.193-.05 1.952-.037-1.42 1.347-3.164 2.679-5.24 4.063-.35-.406-.368-.865-.38-1.669 1.118-1 2.23-1.657 3.668-2.357" fill="#FEF1E0"></path>
        <path d="M150.6 32.2c-2.57-1.249-2.57-1.249-.245-4.95.224 2.274.341 3.47.245 4.95" fill="#F5F9F9"></path>
        <path d="M223.51 160.928c.059-2.088.465-4.258 1.105-6.705a30 30 0 0 1-1.105 6.705" fill="#F8FBF4"></path>
        <path d="M151.257 269.283c1.975-.201 4.231-.116 6.692.26-2 .203-4.206.114-6.692-.26" fill="#D1F2FD"></path>
        <path d="M315.05 254.718c-.597-1.58-.827-3.234-1.188-5.237 4.06.38 3.987 2.41 1.187 5.237" fill="#D9F5FB"></path>
        <path d="M227.31 158.992c.903-.644 1.806-.954 2.708-1.264l.003 2.526c-.904-.309-1.807-.618-2.711-1.262" fill="#F8FBF4"></path>
        <path d="M224.276 176.815c-.224-.939-.092-1.784.04-2.628l2.384.926c-.69.599-1.38 1.197-2.424 1.702" fill="#F8FBF4"></path>
        <path d="M183.002 301.386c1.109.42 2.219 1.226 3.33 2.032l-1.811 1.586c-.506-1.078-1.012-2.155-1.52-3.618" fill="#F4FCFB"></path>
        <path d="M289.4 262.056c-.39-.093-.386-.562-.379-.796 2.033-.229 4.06-.224 6.633.034.815.718 1.084 1.182 1.352 1.646-2.406-.263-4.812-.526-7.607-.884" fill="#D6F5FC"></path>
        <path d="M190.001 249.383c0-.385.497-.385.746-.386.818 1.022 1.388 2.043 1.959 3.064l-1.615.666c-.363-.987-.726-1.973-1.09-3.344" fill="#FDFDFE"></path>
        <path d="M297.274 263.122c-.536-.646-.805-1.11-1.185-1.818a15.3 15.3 0 0 1 3.904 2.353c-.816.119-1.634-.117-2.72-.535" fill="#F6FCFB"></path>
        <path d="M125.142 298.91c1.163-1.23 2.732-2.407 4.603-3.71.433 3.058-1.343 4.035-4.603 3.71" fill="#D1F1FC"></path>
        <path d="M182.985 298.879c-.332-1.055-.3-2.09-.162-3.502 1.014.294 1.923.962 2.832 1.63-.769.63-1.537 1.261-2.67 1.872" fill="#F4FCFB"></path>
        <path d="M204.542 206.731c-.633.979-1.478 1.695-2.323 2.412l-.902-1.53c1.004-.381 2.008-.762 3.225-.882" fill="#F8FBF4"></path>
        <path d="M292.76 303.218c1.53.207 2.82.636 4.175 1.424-1.428-.162-2.92-.682-4.175-1.424" fill="#F6FCFB"></path>
        <path d="M254.585 44.85c.152 1.383.082 2.497.013 3.61l-1.605-.32c.456-1.186.913-2.373 1.592-3.29" fill="#F8FBF4"></path>
        <path d="M352.562 96.187c-.727-.907-1.224-2.077-1.72-3.248l1.605-.439c.115 1.141.23 2.282.115 3.687" fill="#F8FBF4"></path>
        <path d="M247.16 79.746c-.309-.863-.28-1.647-.25-2.432l1.697.45c-.37.687-.74 1.374-1.448 1.982" fill="#F8FBF4"></path>
        <path d="M365.265 176.804c-.199-.79-.073-1.532.052-2.274l1.257.225c-.328.7-.656 1.398-1.309 2.05" fill="#F8FBF4"></path>
        <path d="M163.685 15.018c.315.716.29 1.428.22 2.492-.453.398-.86.444-1.576.502.134-.992.575-1.994 1.356-2.994" fill="#F5F9F9"></path>
        <path d="M18.265 175.636c1.164-.151 2.562-.123 4.358.046-1.11.138-2.617.136-4.358-.046" fill="#F5F9F9"></path>
        <path d="M233.002 300.495c.912-.326 1.832-.32 2.904.011-.503.929-1.157 1.533-1.812 2.137-.361-.605-.723-1.21-1.092-2.148" fill="#F0FBFB"></path>
        <path d="m229 259 2.848-2.108.703 1.397c-.94.236-1.88.472-3.186.71a7 7 0 0 1-.365 0" fill="#F0FBFB"></path>
        <path d="M182.788 241.739c-.994.431-2.198.601-3.595.516 1-.43 2.192-.603 3.595-.516" fill="#F4FCFB"></path>
        <path d="M345.082 175.379c-.068-.367.428-.395.676-.339s.233.248.409.413c.45.35.754.449 1.37.415a63 63 0 0 1 1.41-.191c.462.022.923.045 1.73.114-1.61.016-3.569-.015-5.595-.412" fill="#F8FBF4"></path>
        <path d="M266.908 261.927c-.953.523-2.074.764-3.543.948.892-.448 2.134-.839 3.543-.948" fill="#F0FBFB"></path>
        <path d="M146.015 72.347c.475-.6.95-.861 1.679-1.22.088 1.05-.078 2.195-.472 3.607-.554-.507-.88-1.279-1.207-2.387" fill="#FEF1E0"></path>
        <path d="M77.107 176.086c1.264-.517 2.7-.766 4.503-.96a16.5 16.5 0 0 1-4.503.96" fill="#F5F9F9"></path>
        <path d="M123.722 289.069c-.445.957-1.235 1.934-2.359 2.933.45-.956 1.232-1.935 2.36-2.933" fill="#D1F1FC"></path>
        <path d="M137.527 65.002c-.27-.557-.21-1.122.074-1.868.797.245 1.369.672 1.94 1.098-.562.254-1.124.508-2.014.77" fill="#F5F9F9"></path>
        <path d="M162.667 257c.243.635.152 1.268.062 1.901-.552-.429-1.103-.858-1.69-1.593.406-.307.85-.307 1.628-.307" fill="#F4FCFB"></path>
        <path d="M191.61 296.535c.449.116.724.398.977.699.007.008-.22.212-.338.325-.272-.285-.544-.57-.64-1.024" fill="#F4FCFB"></path>
        <path d="M29.064 176.011c.379-.293.838-.386 1.626-.337-.296.274-.921.406-1.626.337" fill="#F5F9F9"></path>
        <path d="M17.835 171.209c.197.893.115 1.96-.052 3.417-.133-.82-.18-2.032.052-3.417" fill="#F5F9F9"></path>
        <path d="M176.834 241.755c-.479.107-1.125-.03-1.802-.461.525-.123 1.08.046 1.802.46" fill="#F4FCFB"></path>
        <path d="M351.39 153.465c-.448-.116-.723-.399-.977-.7-.007-.007.22-.211.338-.324.272.285.544.57.64 1.024" fill="#F8FBF4"></path>
        <path d="M120.652 292.002c-.74.397-1.845.765-3.31 1.046.743-.416 1.845-.746 3.31-1.046" fill="#D1F1FC"></path>
        <path d="M145.513 81.033c.22.516.151 1.08-.132 1.834-.195-.468-.175-1.127.132-1.834" fill="#F8FBF4"></path>
        <path d="M158.14 270.154c.63.167 1.241.673 1.863 1.5-.62-.172-1.25-.667-1.863-1.5" fill="#D1F2FD"></path>
        <path d="M249.395 62.955c.396-.242.79-.24 1.18-.21.012 0 0 .306-.002.47-.394-.005-.787-.01-1.178-.26" fill="#F8FBF4"></path>
        <path d="M33.608 99.255c.121.636 0 1.506-.335 2.633-.113-.629-.01-1.513.335-2.633" fill="#F5F9F9"></path>
        <path d="M306.827 263.217c.215.326.147.764-.028 1.518-.107.316-.513.314-.717.29.019-.58.24-1.139.745-1.808" fill="#CFF1FC"></path>
        <path d="M305.99 254.332c.37.104.713.54 1.11 1.257-.14.313-.333.346-.821.396-.302-.429-.309-.874-.288-1.653" fill="#D9F5FB"></path>
        <path d="M114.825 292.57c-.362.103-.905-.011-1.617-.359.367-.11.902.016 1.617.358" fill="#D1F1FC"></path>
        <path d="M111.051 290.372q-.52-.112-1.13-1.036.52.112 1.13 1.036" fill="#D1F1FC"></path>
        <path d="M138.404 60.751q-.24-.608.22-1.904.24.608-.22 1.904" fill="#F5F9F9"></path>
        <path d="M144.28 88.074c-.215-.04-.237-.234-.278-.717-.02-.29.262-.358.407-.369.29.319.263.633-.13 1.086" fill="#F8FBF4"></path>
        <path d="M112.877 291.731c-.206.121-.545.009-.997-.36.212-.13.537-.002.997.36" fill="#D1F1FC"></path>
        <path d="M146.12 79.328c.305.04.343.233.052.562-.2-.084-.198-.265-.052-.562" fill="#FEF1E0"></path>
        <path d="M170.832 11.118q.098.326-.564.845-.098-.326.564-.845" fill="#FEF1E0"></path>
        <path d="M341.721 161.18q.178.284-.332 1.035-.178-.284.332-1.034" fill="#F8FBF4"></path>
        <path d="M165.913 12.847c.087.172-.403.179-.648.186.024-.114.292-.237.648-.186" fill="#F5F9F9"></path>
        <path d="M229.165 298.971c-.004-.193.443-.13.633-.008-.084.148-.357.175-.633.008" fill="#E6F9FC"></path>
        <path d="M124.652 288.118c.097.18-.006.483-.356.87-.228-.25-.093-.526.356-.87" fill="#D1F1FC"></path>
        <path d="M213.435 283.85c-.309-.208-.252-.524.209-.912.285.229.202.521-.209.913" fill="#E6F9FC"></path>
        <path d="m222.999 259-.363-.424c.085.049.17.098.31.284.056.138.054.14.053.14" fill="#F0FBFB"></path>
        <path d="M124.71 256.074c.18.069.217.245.214.689-.146-.016-.252-.298-.214-.689" fill="#D1F1FC"></path>
        <path d="M314.11 255.951c-.148-.336.002-.631.366-1.054.29.077.367.28.489.807-.155.312-.355.3-.854.247" fill="#D9F5FB"></path>
        <path d="M160.043 272.21c.34-.195.576-.007.668.578-.316.135-.527-.063-.668-.578" fill="#D1F2FD"></path>
        <path d="M124.756 253.08c.178.08.201.255.172.687-.2.08-.367-.085-.48-.283-.031-.056.098-.204.308-.404" fill="#D1F1FC"></path>
        <path d="M312.874 248.53c-.2.25-.497.177-.88-.23.213-.273.503-.194.88.23" fill="#D9F5FB"></path>
        <path d="M130.309 294.934q-.132-.288.431-.88.133.29-.431.88" fill="#D1F1FC"></path>
        <path d="M200.069 203.836c-.038-.214.182-.479.67-.78.04.218-.186.473-.67.78" fill="#F8FBF4"></path>
        <path d="M201.209 202.947c-.139-.249.024-.477.519-.615.095.251-.088.434-.52.615" fill="#F8FBF4"></path>
        <path d="M205.333 199.921c-.217-.255-.078-.53.465-.757.134.244-.036.474-.465.757" fill="#F8FBF4"></path>
        <path d="M195 70.407c6.827.09 13.178-.128 19.476.347 7.852.592 11.857 5.824 10.78 13.671a138 138 0 0 1-2.607 13.72c-2.073 8.55-8.843 13.876-17.743 13.986-10.497.129-21 .245-31.491 0-3.707-.086-4.969 1.363-5.406 4.705-.452 3.457-1.208 6.885-2.01 10.283-1.843 7.797-8.357 12.985-17.39 13.321.912-5.63 1.663-11.142 2.714-16.596 3.179-16.493 6.578-32.945 9.634-49.46.61-3.3 2.195-3.96 5.063-3.94 9.493.06 18.986-.015 28.98-.037m-5.5 26.605h18.285l1.938-11.162h-25.704c-10.196 0-10.2 0-11.807 9.96-.04.245.242.54.561 1.202z" fill="#FDFBF6"></path>
        <path d="M122.292 189.727c-.253-3.093-.273-6.487-.047-10.47.414-1.145.582-1.7.75-2.253.223-.242.667-.518.636-.721-1.057-6.929 3.19-12.77 3.9-19.342-5.283-3.064-5.283-3.064-2.86-7.177l3.514 5.742c.712-4.022 2.451-7.458 1.496-9.79-1.907-4.658 1.875-7.178 2.582-10.737.062-.31.83-.481 1.608-.805-3.21 16.744-6.755 33.576-10.304 50.408-.34 1.617-.693 3.23-1.275 5.145" fill="#F8FBF4"></path>
        <path d="M173.544 210.83c-.656 1.13-1.754 3.014-2.885 3.034-12.157.213-24.32.187-36.48.036-1.058-.013-2.1-1.382-3.165-2.542 14.013-.494 28.042-.567 42.53-.529" fill="#FEFFFF"></path>
        <path d="M137.998 105.005c-1.581-1.912-3.61-3.65-4.468-5.845-.254-.649 2.795-2.59 4.873-4.414l-4.448-9.884c2.026 1.069 3.118 1.483 4.014 2.158 1.17.88 2.184 1.968 3.679 3.294.795.804 1.175 1.281 1.556 1.759-.07.74-.138 1.48-.703 2.635-1.165 1.755-1.93 3.057-2.48 4.445-.76 1.917-1.356 3.898-2.023 5.852" fill="#FEFFFF"></path>
        <path d="M135.843 118.343c.462-1.769.77-3.19 1.413-4.98.73-.371 1.125-.374 1.52-.376-1.03 5.182-2.06 10.364-3.645 15.794-.748.239-.941.229-1.135.219.564-3.436 1.13-6.873 1.847-10.657" fill="#F8FBF4"></path>
        <path d="M137.998 105.433c.667-2.382 1.264-4.363 2.023-6.28.55-1.388 1.315-2.69 2.341-4.098a107.6 107.6 0 0 1-3.288 15.69c-.713.266-.897.26-1.081.253z" fill="#F8FBF4"></path>
        <path d="M133.66 129.035a8 8 0 0 1 1.207.018c.234.772.177 1.52-.179 2.75-.508.691-.66.938-.752 1.22l-2.617-1.712c.67-.748 1.338-1.495 2.342-2.276" fill="#F5F9F9"></path>
        <path d="M127.602 210.797c-.4 2.997-1.752 2.938-3.544.492 1.016-.438 2.085-.52 3.544-.492" fill="#F8FBF4"></path>
        <path d="M137.7 111.03c.477-.026.66-.02 1.121-.007.258.452.24.898.088 1.654-.528.312-.923.315-1.615.321-.16-.643-.023-1.29.407-1.969" fill="#FEFFFF"></path>
        <path d="M143.418 91.878c-.595-.283-.975-.76-1.383-1.558.37-.322.77-.324 1.467-.324.242.563.186 1.125-.084 1.882" fill="#F8FBF4"></path>
        <path d="M133.98 133.308c.049-.567.2-.814.588-1.15.13.454.08 1.03-.192 1.8-.266.007-.309-.18-.396-.65" fill="#F8FBF4"></path>
        <path d="M148.45 69.334q-.253-.263.12-1.11.254.264-.12 1.11" fill="#FEF1E0"></path>
        <path d="M120.36 198.296c-.154-.168-.097-.514.144-1.05.145.162.106.517-.144 1.05" fill="#F8FBF4"></path>
        <path d="M37.896 290.566c.002-7.26.002-14.065.002-20.741 7.586-3.035 12.689-.48 14.513 6.984 2.056 8.414-1.76 16.205-8.604 16.744-1.892.15-3.937-1.635-5.91-2.987" fill="#F1FCFD"></path>
        <path d="M323.965 270.98h5.067c0 6.514 0 12.823.063 19.97 1.672 1.576 3.336 2.217 4.868 3.089.973.553 1.75 1.45 2.616 2.193-.856.596-1.648 1.542-2.583 1.717-2.053.384-4.18.378-6.276.531 0 0-.049-.064-.09-.44-.597-1.734-1.51-3.054-1.654-4.454-.775-7.524-1.36-15.068-2.01-22.605" fill="#037CC5"></path>
        <path d="M327.985 298.734c1.832-.407 3.958-.4 6.011-.785.935-.175 1.727-1.12 2.583-1.717-.865-.743-1.643-1.64-2.616-2.193-1.532-.872-3.196-1.513-4.84-2.618.256-7.067.55-13.766.887-20.925.26 4.587.576 9.632.667 14.681.127 7.076.125 7.163 7.242 8.212 0 1.51 0 3.106-.291 5.186-.752.74-1.213.995-1.673 1.251-2.569-.279-5.138-.558-7.97-1.092" fill="#2F89B9"></path>
        <path d="M323.965 270.658c.65 7.86 1.236 15.404 2.011 22.928.145 1.4 1.057 2.72 1.615 4.462-1.554-2.464-4.14-5.204-4.453-8.184-.69-6.555-.233-13.232-.262-20.32.156-.474.331-.486.768-.497.282.43.301.859.321 1.611" fill="#2F89B9"></path>
        <path d="M367.792 277.129c-1.467 4.887-3.26 9.922-5.336 15.22-.126-5.404 1.046-10.72 5.336-15.22" fill="#167FBC"></path>
        <path d="M324.293 268.035c-1.832-4.74-1.257-5.202 6.234-4.842-.337.666-1.093 1.235-2.53 1.86-1.12 1.022-1.56 1.99-2 2.957-.454.004-.909.008-1.704.025" fill="#027ECC"></path>
        <path d="M359.855 298.213c-.799 3.227-1.947 6.565-3.38 10.16a79 79 0 0 1 3.38-10.16" fill="#167FBC"></path>
        <path d="M355.09 289.185c.664-.567 1.294-.773 2.092-1.194.423 1.252.678 2.719.932 4.186l-2.053.404c-.335-1.012-.67-2.024-.97-3.396" fill="#167FBC"></path>
        <path d="M360.087 280.751c.49-2.723 1.315-5.598 2.4-8.72a58 58 0 0 1-2.4 8.72" fill="#167FBC"></path>
        <path d="M350.804 273.21c.463 2.013.927 4.026 1.41 6.431-.725-1.683-1.47-3.758-2.207-6.244.008-.41.374-.238.675-.318.3-.08.122.132.122.132" fill="#167FBC"></path>
        <path d="M326.209 268.245c.228-1.202.668-2.17 1.453-3.188-.183 1.107-.712 2.265-1.453 3.188" fill="#037CC5"></path>
        <path d="M361.783 293.14c-.143 1.41-.625 2.98-1.371 4.782.168-1.387.6-3.004 1.37-4.782" fill="#167FBC"></path>
        <path d="M359.1 283.756c-.149-.723.021-1.616.458-2.723.131.709-.005 1.631-.459 2.723" fill="#167FBC"></path>
        <path d="M358.11 286.843c-.142-.722.02-1.645.46-2.787.134.717-.01 1.652-.46 2.787" fill="#167FBC"></path>
        <path d="M354.155 286.745c.334.242.633.864.983 1.84-.305-.251-.662-.855-.983-1.84" fill="#167FBC"></path>
        <path d="M353.154 283.752c.352.257.669.902 1.002 1.917-.335-.263-.686-.896-1.002-1.917" fill="#167FBC"></path>
        <path d="M352.174 280.738c.363.26.684.91 1.016 1.937-.346-.264-.702-.905-1.016-1.937" fill="#167FBC"></path>
        <path d="M335.83 268.038c-.036.187-.401.357-.875.271.11-.266.329-.277.875-.27" fill="#037CC5"></path>
        <path d="M335.466 265.45c.057-.035-.056.033 0 0" fill="#037CC5"></path>
        <path d="m339.01 299.002.198-3.922 10.51 4.825c-1.873 3.8-5.63 1.92-9.37.958a35 35 0 0 1-1.338-1.86" fill="#FEFEFE"></path>
        <path d="M338.72 298.994c.606.476.923.944 1.26 1.708-.425.297-.87.297-1.649.298h-1.082c-.525-.225-.8-.45-1.185-.925.351-.505.812-.76 1.53-1.073.452-.043.645-.03 1.126-.008" fill="#FEFFFF"></path>
        <path d="M350.883 273.096c.376-1.215.852-2.527 1.328-3.84l4.522 1.909-.272 1.967c-1.646 0-3.293 0-5.298.04-.36.039-.18-.172-.28-.076" fill="#FEFFFF"></path>
        <path d="M348.932 267.172a176 176 0 0 1 2.863-3.954l1.456 1.597c-1.255.811-2.51 1.622-4.084 2.387-.32-.047-.158-.059-.235-.03" fill="#FEFFFF"></path>
        <path d="M286.593 118.537a9359 9359 0 0 0 6.832-32.683c-4.354 0-7.984.115-11.603-.025-6.686-.257-11.163-4.415-11.672-10.689-.214-2.637.258-4.37 3.69-4.34 17.313.145 34.628.08 51.942.079 4.015 0 7.38 1.534 8.88 5.254 1.05 2.605 1.4 5.684 1.148 8.469-.054.602-4.013 1.137-6.188 1.205-5.322.168-10.66.198-15.978-.017-3.52-.142-5.193.711-5.926 4.661-2.242 12.081-5.01 24.069-7.73 36.057-1.964 8.657-9.064 14.162-18.006 13.78 1.508-7.172 2.997-14.26 4.611-21.751" fill="#F7FDF6"></path>
        <path d="M288.996 170.992h8.341c-6.998 4.426-52.421 3.882-62.278-.18 1.569-3.792 3.942-2.398 6.912-.652 16.084.569 31.555.7 47.025.832" fill="#49BA42"></path>
        <path d="M288.905 170.596c-15.38.264-30.85.133-46.617-.294.921-.63 2.137-1.25 3.357-1.257 13.23-.07 26.461-.074 39.691.009 1.162.007 2.32.747 3.57 1.542" fill="#53B54F"></path>
        <path d="M58.96 120.978c-.23.498-.46.995-.813 2.125-.163 1.383-.202 2.134-.242 2.885-2.92 8.597-8.412 14.036-18.62 14.927 2.004-9.665 3.88-18.867 5.827-28.054 1.896-8.942 3.861-17.87 5.804-26.802 2.024-9.3 8.154-15.277 17.576-15.482 17.485-.38 34.986-.074 52.48-.032.283 0 .564.286.843.444-.313 7.927-7.896 14.715-16.904 14.804-12.66.126-25.322.032-38.616.032L63.843 96.72h41.166c-1.568 7.714-5.972 12.115-13.353 14.81-9.274.307-17.84.598-26.39.35-4.026-.116-5.897 1.037-5.483 5.151 0 0-.09.165-.306.528-.317 1.381-.417 2.4-.516 3.42" fill="#F5FAFC"></path>
        <path d="M60.084 116.851c-.715-3.934 1.156-5.087 5.182-4.97 8.55.247 17.116-.044 26.13-.126-1.204.409-2.855 1.132-4.53 1.194-7.31.27-14.636.617-21.937.366-2.943-.102-3.77 1.241-4.845 3.536" fill="#2A5089"></path>
        <path d="M59.26 120.725c-.2-.766-.1-1.785.268-3.088.19.756.11 1.795-.268 3.088" fill="#2A5089"></path>
        <path d="M58.164 125.842c-.22-.605-.18-1.356.005-2.458.181.537.218 1.425-.005 2.458" fill="#2A5089"></path>
        <path d="M173.974 252.319c.273-1.007.626-1.685 1.1-2.623 2.453-.167 4.785-.076 7.117.015-.163 2.018-.327 4.037-.848 5.725-1.099-2.027-1.57-4.957-2.633-5.19-3.466-.76-2.462 2.479-2.9 4.358l-.227.97a59 59 0 0 1-1.61-3.255" fill="#3685B0"></path>
        <path d="M175.606 255.57c.053-.32.129-.643.204-.966.438-1.88-.566-5.118 2.9-4.358 1.063.233 1.534 3.163 2.268 5.29-.008.43.01.456-.272.428-.754.202-1.226.432-1.699.661-.567-.017-1.135-.034-2.015-.514-.649-.483-.986-.504-1.324-.524 0 0-.04-.022-.062-.018" fill="#067CBF"></path>
        <path d="M179.283 256.721c.197-.325.669-.555 1.414-.77-.198.3-.669.583-1.414.77" fill="#3685B0"></path>
        <path d="M165.903 265.79c-.193.063-.477-.11-.84-.53.198-.066.474.114.84.53" fill="#D1F2FD"></path>
        <path d="M164.852 264.767c-.204.116-.543-.017-1.023-.388.202-.112.545.014 1.023.388" fill="#D1F2FD"></path>
        <path d="M161.779 263.463c.056-.28.285-.345.87-.458.355-.048.37.412.369.642-.356.164-.711.098-1.24-.184" fill="#D1F2FD"></path>
        <path d="M175.818 255.777c.188-.17.525-.15.974.125-.224.311-.536.249-.974-.125" fill="#3685B0"></path>
        <path d="M121.087 162.441c-.054 2.288-.054 4.164-.054 6.835-4.583-4.03-4.724-5.287-2.098-12.102 3.671.287 3.08 2.503 2.152 5.267" fill="#F5F9F9"></path>
        <path d="M122.704 177.034c.123.524-.045 1.078-.458 1.799-.108-.479.029-1.124.458-1.8" fill="#F5F9F9"></path>
        <path d="M147.38 262.822c-.14-.764.13-1.49.516-2.482 2.179.049 4.24.365 7.098.68 1.841.007 2.886.015 3.932.023.277.445.555.89.944 1.573-3.953.24-8.018.243-12.49.206" fill="#D1F2FD"></path>
        <path d="M231.449 270.355c3.465-2.454 7.03-3.84 10.219-.995 1.983 1.769 2.958 4.667 5.124 8.295l-19.3 2.204c1.388-3.483 2.534-6.358 3.957-9.504" fill="#E6F9FC"></path>
        <path d="M237.477 295.908c3.612-.165 6.803-.385 10.444-.635-3.646 4.302-14.493 3.574-18.064-1.563 2.958.88 5.079 1.512 7.62 2.198" fill="#007ED1"></path>
        <path d="M249.601 280.995c-1.679.674-3.774 1.33-6.253 1.842 1.69-.715 3.763-1.288 6.253-1.842" fill="#2D87BA"></path>
        <path d="m252.688 274.18 3.173.26c-.696.846-1.391 1.69-2.46 2.545-.482-.194-.592-.398-.763-1.148-.024-.916.013-1.286.05-1.656" fill="#FEFFFF"></path>
        <path d="M252.25 279.95c-.338.36-.97.73-1.922 1.084.329-.369.978-.72 1.922-1.084" fill="#2D87BA"></path>
        <path d="M252.531 274.14c.12.41.083.78-.074 1.401-.237-.2-.354-.65-.425-1.336.045-.234.343-.108.5-.066" fill="#2D87BA"></path>
        <path d="M223.32 270.921c-.044-.416.157-1.01.664-1.72.064.435-.177.989-.663 1.72" fill="#E6F9FC"></path>
        <path d="M240.814 282.527c-.272.262-.71.345-1.478.363.216-.223.764-.383 1.478-.363" fill="#2D87BA"></path>
        <path d="M194.833 264.364c1.99-.841 3.96-1.326 6.64-1.986 1.024 2.812.68 5.134-3.372 6.479-1.088-.322-1.56-.581-2.03-.841-.42-1.099-.84-2.198-1.238-3.652" fill="#F4FCFB"></path>
        <path d="M200.984 280.012c1.295.415 2.59.83 3.949 1.978.096 1.234.128 1.735.16 2.235 0 0 .036.412-.408.589-1.497-.151-2.55-.48-3.603-.807 0 0-.2-.366-.149-.976.05-1.413.05-2.216.05-3.02" fill="#F4FCFB"></path>
        <path d="M201.069 284.37c1.066-.035 2.119.293 3.51.62-.063 1.732-.461 3.465-1.134 6.39-1.042-2.898-1.716-4.773-2.376-7.01" fill="#E6F9FC"></path>
        <path d="M220.114 263.39c-.137 1.245-.216 2.856-.64 4.541.004-1.342.351-2.76.64-4.542" fill="#E6F9FC"></path>
        <path d="M198.159 275.274c.34-.298.638-.3 1.383-.033a.94.94 0 0 1 .446.753c0 1.1 0 2.198-.047 3.708-.64-1.103-1.232-2.616-1.782-4.428" fill="#DDF7FD"></path>
        <path d="M196.042 268.377c.5-.101.97.158 1.69.521.246 1.261.243 2.419.187 4.014-.67-1.1-1.288-2.636-1.877-4.535" fill="#DDF7FD"></path>
        <path d="M200.705 280.02c.279.795.279 1.598.238 2.803-.386-.414-.73-1.23-1.073-2.387.187-.364.371-.386.835-.417" fill="#DDF7FD"></path>
        <path d="M205.323 284.01c-.262-.285-.294-.786-.322-1.663.005-.377.418-.371.625-.37.113.607.02 1.213-.303 2.034" fill="#E6F9FC"></path>
        <path d="M298.606 269.834c1.512 3.886 6.519 6.6 3.315 11.796-1.704-.138-2.804-.39-3.905-.642 0 0-.015.013-.149-.23a3.6 3.6 0 0 0-1.116-.616s-.402-.064-.737-.387c-.677-.404-1.02-.485-1.362-.566 0 0-.357-.044-.558-.525-2.255-1.162-4.308-1.842-6.362-2.523-.567-1.475-1.135-2.951-1.467-4.919.493-.707.64-.981.677-1.315.356-.369.711-.737 1.781-1.038 3.3.38 5.885.692 8.47 1.005.378-.013.754-.025 1.413-.04" fill="#FEFFFF"></path>
        <path d="M293.52 293.926c1.584-2.37 2.89-4.496 4.196-6.622l1.362.332c-.597 2.451-.458 6.312-1.933 7.082-3.984 2.08-8.656 2.846-13.055 4.133l-.585-2.004c3.246-.892 6.491-1.785 10.015-2.92" fill="#0381CF"></path>
        <path d="M296.959 269.582c-2.35-.02-4.936-.333-7.963-.722 2.282.092 5.005.26 7.963.722" fill="#D6F5FC"></path>
        <path d="M287.957 276.41a26.5 26.5 0 0 1 5.993 2.146c-1.885-.376-3.826-1.126-5.993-2.146" fill="#CFF1FC"></path>
        <path d="M298.182 281.269c.935-.03 2.035.223 3.448.619.326 1.245.34 2.347.309 3.861-1.227-1.125-2.41-2.662-3.757-4.48" fill="#CFF1FC"></path>
        <path d="M296.372 300c-.377-.188-.381-.376-.398-.845.405-.577.824-.872 1.905-1.186 1.475-.016 2.288-.014 3.101-.011-1.412.68-2.824 1.36-4.608 2.042" fill="#F6FCFB"></path>
        <path d="M300.61 266.014c1.299 1.648 1.795 3.32-1.455 3.821.168-1.227.685-2.42 1.454-3.82" fill="#D6F5FC"></path>
        <path d="M301.08 297.746c-.913.21-1.726.207-2.944.164.448-.975 1.302-1.909 2.432-3 .558.388.84.934 1.231 1.765-.192.401-.435.593-.718 1.07" fill="#CFF1FC"></path>
        <path d="M302.081 289.327c.556-.002 1.032.325 1.509.653-.304.313-.608.626-1.195.98-.32-.408-.356-.856-.314-1.633" fill="#CFF1FC"></path>
        <path d="M301.763 292.15c.092.358-.02.919-.363 1.66-.101-.365.029-.91.363-1.66" fill="#CFF1FC"></path>
        <path d="M286.683 269.993c.223.248.075.522-.382.87-.092-.173.016-.479.382-.87" fill="#D6F5FC"></path>
        <path d="M294.803 279.42c.192-.15.534-.07 1.035.233-.189.147-.536.073-1.035-.233" fill="#CFF1FC"></path>
        <path d="M296.874 280.39c.205-.124.532.001.997.36-.2.119-.538.004-.997-.36" fill="#CFF1FC"></path>
        <path d="M318.306 268.776c.99.063 1.98.127 3.329.291-.011 8.22-.361 16.34-.799 24.454-.026.48-.757.92-1.498 1.429-.338.05-.34.049-.34-.335-1.028-1.799-2.056-3.214-3.076-5.055-.251-5.8-.51-11.174-.427-16.63.727-1.37 1.113-2.659 1.83-3.98.548-.08.764-.127.98-.174" fill="#FDFEFE"></path>
        <path d="M315.154 273.011c.258 5.375.517 10.75.514 16.818-.345 2.194-.43 3.694-.542 5.591-.041 1.46-.054 2.524-.067 3.587-.178.002-.356.004-.8-.016-.258-11.666-.249-23.31-.267-35.407.613.672 1.253 1.798 2.148 3.375.594-1.405 1.04-2.463 1.801-3.66.314 1.467.313 3.072.339 5.077-.19.447-.407.494-1.315.633-1.064 1.396-1.438 2.7-1.811 4.002" fill="#C9F2FE"></path>
        <path d="M306.448 273.361c.309 7.671.381 15.677.365 24.14-.26-7.63-.43-15.717-.365-24.14" fill="#CFF1FC"></path>
        <path d="M315.45 299.003c-.378-1.06-.365-2.122.056-3.591 1.437-.408 2.465-.41 3.493-.413L319 295c.13 2.267.017 4.342-3.55 4.002" fill="#FDFEFE"></path>
        <path d="M307.289 299.29c1.792-.299 3.803-.288 6.246-.289-1.722.193-3.874.395-6.246.289" fill="#C9F2FE"></path>
        <path d="M306.479 267.164c.246.286.309.731.278 1.503-.216-.23-.338-.787-.278-1.503" fill="#CFF1FC"></path>
        <path d="M108.222 274.932c.412 1.797.464 3.506.436 5.636-3.368 5.08-1.26 12.039 4.11 13.336 3.772.911 7.718 1.107 11.932 1.668-2.863 4.493-6.513 1.378-9.497 1.304-7.64-.191-11.693-4.37-12.182-12.07-.483-7.614-.718-15.244-.986-22.87-.055-1.541.227-3.095.354-4.643l1.864-.354c.583 2.058 1.32 4.087 1.716 6.181.736 3.888 1.273 7.814 2.253 11.812" fill="#027DCB"></path>
        <path d="M131.8 254.915c.3 11.151.246 22.153.14 33.62-1.018 1.615-1.984 2.766-3.802 4.933-.295-.763-.862-1.538-.845-2.299.155-7.036.559-14.07.58-21.105.012-3.965-.655-7.927-.837-11.9-.14-3.038.792-5.056 4.764-3.249" fill="#047CC6"></path>
        <path d="M267.308 272.13c-.316-.848-.306-1.555-.292-2.615 1.06-.493 2.116-.632 3.569-.403.402.547.407.726.411.905.091 2.558-.802 3.649-3.688 2.114" fill="#FDFEFA"></path>
        <path d="M271.22 269.906c-.228-.068-.233-.247-.245-.695.172-.316.352-.363.792-.31.157.431-.037.696-.547 1.005" fill="#E5FEFF"></path>
        <path d="M67.357 267.972c-.362.035-.412-.453-.403-1.077.003-1.384-.004-2.143-.011-2.903 2.377-.304 4.755-.608 7.536-.827.405 1.037.405 1.99.405 2.511-2.594.819-4.88 1.54-7.527 2.296" fill="#027BD0"></path>
        <path d="M159.176 260.832c-1.296.203-2.34.195-3.779.183 1.395-2.663 2.422-2.753 3.779-.183" fill="#F4FCFB"></path>
        <path d="m175 247-2.769-1.228.82-1.5c.644.663 1.288 1.326 1.94 2.359.008.37.009.369.01.369" fill="#F4FCFB"></path>
        <path d="M280.248 290.273c-.756-1.689-.85-3.823-1.838-4.386-5.954-3.393-6.36-4.046-4.568-11.521 2.9 6.838 8.766 10.095 15.72 12.04.912.254 1.695.967 2.392 1.381-3.406 5.68-7.563 3.502-11.706 2.486" fill="#FDFEFA"></path>
        <path d="M207.584 270c-.145 1.46-.708 2.92-1.423 4.691-1.14-.629-2.127-1.568-3.115-2.508 1.373-.727 2.746-1.455 4.538-2.184" fill="#FEFFFF"></path>
        <path d="M200.276 275.963c-.288.031-.289-.455-.288-.698.5-.365.998-.488 1.496-.61-.307.425-.614.851-1.208 1.308" fill="#F4FCFB"></path>
        <path d="M348.787 175.432c-.215.292-.591.34-1.398.228a15 15 0 0 0-1.398-.372s.016-.192.012-.288c-.265-.639-.526-1.182-.49-2.206.275-3.58.251-6.68.44-10.145 2.83-.122 5.448.122 8.066.365 0 0-.02-.01-.315.195-.385 3.058-3.19 5.794-.664 8.761-5.171.28-5.275.355-4.253 3.462" fill="#3B6091"></path>
        <path d="M345.74 163.015c.024 3.1.048 6.199-.277 9.481a31.5 31.5 0 0 1-1.336-9.175c.872-.315 1.243-.31 1.614-.306" fill="#C6E7FB"></path>
        <path d="M353.37 171.844c-2.856-2.84-.051-5.577.336-8.647 3.706 2.816 2.331 5.685-.336 8.647" fill="#BCDAF6"></path>
        <path d="M345.953 162.65c-.583.36-.954.356-1.603.355 3.281-3.9 5.566-4.074 9.7-.373-2.649.139-5.267-.105-8.097.017" fill="#BCDAF6"></path>
        <path d="M307.131 256.188c1.066-.003 2.139.345 3.54.79-.958-.083-2.245-.26-3.54-.79" fill="#D9F5FB"></path>
        <path d="M66.704 263.984c.246.768.253 1.527.233 2.666-.49-.532-.952-1.443-1.182-2.536.233-.182.71-.14.949-.13" fill="#1A84C2"></path>
        <path d="M117.217 203.891q-.177-.32.553-.779.182.322-.553.78" fill="#FEFFFF"></path>
        <path d="M346.167 175.453c.147-.094.469-.023.938.255-.184.194-.487.095-.938-.255" fill="#FEFFFF"></path>
        <path d="M189.002 97.012h-16.229c-.32-.661-.6-.957-.56-1.202 1.607-9.96 1.61-9.96 11.806-9.96h25.704l-1.938 11.162z" fill="#EC732B"></path>
        <path d="M318.998 294.615c-1.027.386-2.055.389-3.464.4-.296-1.492-.211-2.992.127-4.76 1.281 1.146 2.31 2.561 3.337 4.36" fill="#F6FCFB"></path>
        <path d="M315.495 272.93c.032-1.222.406-2.525 1.14-3.888-.027 1.229-.413 2.517-1.14 3.888" fill="#F6FCFB"></path>
    </g>
</svg>
