<svg preserveAspectRatio="xMidYMid meet" data-bbox="1.046 1.097 629.784 433.903" viewBox="0 0 630 434" xmlns="http://www.w3.org/2000/svg" data-type="ugc" role="presentation" aria-hidden="true" aria-label="">
    <g>
        <path d="M394 435H1.046V1.097H630.83V435zm-21.383-215.268c5.794-5.911 11.588-11.822 18-17.987 6.118-6.252 12.236-12.503 18.981-18.993 5.469-5.587 10.938-11.174 17.084-17.276.025-8.495.05-16.99.244-26.406-.059-6.026-.117-12.052-.006-19-.056-7.024-.113-14.047.003-21.994V56.527c-14.1 13.654-27.967 27.083-42.436 40.807-4.653 4.711-9.307 9.422-14.516 14.499-9.28 9.404-18.561 18.807-28.46 28.48-8.166 8.24-16.332 16.478-25.14 24.675-.419-.083-.838-.167-1.538-.843-5.346-5.208-10.692-10.416-16.456-16.187-1.36-1.176-2.814-2.261-4.066-3.543-9.673-9.905-19.276-19.878-28.994-29.738-1.15-1.167-2.87-1.774-5.028-2.898-9.248 9.022-18.496 18.045-28.303 27.374-6.115 6.24-12.229 12.48-18.944 18.983l-7.439 6.155c6.08 6.398 11.165 11.748 16.514 17.687 12.935 12.755 25.87 25.51 38.908 38.763.27.192.542.383 1.064 1.178 2.537 2.397 5.074 4.795 7.882 7.824 6.237 6.126 12.475 12.25 18.97 19.015 8.592 8.459 17.184 16.918 26.003 25.928.347.148.695.297 1.74.675 13.43-13.457 26.861-26.915 40.915-40.616 4.131-4.255 8.262-8.51 12.959-12.943.478-.613.956-1.226 2.06-2.07M223.128 72.37l-23.454-23.335v108.539l54.37-54.385a20664 20664 0 0 1-30.916-30.82M155.72 334.884c-1.547-7.934-7.268-1.295-11.268-4.624v35.547c-1.891-1.094-2.812-2.37-3.618-3.715-5.392-8.986-11.051-17.831-16.009-27.053-2.357-4.385-5.654-4.068-9.227-3.477-4.081.675-4.309 4.017-4.306 7.335.013 13.818.006 27.636.006 41.454v6.35h11.395v-34.34c1.77 1.091 2.637 2.416 3.45 3.774 5.291 8.85 10.768 17.6 15.755 26.62 1.901 3.44 4.099 4.814 7.865 4.293 1.766-.244 3.593-.042 5.958-.042zm264.185 7.799c-1.389-6.817-5.813-10.506-12.495-10.89-8.302-.478-16.642-.423-24.964-.355-3.52.029-5.598 2.299-5.617 5.786-.091 16.474-.04 32.95-.04 49.37h11.384V365.33c3.59 0 6.75-.028 9.912.006 7.698.081 9.208 1.586 9.618 9.365.213 4.055.507 8.106.758 12.064h11.359c-.274-4.807-.538-9.415-.798-14.022-.275-4.872-.664-9.69-6.169-12.29 7.24-3.867 7.833-10.172 7.052-17.77M210.924 362.5v24.162h11.211v-34.868c6.55 9.424 12.297 19.076 18.052 28.722 4.296 7.202 6.033 7.876 14.546 5.823v-54.59h-11.042v36.02c-3.828-6.413-6.98-11.685-10.126-16.962-3.234-5.424-6.74-10.71-9.605-16.324-2.22-4.35-5.746-3.314-9.007-2.868-3.48.476-4.09 3.294-4.056 6.42.086 7.82.027 15.643.027 24.465m232.873 14.643-7.7-6.785q.367-.488.737-.974H426.73c-.125 6.538 2.053 11.78 7.832 14.549 9.348 4.477 19.07 4.462 28.441.079 6.16-2.882 8.006-8.621 7.68-15.033-.31-6.078-3.821-9.718-9.535-11.363-4.307-1.24-8.664-2.314-12.934-3.669-2.832-.898-5.769-1.804-8.263-3.346-3.436-2.126-3.432-5.964-.42-8.326 3.86-3.029 13.45-2.795 16.181 1.259 3.39 5.03 7.589 4.993 12.62 4.19-.406-6.494-2.79-11.694-8.812-14.16-8.197-3.355-16.61-3.166-24.738.376-5.612 2.445-7.934 7.257-8.248 13.192-.29 5.465 2.445 9.253 6.907 11.797 2.715 1.548 5.702 2.715 8.69 3.666 4.268 1.36 8.816 1.972 12.908 3.7 1.84.778 3.995 3.51 3.95 5.303-.047 1.829-2.319 4.623-4.152 5.158-3.204.935-6.818.464-11.041.387m-94.281-45.801c-2.829 0-5.657-.009-8.486.002-7.498.028-8.532 1.062-8.544 8.765a14435 14435 0 0 0 .005 42.426c.002 1.425.168 2.85.253 4.192h38.225v-10.055H344v-14.367c4.356 0 8.343.011 12.331-.003 7.134-.026 8.651-2.005 6.916-9.497h-19.394v-11.619h26.975v-9.844zM175.81 385.946c1.133.267 2.254.62 3.402.788 12.336 1.793 26.868-5.124 26.162-21.883-.196-4.652-.029-9.319-.028-13.979v-19.109h-11.085c0 3.412.005 6.4 0 9.389-.015 8.321.148 16.648-.11 24.962-.197 6.318-4.433 10.56-10.173 10.885-5.983.339-10.662-3.612-11.605-10.016-.312-2.123-.205-4.315-.209-6.476-.019-9.597-.008-19.194-.008-28.715-9.71-1.103-11.047.014-11.052 8.708-.004 8.156.053 16.311-.013 24.466-.08 10.127 4.312 17.18 14.719 20.98m132.494.325 18.534-54.21c-10.074-2.105-11.93-1.08-14.538 7.82-1.872 6.39-3.639 12.812-5.517 19.2-1.19 4.05-2.5 8.064-4.043 13.02-.854-2.114-1.335-3.163-1.707-4.249-3.719-10.864-7.527-21.7-11.057-32.625-.984-3.045-2.419-4.362-5.647-3.945-2.087.27-4.236.05-7.106.05l19.726 55.508c3.778 0 7.256 0 11.355-.57M57.546 350.833c-1.876-5.503-3.63-11.053-5.72-16.473-.477-1.24-2.003-2.7-3.234-2.899-2.703-.438-5.527-.136-8.863-.136.674 2.172 1.097 3.725 1.633 5.237 4.89 13.781 9.8 27.554 14.7 41.332 3.358 9.446 3.354 9.45 13.383 9.018.312-.013.616-.215 1.206-.433l18.448-54.435c-10.058-2.079-11.87-1.054-14.472 7.867-1.675 5.743-3.298 11.502-4.998 17.238-1.338 4.516-2.756 9.008-4.14 13.51l-1.166-.015c-2.16-6.36-4.318-12.72-6.777-19.811m505.807-4.792c-1.83-3.91-3.562-7.873-5.547-11.703-.611-1.177-1.85-2.747-2.915-2.842-3.848-.344-7.746-.135-12.34-.135 6.225 11.211 12.014 21.464 17.586 31.832 1.042 1.94 1.623 4.33 1.714 6.54.236 5.729.08 11.474.08 16.87h11.08c0-3.716.295-7.072-.061-10.357-.773-7.12 1.404-13.22 5.059-19.236 4.958-8.161 9.345-16.67 14.087-25.226-12.066-1.347-12.222-1.265-17.071 8.582-2.326 4.721-4.656 9.44-7.32 14.842a969 969 0 0 0-4.352-9.167m-42.894 31.394V341.08h16.349v-9.75c-12.041 0-23.829-.009-35.616.004-7.864.008-9.311 1.825-7.591 9.929h15.793v45.413h11.065zm-39.892 9.56h6.442v-55.159c-8.385-1.176-10.752.088-10.789 6.05-.094 15.308.035 30.617-.094 45.924-.024 2.81 1.102 3.5 4.44 3.185m-208.77-52.088c.622-4.1-2.214-3.542-4.715-3.557-3.66-.023-6.357 1.254-6.376 5.315-.079 16.628-.033 33.257-.033 49.947h11.124zm-171.324 52.088h5.105v-55.244c-7.979-.886-10.566.168-10.615 4.89-.173 16.587-.067 33.176-.067 50.077 1.74.104 3.187.19 5.577.277" fill="#FEFEFE"></path>
        <path d="M223.369 72.63a42380 42380 0 0 0 30.675 30.56l-54.37 54.385V49.035a24834 24834 0 0 1 23.695 23.596" fill="#C8242A"></path>
        <path d="M155.721 335.346v51.661c-2.364 0-4.191-.202-5.957.042-3.766.52-5.964-.852-7.865-4.292-4.987-9.02-10.464-17.77-15.756-26.621-.812-1.358-1.68-2.683-3.45-3.775v34.34H111.3v-6.349c0-13.818.007-27.636-.006-41.454-.003-3.318.225-6.66 4.306-7.335 3.573-.591 6.87-.908 9.227 3.477 4.958 9.222 10.617 18.067 16.009 27.053.806 1.345 1.727 2.62 3.618 3.715V330.26c4 3.329 9.72-3.31 11.268 5.085" fill="#C9292F"></path>
        <path d="M419.96 343.079c.727 7.202.134 13.507-7.106 17.374 5.505 2.6 5.894 7.418 6.169 12.29.26 4.607.524 9.215.798 14.022h-11.359c-.251-3.958-.545-8.009-.758-12.064-.41-7.78-1.92-9.284-9.618-9.365-3.161-.034-6.323-.006-9.912-.006v21.265H376.79c0-16.42-.05-32.896.04-49.37.02-3.487 2.098-5.757 5.618-5.786 8.322-.068 16.662-.123 24.964.354 6.682.385 11.106 4.074 12.549 11.286m-29.262-1.994c-.944.76-2.643 1.464-2.703 2.289-.287 3.921-.129 7.876-.129 12.151 5.315 0 10.252.262 15.147-.077 4.421-.307 6.149-3.286 6.019-7.577-.129-4.247-2.41-6.435-6.444-6.69-3.63-.23-7.284-.08-11.89-.096" fill="#070707"></path>
        <path d="M210.924 362c0-8.322.059-16.145-.027-23.966-.035-3.125.576-5.943 4.056-6.42 3.26-.445 6.787-1.481 9.007 2.87 2.864 5.613 6.371 10.899 9.605 16.323 3.146 5.277 6.298 10.55 10.126 16.962v-36.02h11.042v54.59c-8.513 2.053-10.25 1.379-14.546-5.823-5.755-9.646-11.502-19.298-18.052-28.722v34.868h-11.211z" fill="#070707"></path>
        <path d="M444.187 377.241c3.833-.02 7.447.45 10.651-.485 1.833-.535 4.105-3.33 4.151-5.158.046-1.793-2.109-4.525-3.949-5.303-4.092-1.728-8.64-2.34-12.909-3.7-2.987-.951-5.974-2.118-8.689-3.666-4.462-2.544-7.197-6.332-6.907-11.797.314-5.935 2.636-10.747 8.248-13.192 8.128-3.542 16.54-3.731 24.738-.375 6.023 2.465 8.406 7.665 8.812 14.16-5.031.802-9.23.838-12.62-4.191-2.732-4.054-12.321-4.288-16.182-1.26-3.011 2.363-3.015 6.201.421 8.327 2.494 1.542 5.431 2.448 8.263 3.346 4.27 1.355 8.627 2.429 12.934 3.67 5.714 1.644 9.226 5.284 9.535 11.362.326 6.412-1.52 12.151-7.68 15.033-9.372 4.383-19.093 4.398-28.44-.08-5.78-2.767-7.958-8.01-7.833-14.548h10.103l-.738.974c2.567 2.262 5.134 4.524 8.091 6.883" fill="#090909"></path>
        <path d="M350.013 331.342h20.816v9.844h-26.975v11.619h19.394c1.735 7.492.218 9.471-6.916 9.497-3.988.014-7.975.003-12.331.003v14.367h26.968v10.055h-38.225c-.085-1.343-.251-2.767-.253-4.192a14435 14435 0 0 1-.005-42.426c.012-7.703 1.046-8.737 8.544-8.765 2.829-.01 5.657-.002 8.983-.002" fill="#080808"></path>
        <path d="M175.426 385.826c-10.022-3.68-14.415-10.733-14.334-20.86.066-8.155.009-16.31.013-24.466.005-8.694 1.343-9.81 11.052-8.708 0 9.52-.01 19.118.008 28.715.004 2.16-.103 4.353.21 6.476.942 6.404 5.621 10.355 11.604 10.016 5.74-.325 9.976-4.567 10.172-10.885.26-8.314.096-16.64.11-24.962.006-2.989.001-5.977.001-9.389h11.085v19.11c0 4.66-.168 9.326.028 13.978.706 16.759-13.826 23.676-26.162 21.883-1.148-.167-2.27-.521-3.787-.908" fill="#090909"></path>
        <path d="M307.994 386.555c-3.788.285-7.266.285-11.044.285l-19.726-55.507c2.87 0 5.02.219 7.106-.05 3.228-.418 4.663.899 5.647 3.944 3.53 10.926 7.338 21.761 11.057 32.625.372 1.086.853 2.135 1.707 4.249 1.544-4.956 2.853-8.97 4.043-13.02 1.878-6.388 3.645-12.81 5.517-19.2 2.608-8.9 4.464-9.925 14.538-7.82-6.19 18.105-12.362 36.157-18.845 54.494" fill="#0A0A0A"></path>
        <path d="M57.696 351.198a5911 5911 0 0 1 6.627 19.445l1.167.016c1.383-4.503 2.801-8.995 4.14-13.51 1.699-5.737 3.322-11.496 4.997-17.24 2.602-8.92 4.414-9.945 14.472-7.866L70.65 386.478c-.59.218-.894.42-1.206.433-10.029.432-10.025.428-13.384-9.018-4.899-13.778-9.81-27.551-14.699-41.332-.536-1.512-.96-3.065-1.633-5.237 3.336 0 6.16-.302 8.863.136 1.231.2 2.757 1.659 3.235 2.899 2.089 5.42 3.843 10.97 5.87 16.839" fill="#C9282E"></path>
        <path d="M370.526 111.468c4.654-4.712 9.308-9.423 14.614-14.127 4.373.558 8.085 1.5 11.816 1.583 9.927.223 19.863.076 29.795.075.056 7.024.113 14.047-.368 21.533-14.82.798-29.104 1.133-43.66 1.28-3.75-3.395-7.23-6.603-10.95-9.812-.242-.001-.725.004-.852-.134a13 13 0 0 0-.395-.398" fill="#1D3E76"></path>
        <path d="M563.53 346.375c1.372 2.876 2.568 5.418 4.175 8.832 2.664-5.402 4.994-10.12 7.32-14.842 4.85-9.847 5.005-9.93 17.07-8.582-4.74 8.556-9.128 17.065-14.086 25.226-3.655 6.015-5.832 12.116-5.06 19.236.357 3.285.061 6.64.061 10.357h-11.08c0-5.396.157-11.141-.079-16.87-.09-2.21-.672-4.6-1.714-6.54-5.572-10.368-11.361-20.62-17.585-31.832 4.593 0 8.49-.209 12.339.135 1.066.095 2.304 1.665 2.915 2.842 1.985 3.83 3.717 7.792 5.724 12.038" fill="#090909"></path>
        <path d="M369.993 221.981c-4.132 4.255-8.263 8.51-13.056 12.729-3.02-.593-5.371-1.595-7.738-1.634-10.73-.174-21.462-.076-32.197-.545.001-7.155.005-13.842.475-20.53 12.6 0 24.731.085 36.86-.09 1.897-.028 3.777-1.246 6.009-1.878 3.447 3.015 6.55 5.996 9.654 9.348z" fill="#1D3E76"></path>
        <path d="M317.013 165.03c8.166-8.239 16.332-16.478 25.203-24.852 10.065.517 19.424 1.168 28.784 2.288 0 8.49-.001 16.512-.39 24.485-2.887-.682-5.38-1.83-7.89-1.865-12.894-.184-25.794-.19-38.687.053-1.691.032-3.349 1.854-5.243 2.744-.497-.3-.685-.56-.892-1.138-.365-.742-.625-1.228-.885-1.715" fill="#1B427A"></path>
        <path d="M520.459 377.922v8.753h-11.065v-45.413H493.6c-1.72-8.104-.273-9.92 7.591-9.93 11.787-.012 23.575-.002 35.616-.002v9.75h-16.349z" fill="#0B0B0B"></path>
        <path d="M269.7 229.111c-2.537-2.397-5.074-4.795-7.587-7.818a184 184 0 0 1 14.058-14.97c2.6 1.112 5.012 2.515 7.455 2.57 10.782.246 21.572.103 32.364.57.004 6.825.003 13.181-.435 19.537z" fill="#1D3E76"></path>
        <path d="M426.837 98.538c-10.018.462-19.954.609-29.881.386-3.731-.083-7.443-1.025-11.515-1.73 13.515-13.584 27.383-27.013 41.482-40.667 0 13.587 0 27.568-.086 42.01" fill="#213A6F"></path>
        <path d="m221.852 181.39-16.249-17.099c2.193-1.814 4.816-3.985 8.192-6.25 5.498.256 10.24.84 14.988.911 10.404.156 20.81.051 31.216.3l.001 1.208c0 6.16 0 11.85-.47 17.54-10.272 0-20.076-.04-29.879.024-3.017.02-6.415-.561-7.799 3.366" fill="#1D3E76"></path>
        <path d="M317.005 233c10.732 0 21.465-.098 32.194.076 2.367.039 4.718 1.04 7.427 1.756-13.08 13.614-26.511 27.072-40.278 40.13-.337-.59-.338-.78-.338-1.386.001-1.799.002-3.183.293-4.866.428-12.103.565-23.906.702-35.71" fill="#213A6F"></path>
        <path d="M221.985 181.684c1.251-4.221 4.65-3.64 7.666-3.66a1066 1066 0 0 1 29.986.197c.77.498 1.03.688 1.354 1.247-.321 6.483-.643 12.51-.97 19.004.318 6.159.643 11.85.967 17.965a768 768 0 0 1-.066 3.806c-12.935-12.755-25.87-25.51-38.937-38.56" fill="#1F386D"></path>
        <path d="m259.999 159.991.002-1.073c0-1.023 0-1.467.287-2.181.436-2.427.585-4.585 1.201-6.741 10.538.002 20.609.09 30.676-.063 2.216-.034 4.42-.92 6.629-1.412 5.347 5.208 10.693 10.416 16.146 16.295.097 1.172.086 1.673-.18 2.178-.423.004-.593.005-1.23.006-17.491 0-34.513 0-51.536-.423-.665-2.478-1.33-4.532-1.995-6.586" fill="#1D3C73"></path>
        <path d="M426.004 165.99c-5.468 5.588-10.937 11.175-17.186 16.883-12.793.124-24.805.127-36.819-.338 0-5.824.002-11.18.421-16.534h13.527c10.813 0 21.629.095 32.439-.09 1.885-.033 3.749-1.249 5.888-1.797.753.706 1.242 1.291 1.73 1.877" fill="#1B427A"></path>
        <path d="M298.586 148.24c-2.001.774-4.205 1.659-6.42 1.693-10.068.152-20.14.065-30.683-.405-.477-9.16-.481-17.849-.484-26.995l-.007-10.496c1.455.866 3.174 1.473 4.325 2.64 9.718 9.86 19.321 19.833 28.994 29.738 1.252 1.282 2.706 2.367 4.275 3.824" fill="#1F386D"></path>
        <path d="M260 157.007v1.665a667 667 0 0 1-31.217.28c-4.749-.07-9.49-.655-14.688-1.043a296 296 0 0 1 18.595-18.84c9.572.589 18.44 1.26 27.309 2.398z" fill="#19437C"></path>
        <path d="M269.835 229.427c15.004-.353 30.144-.39 45.723.042.437 6.49.435 12.514.01 18.525-9.243.034-18.064.08-26.885.125-6.237-6.125-12.475-12.25-18.848-18.692" fill="#19437C"></path>
        <path d="M382.995 122c14.284-.335 28.567-.67 43.303-1.007.511 6.025.57 12.051.091 18.54-6.525.464-12.513.497-18.5.451-2.158-.016-4.14.006-4.19 2.87-7.1-7.047-13.903-13.95-20.704-20.854" fill="#1C447D"></path>
        <path d="M480.108 386.995c-2.88.316-4.006-.375-3.982-3.185.129-15.307 0-30.616.094-45.924.037-5.962 2.404-7.226 10.789-6.05v55.159z" fill="#090909"></path>
        <path d="M271.796 335.365v51.247h-11.124c0-16.69-.046-33.32.033-49.947.019-4.061 2.715-5.338 6.376-5.315 2.5.015 5.337-.543 4.715 4.015" fill="#0A0A0A"></path>
        <path d="M100 386.995a320 320 0 0 1-5.105-.277c0-16.901-.106-33.49.067-50.077.049-4.722 2.636-5.776 10.615-4.89v55.244z" fill="#C8242A"></path>
        <path d="M372 183.002c12.013-.002 24.025-.005 36.504-.01a294 294 0 0 1-18.611 18.825c-6.447-.223-12.17-.518-17.894-1.282z" fill="#194680"></path>
        <path d="M371 141.998c-9.36-.652-18.72-1.303-28.475-1.954 8.885-9.404 18.165-18.807 27.724-28.394.277-.182.546.078.657.684.106 10.292.1 19.978.094 29.664" fill="#1A4B86"></path>
        <path d="M259.998 141a6585 6585 0 0 1-27.029-2.084 728 728 0 0 1 27.672-27.008c.353 3.475.356 6.822.063 10.922-.432 6.56-.57 12.365-.706 18.17" fill="#154884"></path>
        <path d="M288.812 248.439c8.692-.366 17.513-.411 26.76.023.43 7.169.435 13.858.44 20.547 0 1.384 0 2.768-.326 4.59-.54.47-.754.503-.969.536-8.592-8.46-17.184-16.918-25.905-25.696" fill="#154884"></path>
        <path d="M404 142.996c-.25-3.006 1.73-3.028 3.888-3.012 5.988.046 11.976.013 18.417.01.428 8.493.402 16.987.038 25.74-.827-.329-1.316-.914-2.217-1.918-5.98-5.885-11.546-11.351-17.249-17.102a109 109 0 0 0-2.877-3.718" fill="#1A4B86"></path>
        <path d="M260.973 220.492c-.03-1.377-.008-2.504.019-4.524.009-6.25.013-11.606.447-16.965 7.152.002 13.873.006 20.55.352-2.026 2.441-4.01 4.541-5.993 6.64-4.62 4.891-9.24 9.782-14.009 14.997-.42.132-.691-.06-1.014-.5" fill="#154884"></path>
        <path d="M372 201.003c5.723.296 11.446.591 17.584.941-5.379 5.966-11.173 11.877-17.276 17.438-.308-6.36-.308-12.37-.308-18.379" fill="#1A4B86"></path>
        <path d="M371.999 200.535c0 6.478 0 12.487-.003 18.962-.482 1.079-.96 1.692-1.72 2.394-.28-.653-.278-1.396.025-2.803.432-10.472.563-20.28.698-30.556.002-7.49 0-14.511-.001-21.532l.002-24.534c.006-10.154.012-19.84.033-29.994.015-.468.498-.473.732-.004.238 11.823.241 23.176.24 34.997-.004 6.49-.003 12.513-.003 18.535L372 182.535z" fill="#294B7F"></path>
        <path d="M316.303 268.71c-.296-6.39-.302-13.08-.31-20.237l.002-19.004c-.002-6.825-.001-13.181-.001-20.475.001-12.9.043-24.864-.038-36.828-.011-1.727-.613-3.45-.941-5.176.01-.501.022-1.002.065-1.878.453-.29.872-.207 1.613-.103.58.508.84.994.905 2.028-.327 8.687-.46 16.827-.593 25.435 0 6.822.002 13.176.005 19.53-.003 6.687-.007 13.374-.008 20.53-.134 12.272-.27 24.075-.699 36.178" fill="#294B7F"></path>
        <path d="M314.83 274.41c.102-.308.316-.34.855-.395.325.167.326.356.314.831-.36.137-.708-.012-1.168-.436" fill="#294B7F"></path>
        <path d="M391.18 341.085c4.124.016 7.778-.135 11.408.095 4.035.256 6.315 2.444 6.444 6.691.13 4.29-1.598 7.27-6.02 7.577-4.894.339-9.83.077-15.146.077 0-4.275-.158-8.23.129-12.151.06-.825 1.76-1.53 3.185-2.29" fill="#F4F4F4"></path>
        <path d="M372.01 146.996c-.004-11.352-.007-22.705-.003-34.526 3.486 2.739 6.966 5.947 10.717 9.342 7.072 7.091 13.874 13.995 20.976 21.041 1.214 1.287 2.128 2.432 2.76 3.914-11.671.302-23.061.265-34.45.23" fill="#1E376C"></path>
        <path d="M317.477 212.001c-.47-6.353-.472-12.707-.004-19.53 6.024-.47 11.597-.225 17.125-.61 1.86-.13 3.607-1.862 5.705-2.717 6.766 7.048 13.232 13.951 19.698 20.854-1.887.667-3.767 1.885-5.664 1.913-12.129.175-24.26.09-36.86.09" fill="#19437D"></path>
        <path d="M360.346 210.033c-6.811-6.938-13.277-13.841-20.153-21.147-.679-.895-.948-1.387-.871-2.055 8.566-.725 16.784-1.581 25.007-1.62 2.216-.01 4.444 2.459 6.666 3.79-.131 9.807-.262 19.615-.694 29.716-3.404-2.688-6.508-5.67-9.955-8.684" fill="#1E376C"></path>
        <path d="M370.999 188.532c-2.226-.862-4.454-3.332-6.67-3.321-8.223.039-16.441.895-25.351 1.585-1.95-.88-3.316-1.793-4.45-2.937-5.208-5.256-10.35-10.576-15.517-15.874 1.673-.992 3.33-2.814 5.022-2.846 12.893-.243 25.793-.237 38.688-.053 2.509.035 5.002 1.183 7.89 1.865.388 7.07.39 14.091.388 21.58" fill="#1D3C73"></path>
        <path d="M318.79 167.883c5.387 5.4 10.53 10.72 15.738 15.976 1.134 1.144 2.5 2.057 4.103 3.113.614.527.883 1.019 1.263 1.77-1.69 1.257-3.437 2.99-5.296 3.12-5.528.384-11.1.139-17.124.14-.335-8.138-.203-16.278.23-24.71.4.032.589.291 1.086.59" fill="#154884"></path>
        <path d="M314.76 166.994c.583 1.721 1.185 3.445 1.196 5.172.081 11.964.04 23.928.033 36.36-10.79.47-21.581.613-32.363.368-2.443-.056-4.855-1.46-7.455-2.57 1.808-2.428 3.792-4.528 6.16-7.007 5.481-5.691 10.576-11.003 16.017-16.353 5.446-5.346 10.548-10.655 15.65-15.964.17 0 .339-.002.762-.006" fill="#1F386D"></path>
        <path d="M260 160.46c.664 1.585 1.329 3.639 1.994 6.577 0 4.575 0 8.265-.25 11.958l-.754.017c-.324-.103-.583-.293-.884-.791-.106-5.911-.105-11.602-.106-17.76" fill="#294B7F"></path>
        <path d="M260.991 179.468c.167-.46.334-.465.838-.086 4.261.97 8.176 1.97 12.111 2.056 7.122.156 14.256-.303 21.385-.304.893 0 1.785 1.215 2.677 1.868-5.095 5.312-10.19 10.624-15.627 15.973-7.063.034-13.784.03-21.043-.19-.73-.49-.986-.678-1.306-.78.322-6.027.644-12.054.965-18.537" fill="#18447F"></path>
        <path d="M260.02 198.472c.326-.365.582-.176.882.315.103 5.575.099 10.932.09 16.758q-.493-7.834-.972-17.073" fill="#294B7F"></path>
        <path d="M298.348 182.964c-1.238-.615-2.13-1.83-3.023-1.83-7.129.001-14.263.46-21.385.304-3.935-.086-7.85-1.085-11.86-2.06-.086-4.076-.086-7.766-.085-11.916 17.022-.461 34.044-.462 51.534-.462-4.633 5.31-9.735 10.618-15.181 15.964" fill="#1A4078"></path>
        <path d="M259.999 141.467c.136-6.272.273-12.077.705-18.18.298 8.392.302 17.082.312 26.24-.143 2.625-.292 4.783-.728 7.21-.288-4.754-.288-9.779-.289-15.27" fill="#294B7F"></path>
        <path d="M372.005 147.465c11.394-.433 22.784-.396 34.59-.413 5.985 5.413 11.552 10.879 17.266 16.643-1.726.967-3.59 2.183-5.475 2.215-10.81.186-21.626.09-32.44.09-4.369 0-8.739.002-13.526.001-.418-6.023-.419-12.045-.415-18.536" fill="#1D3C73"></path>
    </g>
</svg>
