<svg preserveAspectRatio="xMidYMid meet" data-bbox="1.062 1 208.909 126" viewBox="0 0 209 126" xmlns="http://www.w3.org/2000/svg" data-type="ugc" role="presentation" aria-hidden="true" aria-label="">
    <g>
        <path d="M185 1h24.971v126c-12.323 0-24.678 0-37.522-.37-3.1-4.525-5.711-8.68-8.326-13.135a45 45 0 0 0-.145-1.837c-.99-1.485-1.95-2.626-2.923-4.136-2.002-3.773-3.99-7.179-6.003-10.954-2.774-5.818-5.466-11.298-8.352-16.674-.331-.617-1.747-.652-2.659-1.323-.012-1.102-.026-1.836-.008-2.891.058-.749.084-1.177.38-1.766.696-1.083 1.119-2.007 1.857-3.083 7.154-12.695 13.992-25.237 21.032-37.903.46-.351.572-.637.584-1.323.11-1.036.173-1.727.573-2.506.875-.456 1.635-.702 1.915-1.212C175.284 18.944 180.136 9.97 185 1" fill="#FFFFFF"></path>
        <path d="M37 127H1.062V1c8.708 0 17.354 0 26.476.358A654 654 0 0 1 42.05 28.239c.595 3.125.744 6.087 2.007 8.454.964 1.806 3.341 2.856 5.34 4.405.512.7.77 1.238.69 1.976-.124 2.552-.578 5.255.435 7.19 2.95 5.632 6.42 10.997 9.821 16.382 1.42 2.248 3.177 4.282 4.707 6.762-1.644 3.125-3.215 5.902-5.115 8.677-.452.662-.575 1.326-.803 2.331-7.016 12.917-13.953 25.476-20.796 38.087-.73 1.345-.904 2.99-1.336 4.497" fill="#FFFEFE"></path>
        <path d="M42.083 27.821c-4.69-8.702-9.38-17.403-14.076-26.463C50.02 1 72.042 1 94.624 1.333c1.884 2.403 3.208 4.473 4.463 6.838-.05.495-.032.696-.058 1.273-1.003 3-1.658 5.788-2.97 8.22C89.202 30.37 82.225 43.013 75.188 55.62c-2.884 5.167-6.026 10.19-9.185 14.97-1.15-2.298-2.168-4.285-3.127-6.65-.593-1.23-1.245-2.084-1.884-2.937.014 0 0 .024.004-.284-.342-.777-.686-1.246-1.01-1.713.022.003-.004.038-.006-.278-.38-.766-.76-1.216-1.092-1.667.047-.001.022.089-.015-.16-.27-.476-.504-.705-.862-1.075-.125-.14-.153-.516-.108-.914-1.99-5.254-3.713-10.275-6.181-14.9-1.394-2.612-4.01-4.571-6.334-7.025-1.273-1.855-2.29-3.51-3.305-5.165" fill="#D3171B"></path>
        <path d="M164 127c-19.688 0-39.375 0-59.51-.362 1.48-4 3.325-7.683 5.348-11.267a574 574 0 0 1 10.317-17.506c.43-.41.611-.716.783-1.23-.01-.208.026-.623.38-.662 4.312-3.088 6.694-6.954 6.625-12.464 1.976-4.082 3.94-7.8 6.089-11.214 3.764 6.649 7.336 12.997 10.92 19.338 5.344 9.455 10.697 18.904 16.046 28.361 0 .006.008.012.012.298.338.732.672 1.177 1.055 1.965.678 1.81 1.307 3.276 1.935 4.743" fill="#D2171B"></path>
        <path d="M149 1c7.354 0 14.708 0 22.56.365-3.527 7.804-7.552 15.241-11.572 22.682-8.04 14.877-16.076 29.756-24.358 44.832-.758.556-1.272.913-1.996 1.211-.21-.06-.612-.233-.61-.588-.613-1.422-1.23-2.488-1.89-3.574-.043-.019-.1-.094-.204-.285-.29-.427-.527-.588-1.103-.887-.485-1.386-.683-2.558-.891-4.094-1.997-4.789-3.983-9.215-5.659-13.795 2.624-4.122 5.018-8.045 7.235-12.066C136.714 23.556 142.842 12.27 149 1" fill="#737171"></path>
        <path d="M133.022 69.857s.402.173.63.54c.215.776.204 1.185.193 1.594a3606 3606 0 0 1-6.195 11.699c-2.433 4.47-4.56 8.396-6.686 12.322 0 0-.035.415-.25.762-.413.63-.612.913-.81 1.196-3.361 5.797-6.772 11.566-10.066 17.401-2.023 3.584-3.869 7.267-5.816 11.267-2.064.362-4.105.362-6.617-.006-3.167-4.786-5.864-9.205-8.526-13.996.059-1.12.084-1.867.335-2.728.422-.38.62-.646 1.19-.916 5.642-2.343 6.086-7.185 6.634-12.348 3.18-6.12 6.239-11.932 9.49-17.634 2.702-4.739 5.63-9.348 8.8-14.062 3.233-2.756 6.535-5.242 5.67-10.333.033-.852.063-1.34.443-1.752 1.465 1.414 2.547 2.782 3.702 4.086 1.232 1.39 2.533 2.72 3.803 4.077.198 1.172.396 2.344.949 3.951.538.722.8.862 1.14.857 0 0 .056.075.048.44.641 1.438 1.29 2.51 1.94 3.583" fill="#DC592F"></path>
        <path d="M37.469 127c-.037-1.506.137-3.152.867-4.497 6.843-12.61 13.78-25.17 21.028-38.26a16 16 0 0 0 .9-2.156c1.57-2.777 3.142-5.554 5.023-8.708.31-.376.783-.42 1.087-.268a367 367 0 0 1 9.658 18.297c-.23 1.516-.188 2.783-.714 3.737-4.603 8.346-9.385 16.594-13.928 24.972-1.142 2.107-1.611 4.579-2.39 6.883z" fill="#989696"></path>
        <path d="M148.531 1c-5.688 11.27-11.817 22.556-18.019 33.801-2.217 4.02-4.611 7.944-7.496 11.84-4.058-6.598-7.545-13.124-10.996-20.008.717-1.661 1.41-2.958 2.08-4.268Q119.551 11.684 125 1z" fill="#7F7F7F"></path>
        <path d="M135.875 68.68q12.055-22.317 24.113-44.633c4.02-7.44 8.045-14.878 12.04-22.682 1.686-.365 3.4-.365 5.545.077 1.453 6.32-2.791 10.159-5.235 14.628-2.27 4.151-6.245 7.625-4.216 13.116-.063.692-.126 1.383-.54 2.43-.758.357-1.166.36-1.62.048-.526-.56-1.409-1.047-1.429-1.014-2.544 4.224-4.676 8.748-7.612 12.67-2.636 3.524-1.736 8.236-5.465 11.678-2.362 2.18-3.588 5.797-7.168 7.121-.287.107-.197 1.231-.504 1.99-.498.31-.683.575-.774 1.152.002.248-.003.743-.338.79-.114 1.016.107 1.982.328 2.95v.394c.38 1.823.76 3.251 1.142 4.68-.025.428-.05.856-.485 1.604-1.163.318-1.916.315-2.867.041-1.77-2.528-3.342-4.783-4.915-7.04" fill="#C1C1C2"></path>
        <path d="M59.469 127c.31-2.304.78-4.776 1.921-6.883 4.543-8.378 9.325-16.626 13.928-24.972.526-.954.485-2.221.967-3.643.747-.075 1.235.15 1.839.726 2.386 5.138 4.655 9.926 6.937 15.05.916 1.145 1.819 1.952 3.023 2.76.503-.005.704-.011.905-.017-.026.748-.051 1.495-.438 2.67-.757 1.389-1.151 2.35-1.855 3.47-2.105 3.72-3.9 7.28-5.696 10.839z" fill="#817F7D"></path>
        <path d="M124.532 1c-3.165 7.122-6.796 14.245-10.433 21.365a171 171 0 0 1-2.327 4.371c-.748.724-1.214.986-1.843.942-3.727-6.407-7.291-12.509-10.856-18.61-.018-.201-.037-.402.374-.874C101.584 5.615 103.292 3.308 105 1z" fill="#989795"></path>
        <path d="M168.46 29.1c-2.367-5.405 1.608-8.879 3.878-13.03 2.444-4.47 6.688-8.308 5.664-14.628C180.042 1 182.083 1 184.562 1c-4.426 8.969-9.278 17.944-14.188 26.887-.28.51-1.04.756-1.915 1.212" fill="#CFCFCF"></path>
        <path d="M164.375 127c-1.003-1.467-1.632-2.934-2.327-5.032-.392-1.074-.717-1.518-1.042-1.962 0 0-.009-.006 0-.445-1.998-6.449-4.006-12.46-6.01-18.795.03-1.492.055-2.66.08-3.828 1.988 3.405 3.977 6.81 5.954 10.986.986 1.873 1.983 2.976 2.98 4.079.037.397.073.795.068 1.94.946 4.851 1.934 8.954 2.922 13.057z" fill="#D6C4C5"></path>
        <path d="M87.006 116.003c.394-.962.788-1.923 1.51-2.94 3.025 4.364 5.722 8.783 8.452 13.57-2.339.367-4.71.367-7.524-.053-1.482-3.733 2.897-8.109-2.438-10.577" fill="#787066"></path>
        <path d="M86.696 116.162c5.645 2.31 1.266 6.685 2.304 10.418-2.37.42-4.741.42-7.556.42 1.351-3.56 3.147-7.12 5.252-10.838" fill="#7D6E6F"></path>
        <path d="M167.417 127c-1.405-4.103-2.393-8.206-3.336-12.757 2.657 3.707 5.268 7.862 7.9 12.387-1.37.37-2.759.37-4.564.37" fill="#CFD6D4"></path>
        <path d="M104.546 1c-1.254 2.308-2.962 4.615-5.03 6.9-1.684-2.094-3.008-4.164-4.424-6.567C98.031 1 101.062 1 104.546 1" fill="#CAC9C6"></path>
        <path d="M144.005 64.001c.086-.65-.004-1.775.283-1.882 3.58-1.324 4.806-4.94 7.168-7.12 3.73-3.443 2.829-8.155 5.465-11.678 2.936-3.923 5.068-8.447 7.612-12.671.02-.033.903.454 1.546 1.251.449.752.735.951 1.02 1.15-6.837 12.543-13.675 25.085-21.1 37.657-1.39-.55-2.195-1.129-2.999-1.708l.002-.374.005-2.622s.005-.495.222-.855c.489-.56.676-.823.776-1.148" fill="#D1D1D1"></path>
        <path d="M155.052 96.568c0 1.538-.026 2.706-.42 4.132-1.459-1.21-2.684-2.598-3.609-4.164-1.444-2.446-2.686-5.012-4.015-7.94.242-3.506.07-6.329-4.027-6.847-.002-.243-.007-.729.249-.902.44-.752.625-1.33.81-1.91.913.305 2.329.34 2.66.957 2.886 5.376 5.578 10.856 8.352 16.674" fill="#CCD6D5"></path>
        <path d="M144.041 78.571c-.186.946-.37 1.524-1.053 2.11-.673-.543-.848-1.091-1.117-1.87-.289-.516-.551-.71-.883-1.147v-1.672c.753.002 1.506.005 2.636.007.39.736.405 1.47.417 2.572" fill="#C1C9C7"></path>
        <path d="M143 69.395c.804.184 1.609.764 2.684 1.466-.152 1.046-.575 1.97-1.27 3.053-.653-1.268-1.035-2.696-1.415-4.52" fill="#C1C9C7"></path>
        <path d="M163.978 111.658c-.965-.758-1.962-1.861-2.934-3.366.984.74 1.943 1.88 2.934 3.366" fill="#CFD6D4"></path>
        <path d="M167.302 32.928c-.488-.076-.774-.275-1.177-.711.291-.24.7-.244 1.41-.258.34.332.228.618-.233.969" fill="#CFCFCF"></path>
        <path d="M66.07 72.959s-.474.044-.71.072c-1.84-2.103-3.597-4.137-5.017-6.385-3.4-5.385-6.872-10.75-9.82-16.382-1.014-1.935-.56-4.638-.21-6.954 2.892 4.024 5.218 8.012 7.545 12 0 0 .028.374.147.78.381.625.643.842.905 1.059 0 0 .025-.09.023.206.348.76.699 1.224 1.05 1.688 0 0 .025-.035.006.265.321.774.662 1.246 1.004 1.718 0 0 .013-.024.026.302.608 1.213 1.203 2.1 1.798 2.988 1.018 1.988 2.035 3.975 3.134 6.614.094 1.11.107 1.57.12 2.029" fill="#FAF0EC"></path>
        <path d="M57.903 54.91c-2.372-3.588-4.698-7.576-7.25-11.8-.485-.774-.744-1.312-1.302-2.368-1.435-2.864-2.57-5.21-3.705-7.556 2.065 2.254 4.682 4.213 6.076 6.825 2.468 4.625 4.192 9.646 6.181 14.9" fill="#B42B30"></path>
        <path d="M45.388 32.986A93 93 0 0 1 49.1 40.58c-1.7-1.03-4.078-2.081-5.042-3.887-1.263-2.367-1.412-5.33-2.007-8.454 1.049 1.237 2.065 2.892 3.338 4.747" fill="#FAF0EC"></path>
        <path d="M59.935 82.085c.141.548-.047 1.095-.466 1.815-.11-.49.014-1.153.466-1.815" fill="#FAF0EC"></path>
        <path d="M66.374 73.11c-.316-.61-.329-1.07-.29-1.87 3.078-5.43 6.22-10.454 9.104-15.621 7.037-12.607 14.014-25.249 20.87-37.954 1.313-2.433 1.968-5.22 2.97-8.221 3.61 5.725 7.174 11.827 10.87 18.569.114 1.088.095 1.535-.272 1.945-2.698-2.681-5.047-5.325-7.397-7.969l-1.606 1.154c.877 1.538 1.963 2.999 2.572 4.637.62 1.668 1.385 3.654 1.012 5.25-1.108 4.74-2.744 9.358-4.195 14.318-.348.748-.673 1.203-1.325 1.698-.768.697-1.21 1.354-1.652 2.41-.363 1.967-.403 3.708-1.138 5.076-5.19 9.655-10.586 19.2-15.757 28.864-1.057 1.975-1.44 4.311-2.133 6.481-.487-.225-.975-.45-1.714-.769-3.374-6.011-6.494-11.928-9.919-17.997" fill="#E37D60"></path>
        <path d="M62.876 63.94c-.654-.511-1.25-1.399-1.871-2.612.626.527 1.278 1.381 1.871 2.612" fill="#B42B30"></path>
        <path d="M60.996 60.718q-.516-.247-1.03-1.412.517.248 1.03 1.412" fill="#B42B30"></path>
        <path d="M59.98 58.727c-.348-.148-.699-.612-1.094-1.37.334.154.713.604 1.094 1.37" fill="#B42B30"></path>
        <path d="M58.873 56.9c-.225.032-.487-.185-.743-.668.24-.037.473.192.743.669" fill="#B42B30"></path>
        <path d="M140.79 75.72c.197.718.197 1.164.3 2.169.299.837.556 1.035.875 1.152.175.549.35 1.097.767 1.812.242.167.247.653.283 1.249 1.355 2.7 2.675 4.804 3.995 6.908 1.327 2.514 2.569 5.08 4.013 7.526.925 1.566 2.15 2.954 3.605 4.489 2.372 6.077 4.38 12.087 6.379 18.53-5.358-9.018-10.71-18.467-16.055-27.922-3.584-6.34-7.156-12.69-10.92-19.338-.176-.713-.165-1.122-.17-1.838.496-.665 1.01-1.022 1.768-1.578 1.818 2.058 3.39 4.313 5.16 6.841" fill="#D7BCB9"></path>
        <path d="M121.318 95.973c1.773-3.887 3.899-7.813 6.318-11.92.376 4.966-2.006 8.832-6.318 11.92" fill="#CC1D13"></path>
        <path d="M161.01 120.292c.321.158.646.602.989 1.334-.317-.157-.651-.602-.989-1.334" fill="#D7BCB9"></path>
        <path d="M120.155 97.865c-.053-.178.146-.461.568-.883.043.167-.137.472-.568.883" fill="#CC1D13"></path>
        <path d="M109.974 29.995c.019-.447.038-.894.088-1.676.496-.597.962-.859 1.675-1.225 3.734 6.423 7.221 12.95 10.97 19.702a271 271 0 0 1 6.229 13.866c-1.26-.993-2.561-2.323-3.793-3.713-1.155-1.304-2.237-2.672-3.699-4.457-3.35-6.712-6.331-12.99-9.419-19.213-.18-.362-1.227-.294-1.902-.78-.07-1.072-.11-1.788-.149-2.504" fill="#997969"></path>
        <path d="M133.025 69.502c-.652-.717-1.3-1.79-1.899-3.209.668.72 1.285 1.787 1.899 3.209" fill="#997969"></path>
        <path d="M130.93 65.643c-.236.196-.497.056-.748-.452.22-.136.458.025.748.452" fill="#997969"></path>
        <path d="M110.154 32.853c.644.132 1.691.064 1.871.426a585 585 0 0 1 9.069 19.138c-.033.859-.063 1.346-.441 2.256-2.122 3.721-3.895 7.022-5.668 10.322-2.828 4.667-5.755 9.276-8.457 14.015-3.251 5.702-6.31 11.515-9.843 17.697-2.478 4.374-4.567 8.33-6.655 12.288a5.3 5.3 0 0 1-.816.913c-.426.119-.627.125-1.092-.207-1.2-1.145-2.137-1.952-3.073-2.76a1940 1940 0 0 1-6.925-14.713c.576-2.52.959-4.857 2.016-6.832 5.17-9.665 10.567-19.209 15.757-28.864.735-1.368.775-3.109 1.453-5.136a872 872 0 0 1 1.663-2.39c.326-.455.65-.91 1.352-1.734 1.125-1.575 1.836-2.807 2.632-3.982 2.368-3.491 4.769-6.96 7.157-10.437" fill="#DF6E33"></path>
        <path d="M90.405 108.992c1.713-3.954 3.802-7.911 6.243-11.93-.158 4.745-.602 9.587-6.243 11.93" fill="#D96126"></path>
        <path d="M115.328 64.948q2.145-4.878 5.32-9.91c1.215 4.668-2.087 7.154-5.32 9.91" fill="#DB5D23"></path>
        <path d="M142.672 66.052c.334.701.333 1.45.33 2.574-.223-.593-.444-1.56-.33-2.574" fill="#C1C9C7"></path>
        <path d="M143.784 64.11q.18.322-.557.792-.19-.328.557-.793" fill="#C1C9C7"></path>
        <path d="M85.06 107.279c.925.47 1.862 1.277 2.76 2.42-.94-.47-1.843-1.276-2.76-2.42" fill="#7D6E6F"></path>
        <path d="M147.008 88.597c-1.318-1.691-2.638-3.796-3.99-6.253 4.06-.077 4.232 2.746 3.99 6.253" fill="#C1C9C7"></path>
        <path d="M141.871 78.811c-.225.113-.482-.085-.78-.588q.345-.184.78.588" fill="#C1C1C2"></path>
        <path d="M110.123 32.498c-2.357 3.833-4.758 7.301-7.126 10.792-.796 1.175-1.507 2.407-2.61 3.688 1.076-4.59 2.712-9.207 3.82-13.949.373-1.595-.392-3.581-1.012-5.25-.61-1.637-1.695-3.098-2.572-4.636l1.606-1.154c2.35 2.644 4.7 5.288 7.397 7.969.388.753.427 1.469.497 2.54" fill="#E27D57"></path>
        <path d="M98.687 49.046c-.123.604-.572 1.247-1.336 1.95.126-.596.568-1.253 1.336-1.95" fill="#E27D57"></path>
    </g>
</svg>
