<svg preserveAspectRatio="xMidYMid meet" data-bbox="1.08 1.123 183.92 147.86" viewBox="0 0 184 148" xmlns="http://www.w3.org/2000/svg" data-type="ugc" role="presentation" aria-hidden="true" aria-label="">
    <g>
        <path d="M185 98v50.983H1.08V1.129c61.253 0 122.587 0 183.92-.006 0 26.976 0 53.958-.346 81.564-.877-.01-1.363-.69-1.944-1.273-3.952-3.97-11.163-4.937-16.013-2.174-4.904 2.795-7.286 9.64-5.459 15.689 1.746 5.78 5.816 8.35 12.364 8.54 4.897.143 8.161-2.482 11.398-5.469m-167.092-.648v5.17h7.886V92.01c2.707 0 4.702.155 6.665-.03 6.064-.569 10.512-5.79 10.254-11.873-.247-5.834-4.018-9.25-10.586-9.401-4.626-.106-9.256-.02-14.22-.02zm73.437-18.915c-1.16.721-3.301 1.408-3.328 2.169-.255 7.265-.152 14.543-.152 21.884h7.454c0-4.946.106-9.597-.037-14.24-.095-3.076 1.757-4.607 4.177-4.15 1.389.263 3.214 2.65 3.36 4.219.444 4.72.16 9.509.16 14.173h7.751c0-5.923.328-11.578-.087-17.177-.462-6.248-5.441-9.178-10.92-6.88-1.211.508-2.314 1.274-2.765 1.527-1.98-.633-3.374-1.08-5.613-1.525m-12.722 1.324c-1.037-.505-2.025-1.232-3.121-1.48-5.28-1.192-10.479-.935-14.12 3.541-3.79 4.663-3.549 10.247-1.307 15.471 2.296 5.35 7.213 6.32 12.487 6.086 4.985-.222 8.787-2.546 10.24-7.273 1.778-5.785 1.58-11.499-4.179-16.345m48.339 23.476 11.322-1.066V95.42c-9.105 4.545-14.365 3.414-15.563-3.468h15.85c.88-8.986-1.987-13.445-8.843-14.138-7.918-.8-13.635 3.193-14.607 10.2-1.203 8.68 2.242 13.398 11.841 15.223m16.272-13.717v12.96h7.41c0-4.164.31-8.009-.081-11.78-.46-4.432 1.728-5.553 5.473-5.434.964.03 1.93.005 3.103.005v-7.477l-8.013 3.121c-1.542-4.613-4.89-1.984-7.892-2.224zm-96.316-7.707v20.722h6.892V78.042c-2.443 1.654-6.092-2.094-6.892 3.772m2.327-19.76c3.835-5.404 3.948-8.02.94-11.981-1.926 3.667-4.027 7.555-6.023 11.497-2.56 5.055-1.206 8.68 3.147 10.06.496-2.906 1.003-5.88 1.936-9.576" fill="#FEFEFE"></path>
        <path d="M185 97.534c-3.237 3.453-6.5 6.078-11.398 5.935-6.548-.19-10.618-2.76-12.364-8.54-1.827-6.05.555-12.894 5.46-15.689 4.849-2.763 12.06-1.795 16.012 2.174.581.584 1.067 1.262 1.944 1.742.346 4.533.346 9.223.346 14.378m-14.519-13.702c-.493 3.75-1.702 7.586-1.275 11.229.419 3.567 5.005 4.405 6.381 2.296 1.886-2.89 2.24-7.252 2.022-10.91-.211-3.537-3.353-3.994-7.128-2.615" fill="#080808"></path>
        <path d="M17.908 96.87V70.685c4.963 0 9.593-.085 14.219.021 6.568.15 10.339 3.567 10.586 9.4.258 6.084-4.19 11.305-10.254 11.875-1.963.184-3.958.029-6.665.029v10.512h-7.886zm15.157-11.91c.297-2.128 1.591-5.204.67-6.175-1.631-1.717-4.61-2.154-7.7-3.398v11.22c2.3-.434 4.32-.814 7.03-1.647" fill="#0A0A0A"></path>
        <path d="M91.767 78.437c1.816.446 3.21.892 5.19 1.525.451-.253 1.554-1.019 2.765-1.527 5.479-2.298 10.458.632 10.92 6.88.415 5.6.087 11.254.087 17.177h-7.75c0-4.664.283-9.453-.16-14.173-.147-1.57-1.972-3.956-3.361-4.219-2.42-.457-4.272 1.074-4.177 4.15.143 4.643.037 9.294.037 14.24h-7.454c0-7.341-.103-14.619.152-21.884.027-.761 2.168-1.448 3.75-2.169" fill="#0C0C0C"></path>
        <path d="M78.927 79.979c5.453 4.628 5.652 10.342 3.874 16.127-1.453 4.727-5.255 7.051-10.24 7.273-5.274.234-10.19-.736-12.487-6.086-2.242-5.224-2.484-10.808 1.308-15.47 3.64-4.477 8.838-4.734 14.119-3.541 1.096.247 2.084.974 3.426 1.697m-5.218 3.748c-3.425-1.661-5.85-.53-7.074 2.878-1.581 4.397-.141 10.315 2.702 11.247 2.948.965 5.883.03 6.178-3.102.322-3.422-.749-6.976-1.806-11.023" fill="#0A0A0A"></path>
        <path d="M126.563 103.188c-9.2-1.776-12.646-6.495-11.443-15.174.972-7.007 6.69-11 14.607-10.2 6.856.693 9.724 5.152 8.843 14.138h-15.85c1.198 6.882 6.458 8.013 15.563 3.468v6.751c-3.666.345-7.494.705-11.72 1.017m-2.35-15.601h8.853c-1.71-2.39-2.35-4.264-3.416-4.55-1.708-.457-3.878-.258-5.484.473-.711.324-.52 2.628.047 4.077" fill="#0C0C0C"></path>
        <path d="M143.233 89.03V78.69c3.002.241 6.35-2.388 7.892 2.225l8.013-3.121v7.477c-1.173 0-2.139.026-3.103-.005-3.745-.12-5.933 1.002-5.473 5.433.391 3.772.08 7.617.08 11.78h-7.41z" fill="#1A1A1A"></path>
        <path d="M46.916 81.352c.8-5.404 4.45-1.656 6.893-3.31v24.494h-6.892z" fill="#0B0B0B"></path>
        <path d="M49.03 62.414c-.72 3.335-1.226 6.31-1.722 9.216-4.353-1.38-5.707-5.005-3.147-10.06 1.996-3.942 4.097-7.83 6.023-11.497 3.008 3.96 2.895 6.577-1.154 12.341" fill="#1167DD"></path>
        <path d="M170.813 83.606c3.443-1.153 6.585-.696 6.796 2.84.219 3.659-.136 8.02-2.022 10.911-1.376 2.11-5.962 1.271-6.38-2.296-.428-3.643.781-7.478 1.606-11.455" fill="#F3F3F3"></path>
        <path d="M32.72 85.185c-2.366.607-4.384.987-6.686 1.42v-11.22c3.09 1.245 6.07 1.682 7.7 3.4.922.97-.372 4.046-1.015 6.4" fill="#F0F0F0"></path>
        <path d="M74.005 84.002c.761 3.772 1.832 7.326 1.51 10.748-.295 3.131-3.23 4.067-6.178 3.102-2.843-.932-4.283-6.85-2.702-11.247 1.225-3.408 3.65-4.539 7.37-2.603" fill="#F2F2F2"></path>
        <path d="M123.82 87.565c-.174-1.427-.365-3.731.346-4.055 1.606-.731 3.776-.93 5.484-.472 1.066.285 1.706 2.16 3.416 4.549-3.77 0-6.311 0-9.246-.022" fill="#D4D4D4"></path>
    </g>
</svg>
