<svg preserveAspectRatio="xMidYMid meet" data-bbox="20 20.5 159.999 159" viewBox="20 20.5 159.999 159" height="200" width="200" xmlns="http://www.w3.org/2000/svg" data-type="color" role="presentation" aria-hidden="true" aria-label="">
    <g>
        <path d="M133.3 155.784c-.97 0-1.89-.434-2.51-1.18l-5.061-6.109-7.434 2.758a3.243 3.243 0 0 1-2.766-.233 3.27 3.27 0 0 1-1.583-2.283l-1.322-7.824-7.813-1.32a3.254 3.254 0 0 1-2.28-1.588 3.264 3.264 0 0 1-.234-2.767l2.756-7.438-6.102-5.069a3.26 3.26 0 0 1-1.178-2.512c0-.972.433-1.894 1.18-2.512l6.101-5.066-2.756-7.438a3.263 3.263 0 0 1 .234-2.767 3.258 3.258 0 0 1 2.28-1.588l7.813-1.32 1.322-7.824a3.27 3.27 0 0 1 1.583-2.283 3.265 3.265 0 0 1 2.766-.233l7.434 2.758 5.061-6.109a3.265 3.265 0 0 1 2.51-1.18c.971 0 1.892.434 2.511 1.18l5.059 6.109 7.432-2.758a3.253 3.253 0 0 1 2.766.233 3.27 3.27 0 0 1 1.583 2.283l1.322 7.824 7.812 1.32a3.254 3.254 0 0 1 2.28 1.588c.486.842.572 1.856.234 2.767l-2.757 7.438 6.101 5.066a3.263 3.263 0 0 1 .002 5.024l-6.102 5.069 2.757 7.438a3.263 3.263 0 0 1-.234 2.767 3.258 3.258 0 0 1-2.28 1.588l-7.812 1.32-1.322 7.824a3.27 3.27 0 0 1-1.583 2.283 3.242 3.242 0 0 1-2.766.233l-7.432-2.758-5.059 6.109a3.27 3.27 0 0 1-2.513 1.18zm-6.537-14.42c.951 0 1.877.418 2.51 1.18l4.027 4.862 4.024-4.862a3.269 3.269 0 0 1 3.645-.976l5.908 2.194 1.051-6.224a3.266 3.266 0 0 1 2.672-2.675l6.215-1.052-2.191-5.911a3.263 3.263 0 0 1 .975-3.647l4.855-4.033-4.854-4.03a3.26 3.26 0 0 1-.976-3.647l2.191-5.911-6.215-1.052a3.265 3.265 0 0 1-2.672-2.675l-1.051-6.224-5.908 2.194a3.269 3.269 0 0 1-3.645-.976l-4.024-4.862-4.027 4.862a3.266 3.266 0 0 1-3.644.976l-5.908-2.194-1.051 6.224a3.266 3.266 0 0 1-2.672 2.675l-6.215 1.052 2.191 5.911a3.26 3.26 0 0 1-.976 3.647l-4.854 4.03 4.855 4.033a3.267 3.267 0 0 1 .975 3.647l-2.191 5.911 6.215 1.052a3.265 3.265 0 0 1 2.672 2.675l1.051 6.224 5.908-2.194c.37-.138.754-.204 1.134-.204z" fill="#1C31F4" data-color="1"></path>
        <path d="M133.3 135.548c-8.443 0-15.313-6.877-15.313-15.329 0-8.452 6.87-15.326 15.313-15.326 8.443 0 15.311 6.874 15.311 15.326 0 8.452-6.868 15.329-15.311 15.329zm0-24.125c-4.847 0-8.79 3.947-8.79 8.796 0 4.853 3.943 8.8 8.79 8.8 4.846 0 8.789-3.947 8.789-8.8 0-4.849-3.943-8.796-8.789-8.796z" fill="#1C31F4" data-color="1"></path>
        <path d="M120.144 179.498h-.097a3.268 3.268 0 0 1-2.843-1.852l-5.435-11.331H96.435a3.26 3.26 0 0 1-2.762-4.999l15.98-25.48a3.266 3.266 0 0 1 4.495-1.03 3.263 3.263 0 0 1 1.027 4.499l-12.843 20.481h11.488c1.255 0 2.397.721 2.94 1.852l3.593 7.492 10.096-18.195c1.15-2.072 4.551-2.072 5.701 0l10.094 18.195 3.593-7.492a3.26 3.26 0 0 1 2.94-1.852h11.488l-12.843-20.481a3.265 3.265 0 0 1 1.029-4.499 3.268 3.268 0 0 1 4.497 1.03l15.978 25.48a3.266 3.266 0 0 1-2.763 4.999H154.83l-5.435 11.331a3.265 3.265 0 0 1-2.843 1.852c-1.293.041-2.357-.612-2.948-1.68L133.3 159.243l-10.306 18.575a3.259 3.259 0 0 1-2.85 1.68z" fill="#1C31F4" data-color="1"></path>
        <path d="M176.739 147.89h-22.614a3.262 3.262 0 0 1-3.261-3.265 3.262 3.262 0 0 1 3.261-3.265h19.353V27.03H26.523v114.33h85.952a3.262 3.262 0 0 1 3.261 3.265 3.262 3.262 0 0 1-3.261 3.265H23.261A3.262 3.262 0 0 1 20 144.625V23.765a3.262 3.262 0 0 1 3.261-3.265h153.477a3.262 3.262 0 0 1 3.261 3.265v120.86a3.26 3.26 0 0 1-3.26 3.265z" fill="#1C31F4" data-color="1"></path>
        <path d="M108.251 132.022H52.548a3.262 3.262 0 0 1-3.261-3.265c0-6.083-4.946-11.035-11.024-11.035a3.262 3.262 0 0 1-3.261-3.265V53.996a3.262 3.262 0 0 1 3.261-3.265c6.078 0 11.024-4.98 11.024-11.102a3.262 3.262 0 0 1 3.261-3.265h94.904a3.262 3.262 0 0 1 3.261 3.265c0 6.121 4.975 11.102 11.088 11.102a3.262 3.262 0 0 1 3.261 3.265v60.462a3.262 3.262 0 0 1-3.261 3.265c-.785 0-1.422.057-1.948.179a3.253 3.253 0 0 1-3.906-2.455 3.261 3.261 0 0 1 2.451-3.909c.048-.013.094-.022.142-.032V56.958c-7.101-1.336-12.712-6.953-14.047-14.063H55.508c-1.33 7.107-6.916 12.721-13.985 14.06v54.541c7.066 1.336 12.649 6.925 13.982 13.996h52.746a3.262 3.262 0 0 1 3.261 3.265 3.261 3.261 0 0 1-3.261 3.265z" fill="#1C31F4" data-color="1"></path>
        <path d="M136.259 72.462H63.76a3.262 3.262 0 0 1-3.261-3.265V56.652a3.262 3.262 0 0 1 3.261-3.265h72.499a3.262 3.262 0 0 1 3.261 3.265v12.546a3.262 3.262 0 0 1-3.261 3.264zm-69.238-6.529h65.976v-6.016H67.021v6.016z" fill="#1C31F4" data-color="1"></path>
    </g>
</svg>
